{"glyphs":{"0":{"ha":608,"x_min":0,"x_max":521,"o":"m 434 955 l 434 868 l 87 868 l 87 955 l 434 955 m 347 434 l 174 434 l 174 521 l 347 521 l 347 434 m 0 868 l 87 868 l 87 434 l 174 434 l 174 347 l 87 347 l 87 87 l 0 87 l 0 868 m 434 521 l 347 521 l 347 608 l 434 608 l 434 868 l 521 868 l 521 87 l 434 87 l 434 521 m 87 87 l 434 87 l 434 0 l 87 0 l 87 87 z "},"1":{"ha":608,"x_min":87,"x_max":347,"o":"m 87 781 l 174 781 l 174 694 l 87 694 l 87 781 m 347 0 l 260 0 l 260 781 l 174 781 l 174 868 l 260 868 l 260 955 l 347 955 l 347 0 z "},"2":{"ha":608,"x_min":0,"x_max":521,"o":"m 434 955 l 434 868 l 87 868 l 87 955 l 434 955 m 0 868 l 87 868 l 87 781 l 0 781 l 0 868 m 434 868 l 521 868 l 521 521 l 434 521 l 434 868 m 347 521 l 434 521 l 434 434 l 347 434 l 347 521 m 260 434 l 347 434 l 347 347 l 260 347 l 260 434 m 174 347 l 260 347 l 260 260 l 174 260 l 174 347 m 87 260 l 174 260 l 174 174 l 87 174 l 87 260 m 521 87 l 521 0 l 0 0 l 0 174 l 87 174 l 87 87 l 521 87 z "},"3":{"ha":608,"x_min":0,"x_max":521,"o":"m 434 955 l 434 868 l 87 868 l 87 955 l 434 955 m 0 868 l 87 868 l 87 781 l 0 781 l 0 868 m 434 868 l 521 868 l 521 521 l 434 521 l 434 868 m 434 521 l 434 434 l 174 434 l 174 521 l 434 521 m 0 174 l 87 174 l 87 87 l 0 87 l 0 174 m 434 434 l 521 434 l 521 87 l 434 87 l 434 434 m 87 87 l 434 87 l 434 0 l 87 0 l 87 87 z "},"4":{"ha":608,"x_min":0,"x_max":521,"o":"m 174 868 l 260 868 l 260 694 l 174 694 l 174 868 m 87 694 l 174 694 l 174 434 l 87 434 l 87 694 m 521 174 l 434 174 l 434 0 l 347 0 l 347 174 l 0 174 l 0 434 l 87 434 l 87 260 l 347 260 l 347 868 l 260 868 l 260 955 l 434 955 l 434 260 l 521 260 l 521 174 z "},"5":{"ha":608,"x_min":0,"x_max":521,"o":"m 434 521 l 434 434 l 0 434 l 0 955 l 521 955 l 521 868 l 87 868 l 87 521 l 434 521 m 0 174 l 87 174 l 87 87 l 0 87 l 0 174 m 434 434 l 521 434 l 521 87 l 434 87 l 434 434 m 87 87 l 434 87 l 434 0 l 87 0 l 87 87 z "},"6":{"ha":608,"x_min":0,"x_max":521,"o":"m 434 955 l 434 868 l 87 868 l 87 955 l 434 955 m 434 868 l 521 868 l 521 781 l 434 781 l 434 868 m 434 521 l 434 434 l 87 434 l 87 87 l 0 87 l 0 868 l 87 868 l 87 521 l 434 521 m 434 434 l 521 434 l 521 87 l 434 87 l 434 434 m 87 87 l 434 87 l 434 0 l 87 0 l 87 87 z "},"7":{"ha":608,"x_min":0,"x_max":521,"o":"m 0 955 l 521 955 l 521 694 l 434 694 l 434 868 l 0 868 l 0 955 m 347 694 l 434 694 l 434 434 l 347 434 l 347 694 m 260 434 l 347 434 l 347 0 l 260 0 l 260 434 z "},"8":{"ha":608,"x_min":0,"x_max":521,"o":"m 434 955 l 434 868 l 87 868 l 87 955 l 434 955 m 0 868 l 87 868 l 87 521 l 0 521 l 0 868 m 434 868 l 521 868 l 521 521 l 434 521 l 434 868 m 434 521 l 434 434 l 87 434 l 87 521 l 434 521 m 0 434 l 87 434 l 87 87 l 0 87 l 0 434 m 434 434 l 521 434 l 521 87 l 434 87 l 434 434 m 87 87 l 434 87 l 434 0 l 87 0 l 87 87 z "},"9":{"ha":608,"x_min":0,"x_max":521,"o":"m 434 955 l 434 868 l 87 868 l 87 955 l 434 955 m 0 868 l 87 868 l 87 521 l 0 521 l 0 868 m 0 174 l 87 174 l 87 87 l 0 87 l 0 174 m 434 434 l 87 434 l 87 521 l 434 521 l 434 868 l 521 868 l 521 87 l 434 87 l 434 434 m 87 87 l 434 87 l 434 0 l 87 0 l 87 87 z "}," ":{"ha":608,"x_min":0,"x_max":0,"o":""},"!":{"ha":521,"x_min":87,"x_max":347,"o":"m 174 608 l 87 608 l 87 868 l 174 868 l 174 955 l 260 955 l 260 868 l 347 868 l 347 608 l 260 608 l 260 260 l 174 260 l 174 608 m 174 87 l 260 87 l 260 0 l 174 0 l 174 87 z "},"\"":{"ha":521,"x_min":87,"x_max":347,"o":"m 87 955 l 174 955 l 174 694 l 87 694 l 87 955 m 260 955 l 347 955 l 347 694 l 260 694 l 260 955 z "},"#":{"ha":608,"x_min":0,"x_max":521,"o":"m 347 260 l 347 694 l 174 694 l 174 260 l 347 260 m 521 174 l 434 174 l 434 0 l 347 0 l 347 174 l 174 174 l 174 0 l 87 0 l 87 174 l 0 174 l 0 260 l 87 260 l 87 694 l 0 694 l 0 781 l 87 781 l 87 955 l 174 955 l 174 781 l 347 781 l 347 955 l 434 955 l 434 781 l 521 781 l 521 694 l 434 694 l 434 260 l 521 260 l 521 174 z "},"$":{"ha":694,"x_min":0,"x_max":608,"o":"m 521 868 l 608 868 l 608 781 l 521 781 l 521 868 m 0 868 l 87 868 l 87 608 l 0 608 l 0 868 m 87 608 l 174 608 l 174 521 l 87 521 l 87 608 m 434 434 l 521 434 l 521 347 l 434 347 l 434 434 m 0 174 l 87 174 l 87 87 l 0 87 l 0 174 m 521 347 l 608 347 l 608 87 l 521 87 l 521 347 m 260 955 l 260 1042 l 347 1042 l 347 955 l 521 955 l 521 868 l 347 868 l 347 521 l 434 521 l 434 434 l 347 434 l 347 87 l 521 87 l 521 0 l 347 0 l 347 -87 l 260 -87 l 260 0 l 87 0 l 87 87 l 260 87 l 260 434 l 174 434 l 174 521 l 260 521 l 260 868 l 87 868 l 87 955 l 260 955 z "},"%":{"ha":694,"x_min":0,"x_max":608,"o":"m 87 955 l 174 955 l 174 868 l 87 868 l 87 955 m 0 868 l 87 868 l 87 781 l 0 781 l 0 868 m 174 868 l 260 868 l 260 781 l 174 781 l 174 868 m 434 955 l 521 955 l 521 781 l 434 781 l 434 955 m 87 781 l 174 781 l 174 694 l 87 694 l 87 781 m 347 781 l 434 781 l 434 608 l 347 608 l 347 781 m 260 608 l 347 608 l 347 347 l 260 347 l 260 608 m 174 347 l 260 347 l 260 174 l 174 174 l 174 347 m 434 260 l 521 260 l 521 174 l 434 174 l 434 260 m 347 174 l 434 174 l 434 87 l 347 87 l 347 174 m 521 174 l 608 174 l 608 87 l 521 87 l 521 174 m 87 174 l 174 174 l 174 0 l 87 0 l 87 174 m 434 87 l 521 87 l 521 0 l 434 0 l 434 87 z "},"&":{"ha":694,"x_min":0,"x_max":608,"o":"m 347 868 l 174 868 l 174 955 l 347 955 l 347 868 m 87 868 l 174 868 l 174 608 l 87 608 l 87 868 m 347 868 l 434 868 l 434 608 l 347 608 l 347 868 m 260 521 l 174 521 l 174 608 l 347 608 l 347 434 l 260 434 l 260 521 m 87 521 l 174 521 l 174 347 l 87 347 l 87 521 m 347 434 l 434 434 l 434 260 l 347 260 l 347 434 m 521 434 l 608 434 l 608 260 l 521 260 l 521 434 m 0 347 l 87 347 l 87 87 l 0 87 l 0 347 m 434 260 l 521 260 l 521 87 l 434 87 l 434 260 m 87 87 l 434 87 l 434 0 l 87 0 l 87 87 m 521 87 l 608 87 l 608 0 l 521 0 l 521 87 z "},"'":{"ha":347,"x_min":87,"x_max":174,"o":"m 87 955 l 174 955 l 174 694 l 87 694 l 87 955 z "},"(":{"ha":521,"x_min":87,"x_max":347,"o":"m 260 1042 l 347 1042 l 347 955 l 260 955 l 260 1042 m 174 955 l 260 955 l 260 781 l 174 781 l 174 955 m 87 781 l 174 781 l 174 87 l 87 87 l 87 781 m 174 87 l 260 87 l 260 -87 l 174 -87 l 174 87 m 260 -87 l 347 -87 l 347 -174 l 260 -174 l 260 -87 z "},")":{"ha":521,"x_min":87,"x_max":347,"o":"m 87 1042 l 174 1042 l 174 955 l 87 955 l 87 1042 m 174 955 l 260 955 l 260 781 l 174 781 l 174 955 m 260 781 l 347 781 l 347 87 l 260 87 l 260 781 m 174 87 l 260 87 l 260 -87 l 174 -87 l 174 87 m 87 -87 l 174 -87 l 174 -174 l 87 -174 l 87 -87 z "},"*":{"ha":521,"x_min":0,"x_max":434,"o":"m 0 608 l 87 608 l 87 521 l 0 521 l 0 608 m 347 608 l 434 608 l 434 521 l 347 521 l 347 608 m 0 434 l 87 434 l 87 347 l 0 347 l 0 434 m 347 434 l 434 434 l 434 347 l 347 347 l 347 434 m 174 434 l 87 434 l 87 521 l 174 521 l 174 694 l 260 694 l 260 521 l 347 521 l 347 434 l 260 434 l 260 260 l 174 260 l 174 434 z "},"+":{"ha":521,"x_min":0,"x_max":434,"o":"m 174 434 l 0 434 l 0 521 l 174 521 l 174 694 l 260 694 l 260 521 l 434 521 l 434 434 l 260 434 l 260 260 l 174 260 l 174 434 z "},",":{"ha":434,"x_min":87,"x_max":260,"o":"m 87 174 l 260 174 l 260 -87 l 174 -87 l 174 0 l 87 0 l 87 174 m 87 -87 l 174 -87 l 174 -174 l 87 -174 l 87 -87 z "},"-":{"ha":521,"x_min":0,"x_max":434,"o":"m 0 521 l 434 521 l 434 434 l 0 434 l 0 521 z "},".":{"ha":434,"x_min":87,"x_max":260,"o":"m 87 174 l 260 174 l 260 0 l 87 0 l 87 174 z "},"/":{"ha":521,"x_min":0,"x_max":434,"o":"m 347 1042 l 434 1042 l 434 781 l 347 781 l 347 1042 m 260 781 l 347 781 l 347 521 l 260 521 l 260 781 m 174 521 l 260 521 l 260 347 l 174 347 l 174 521 m 87 347 l 174 347 l 174 87 l 87 87 l 87 347 m 0 87 l 87 87 l 87 -174 l 0 -174 l 0 87 z "},":":{"ha":434,"x_min":87,"x_max":260,"o":"m 87 694 l 260 694 l 260 521 l 87 521 l 87 694 m 87 174 l 260 174 l 260 0 l 87 0 l 87 174 z "},";":{"ha":434,"x_min":87,"x_max":260,"o":"m 87 694 l 260 694 l 260 521 l 87 521 l 87 694 m 87 174 l 260 174 l 260 -87 l 174 -87 l 174 0 l 87 0 l 87 174 m 87 -87 l 174 -87 l 174 -174 l 87 -174 l 87 -87 z "},"<":{"ha":434,"x_min":0,"x_max":347,"o":"m 260 781 l 347 781 l 347 694 l 260 694 l 260 781 m 174 694 l 260 694 l 260 608 l 174 608 l 174 694 m 87 608 l 174 608 l 174 521 l 87 521 l 87 608 m 0 521 l 87 521 l 87 434 l 0 434 l 0 521 m 87 434 l 174 434 l 174 347 l 87 347 l 87 434 m 174 347 l 260 347 l 260 260 l 174 260 l 174 347 m 260 260 l 347 260 l 347 174 l 260 174 l 260 260 z "},"=":{"ha":521,"x_min":0,"x_max":434,"o":"m 434 608 l 434 521 l 0 521 l 0 608 l 434 608 m 434 434 l 434 347 l 0 347 l 0 434 l 434 434 z "},">":{"ha":434,"x_min":0,"x_max":347,"o":"m 0 781 l 87 781 l 87 694 l 0 694 l 0 781 m 87 694 l 174 694 l 174 608 l 87 608 l 87 694 m 174 608 l 260 608 l 260 521 l 174 521 l 174 608 m 260 521 l 347 521 l 347 434 l 260 434 l 260 521 m 174 434 l 260 434 l 260 347 l 174 347 l 174 434 m 87 347 l 174 347 l 174 260 l 87 260 l 87 347 m 0 260 l 87 260 l 87 174 l 0 174 l 0 260 z "},"?":{"ha":608,"x_min":0,"x_max":521,"o":"m 434 955 l 434 868 l 87 868 l 87 955 l 434 955 m 0 868 l 87 868 l 87 694 l 0 694 l 0 868 m 434 868 l 521 868 l 521 608 l 434 608 l 434 868 m 347 608 l 434 608 l 434 521 l 347 521 l 347 608 m 260 521 l 347 521 l 347 260 l 260 260 l 260 521 m 260 87 l 347 87 l 347 0 l 260 0 l 260 87 z "},"@":{"ha":781,"x_min":0,"x_max":694,"o":"m 521 955 l 521 868 l 174 868 l 174 955 l 521 955 m 87 868 l 174 868 l 174 781 l 87 781 l 87 868 m 521 868 l 608 868 l 608 781 l 521 781 l 521 868 m 521 694 l 521 260 l 434 260 l 434 608 l 260 608 l 260 694 l 521 694 m 434 174 l 174 174 l 174 608 l 260 608 l 260 260 l 434 260 l 434 174 m 521 260 l 608 260 l 608 781 l 694 781 l 694 174 l 521 174 l 521 260 m 0 781 l 87 781 l 87 87 l 0 87 l 0 781 m 87 87 l 174 87 l 174 0 l 87 0 l 87 87 m 608 -87 l 174 -87 l 174 0 l 608 0 l 608 -87 z "},"A":{"ha":694,"x_min":0,"x_max":608,"o":"m 260 955 l 347 955 l 347 781 l 260 781 l 260 955 m 174 781 l 260 781 l 260 521 l 174 521 l 174 781 m 347 781 l 434 781 l 434 521 l 347 521 l 347 781 m 434 347 l 434 521 l 521 521 l 521 260 l 87 260 l 87 521 l 174 521 l 174 347 l 434 347 m 0 260 l 87 260 l 87 0 l 0 0 l 0 260 m 521 260 l 608 260 l 608 0 l 521 0 l 521 260 z "},"B":{"ha":694,"x_min":0,"x_max":608,"o":"m 434 868 l 521 868 l 521 781 l 434 781 l 434 868 m 521 781 l 608 781 l 608 608 l 521 608 l 521 781 m 434 608 l 521 608 l 521 521 l 434 521 l 434 608 m 434 434 l 521 434 l 521 347 l 434 347 l 434 434 m 521 347 l 608 347 l 608 174 l 521 174 l 521 347 m 434 174 l 521 174 l 521 87 l 434 87 l 434 174 m 0 955 l 434 955 l 434 868 l 87 868 l 87 521 l 434 521 l 434 434 l 87 434 l 87 87 l 434 87 l 434 0 l 0 0 l 0 955 z "},"C":{"ha":694,"x_min":0,"x_max":608,"o":"m 521 955 l 521 868 l 174 868 l 174 955 l 521 955 m 87 868 l 174 868 l 174 781 l 87 781 l 87 868 m 521 868 l 608 868 l 608 781 l 521 781 l 521 868 m 0 781 l 87 781 l 87 174 l 0 174 l 0 781 m 87 174 l 174 174 l 174 87 l 87 87 l 87 174 m 521 174 l 608 174 l 608 87 l 521 87 l 521 174 m 521 87 l 521 0 l 174 0 l 174 87 l 521 87 z "},"D":{"ha":694,"x_min":0,"x_max":608,"o":"m 434 868 l 521 868 l 521 781 l 434 781 l 434 868 m 521 781 l 608 781 l 608 174 l 521 174 l 521 781 m 434 174 l 521 174 l 521 87 l 434 87 l 434 174 m 0 955 l 434 955 l 434 868 l 87 868 l 87 87 l 434 87 l 434 0 l 0 0 l 0 955 z "},"E":{"ha":694,"x_min":0,"x_max":608,"o":"m 0 955 l 608 955 l 608 868 l 87 868 l 87 521 l 521 521 l 521 434 l 87 434 l 87 87 l 608 87 l 608 0 l 0 0 l 0 955 z "},"F":{"ha":694,"x_min":0,"x_max":608,"o":"m 0 955 l 608 955 l 608 868 l 87 868 l 87 521 l 521 521 l 521 434 l 87 434 l 87 0 l 0 0 l 0 955 z "},"G":{"ha":694,"x_min":0,"x_max":608,"o":"m 521 955 l 521 868 l 174 868 l 174 955 l 521 955 m 87 868 l 174 868 l 174 781 l 87 781 l 87 868 m 521 868 l 608 868 l 608 781 l 521 781 l 521 868 m 0 781 l 87 781 l 87 174 l 0 174 l 0 781 m 87 174 l 174 174 l 174 87 l 87 87 l 87 174 m 174 87 l 521 87 l 521 347 l 347 347 l 347 434 l 608 434 l 608 0 l 174 0 l 174 87 z "},"H":{"ha":694,"x_min":0,"x_max":608,"o":"m 608 0 l 521 0 l 521 434 l 87 434 l 87 0 l 0 0 l 0 955 l 87 955 l 87 521 l 521 521 l 521 955 l 608 955 l 608 0 z "},"I":{"ha":347,"x_min":0,"x_max":260,"o":"m 87 868 l 0 868 l 0 955 l 260 955 l 260 868 l 174 868 l 174 87 l 260 87 l 260 0 l 0 0 l 0 87 l 87 87 l 87 868 z "},"J":{"ha":608,"x_min":0,"x_max":521,"o":"m 0 347 l 87 347 l 87 87 l 0 87 l 0 347 m 434 955 l 521 955 l 521 87 l 434 87 l 434 955 m 87 87 l 434 87 l 434 0 l 87 0 l 87 87 z "},"K":{"ha":694,"x_min":0,"x_max":608,"o":"m 521 955 l 608 955 l 608 868 l 521 868 l 521 955 m 434 868 l 521 868 l 521 781 l 434 781 l 434 868 m 347 781 l 434 781 l 434 694 l 347 694 l 347 781 m 260 694 l 347 694 l 347 608 l 260 608 l 260 694 m 174 608 l 260 608 l 260 521 l 174 521 l 174 608 m 174 434 l 260 434 l 260 347 l 174 347 l 174 434 m 260 347 l 347 347 l 347 260 l 260 260 l 260 347 m 347 260 l 434 260 l 434 174 l 347 174 l 347 260 m 434 174 l 521 174 l 521 87 l 434 87 l 434 174 m 174 434 l 87 434 l 87 0 l 0 0 l 0 955 l 87 955 l 87 521 l 174 521 l 174 434 m 521 87 l 608 87 l 608 0 l 521 0 l 521 87 z "},"L":{"ha":608,"x_min":0,"x_max":521,"o":"m 0 955 l 87 955 l 87 87 l 521 87 l 521 0 l 0 0 l 0 955 z "},"M":{"ha":1042,"x_min":0,"x_max":955,"o":"m 174 694 l 260 694 l 260 521 l 174 521 l 174 694 m 694 694 l 781 694 l 781 521 l 694 521 l 694 694 m 260 521 l 347 521 l 347 347 l 260 347 l 260 521 m 608 521 l 694 521 l 694 347 l 608 347 l 608 521 m 347 347 l 434 347 l 434 174 l 347 174 l 347 347 m 521 347 l 608 347 l 608 174 l 521 174 l 521 347 m 0 955 l 87 955 l 87 868 l 174 868 l 174 694 l 87 694 l 87 0 l 0 0 l 0 955 m 434 174 l 521 174 l 521 0 l 434 0 l 434 174 m 868 694 l 781 694 l 781 868 l 868 868 l 868 955 l 955 955 l 955 0 l 868 0 l 868 694 z "},"N":{"ha":694,"x_min":0,"x_max":608,"o":"m 174 694 l 260 694 l 260 521 l 174 521 l 174 694 m 260 521 l 347 521 l 347 434 l 260 434 l 260 521 m 347 434 l 434 434 l 434 260 l 347 260 l 347 434 m 0 955 l 87 955 l 87 868 l 174 868 l 174 694 l 87 694 l 87 0 l 0 0 l 0 955 m 521 955 l 608 955 l 608 0 l 521 0 l 521 87 l 434 87 l 434 260 l 521 260 l 521 955 z "},"O":{"ha":694,"x_min":0,"x_max":608,"o":"m 434 955 l 434 868 l 174 868 l 174 955 l 434 955 m 87 868 l 174 868 l 174 781 l 87 781 l 87 868 m 434 868 l 521 868 l 521 781 l 434 781 l 434 868 m 0 781 l 87 781 l 87 174 l 0 174 l 0 781 m 521 781 l 608 781 l 608 174 l 521 174 l 521 781 m 87 174 l 174 174 l 174 87 l 87 87 l 87 174 m 434 174 l 521 174 l 521 87 l 434 87 l 434 174 m 434 0 l 174 0 l 174 87 l 434 87 l 434 0 z "},"P":{"ha":694,"x_min":0,"x_max":608,"o":"m 521 868 l 608 868 l 608 521 l 521 521 l 521 868 m 0 955 l 521 955 l 521 868 l 87 868 l 87 521 l 521 521 l 521 434 l 87 434 l 87 0 l 0 0 l 0 955 z "},"Q":{"ha":694,"x_min":0,"x_max":608,"o":"m 434 955 l 434 868 l 174 868 l 174 955 l 434 955 m 87 868 l 174 868 l 174 781 l 87 781 l 87 868 m 434 868 l 521 868 l 521 781 l 434 781 l 434 868 m 0 781 l 87 781 l 87 174 l 0 174 l 0 781 m 347 260 l 434 260 l 434 174 l 347 174 l 347 260 m 521 781 l 608 781 l 608 174 l 521 174 l 521 781 m 87 174 l 174 174 l 174 87 l 87 87 l 87 174 m 434 174 l 521 174 l 521 87 l 434 87 l 434 174 m 434 0 l 174 0 l 174 87 l 434 87 l 434 0 m 521 87 l 608 87 l 608 0 l 521 0 l 521 87 z "},"R":{"ha":694,"x_min":0,"x_max":608,"o":"m 521 868 l 608 868 l 608 521 l 521 521 l 521 868 m 347 347 l 434 347 l 434 174 l 347 174 l 347 347 m 434 174 l 521 174 l 521 87 l 434 87 l 434 174 m 0 955 l 521 955 l 521 868 l 87 868 l 87 521 l 521 521 l 521 434 l 347 434 l 347 347 l 260 347 l 260 434 l 87 434 l 87 0 l 0 0 l 0 955 m 521 87 l 608 87 l 608 0 l 521 0 l 521 87 z "},"S":{"ha":694,"x_min":0,"x_max":608,"o":"m 87 955 l 521 955 l 521 868 l 87 868 l 87 955 m 521 868 l 608 868 l 608 781 l 521 781 l 521 868 m 0 868 l 87 868 l 87 608 l 0 608 l 0 868 m 87 608 l 174 608 l 174 521 l 87 521 l 87 608 m 434 521 l 434 434 l 174 434 l 174 521 l 434 521 m 434 434 l 521 434 l 521 347 l 434 347 l 434 434 m 0 174 l 87 174 l 87 87 l 0 87 l 0 174 m 521 347 l 608 347 l 608 87 l 521 87 l 521 347 m 87 87 l 521 87 l 521 0 l 87 0 l 87 87 z "},"T":{"ha":694,"x_min":0,"x_max":608,"o":"m 0 955 l 608 955 l 608 868 l 347 868 l 347 0 l 260 0 l 260 868 l 0 868 l 0 955 z "},"U":{"ha":694,"x_min":0,"x_max":608,"o":"m 0 955 l 87 955 l 87 174 l 0 174 l 0 955 m 521 955 l 608 955 l 608 174 l 521 174 l 521 955 m 87 174 l 174 174 l 174 87 l 87 87 l 87 174 m 434 174 l 521 174 l 521 87 l 434 87 l 434 174 m 434 0 l 174 0 l 174 87 l 434 87 l 434 0 z "},"V":{"ha":694,"x_min":0,"x_max":608,"o":"m 0 955 l 87 955 l 87 694 l 0 694 l 0 955 m 521 955 l 608 955 l 608 694 l 521 694 l 521 955 m 87 694 l 174 694 l 174 434 l 87 434 l 87 694 m 434 694 l 521 694 l 521 434 l 434 434 l 434 694 m 174 434 l 260 434 l 260 174 l 174 174 l 174 434 m 347 434 l 434 434 l 434 174 l 347 174 l 347 434 m 260 174 l 347 174 l 347 0 l 260 0 l 260 174 z "},"W":{"ha":1042,"x_min":0,"x_max":955,"o":"m 434 955 l 521 955 l 521 781 l 434 781 l 434 955 m 0 955 l 87 955 l 87 608 l 0 608 l 0 955 m 868 955 l 955 955 l 955 608 l 868 608 l 868 955 m 347 781 l 434 781 l 434 521 l 347 521 l 347 781 m 521 781 l 608 781 l 608 521 l 521 521 l 521 781 m 87 608 l 174 608 l 174 260 l 87 260 l 87 608 m 260 521 l 347 521 l 347 260 l 260 260 l 260 521 m 608 521 l 694 521 l 694 260 l 608 260 l 608 521 m 781 608 l 868 608 l 868 260 l 781 260 l 781 608 m 174 260 l 260 260 l 260 0 l 174 0 l 174 260 m 694 260 l 781 260 l 781 0 l 694 0 l 694 260 z "},"X":{"ha":694,"x_min":0,"x_max":608,"o":"m 0 955 l 87 955 l 87 781 l 0 781 l 0 955 m 521 955 l 608 955 l 608 781 l 521 781 l 521 955 m 87 781 l 174 781 l 174 608 l 87 608 l 87 781 m 434 781 l 521 781 l 521 608 l 434 608 l 434 781 m 174 608 l 260 608 l 260 521 l 174 521 l 174 608 m 347 608 l 434 608 l 434 521 l 347 521 l 347 608 m 260 521 l 347 521 l 347 434 l 260 434 l 260 521 m 174 434 l 260 434 l 260 347 l 174 347 l 174 434 m 347 434 l 434 434 l 434 347 l 347 347 l 347 434 m 87 347 l 174 347 l 174 174 l 87 174 l 87 347 m 434 347 l 521 347 l 521 174 l 434 174 l 434 347 m 0 174 l 87 174 l 87 0 l 0 0 l 0 174 m 521 174 l 608 174 l 608 0 l 521 0 l 521 174 z "},"Y":{"ha":694,"x_min":0,"x_max":608,"o":"m 0 955 l 87 955 l 87 781 l 0 781 l 0 955 m 521 955 l 608 955 l 608 781 l 521 781 l 521 955 m 87 781 l 174 781 l 174 608 l 87 608 l 87 781 m 434 781 l 521 781 l 521 608 l 434 608 l 434 781 m 174 608 l 260 608 l 260 434 l 174 434 l 174 608 m 347 608 l 434 608 l 434 434 l 347 434 l 347 608 m 260 434 l 347 434 l 347 0 l 260 0 l 260 434 z "},"Z":{"ha":694,"x_min":0,"x_max":608,"o":"m 0 955 l 608 955 l 608 781 l 521 781 l 521 868 l 0 868 l 0 955 m 434 781 l 521 781 l 521 694 l 434 694 l 434 781 m 347 694 l 434 694 l 434 521 l 347 521 l 347 694 m 260 521 l 347 521 l 347 434 l 260 434 l 260 521 m 174 434 l 260 434 l 260 260 l 174 260 l 174 434 m 87 260 l 174 260 l 174 174 l 87 174 l 87 260 m 608 87 l 608 0 l 0 0 l 0 174 l 87 174 l 87 87 l 608 87 z "},"[":{"ha":521,"x_min":87,"x_max":347,"o":"m 87 1042 l 347 1042 l 347 955 l 174 955 l 174 -87 l 347 -87 l 347 -174 l 87 -174 l 87 1042 z "},"\\":{"ha":521,"x_min":0,"x_max":434,"o":"m 0 1042 l 87 1042 l 87 781 l 0 781 l 0 1042 m 87 781 l 174 781 l 174 521 l 87 521 l 87 781 m 174 521 l 260 521 l 260 347 l 174 347 l 174 521 m 260 347 l 347 347 l 347 87 l 260 87 l 260 347 m 347 87 l 434 87 l 434 -174 l 347 -174 l 347 87 z "},"]":{"ha":521,"x_min":87,"x_max":347,"o":"m 260 955 l 87 955 l 87 1042 l 347 1042 l 347 -174 l 87 -174 l 87 -87 l 260 -87 l 260 955 z "},"^":{"ha":521,"x_min":0,"x_max":434,"o":"m 174 955 l 260 955 l 260 868 l 174 868 l 174 955 m 87 868 l 174 868 l 174 781 l 87 781 l 87 868 m 260 868 l 347 868 l 347 781 l 260 781 l 260 868 m 0 781 l 87 781 l 87 694 l 0 694 l 0 781 m 347 781 l 434 781 l 434 694 l 347 694 l 347 781 z "},"_":{"ha":608,"x_min":0,"x_max":521,"o":"m 521 -260 l 0 -260 l 0 -174 l 521 -174 l 521 -260 z "},"`":{"ha":521,"x_min":87,"x_max":347,"o":"m 87 955 l 174 955 l 174 868 l 87 868 l 87 955 m 174 868 l 260 868 l 260 781 l 174 781 l 174 868 m 260 781 l 347 781 l 347 694 l 260 694 l 260 781 z "},"a":{"ha":608,"x_min":0,"x_max":521,"o":"m 434 608 l 87 608 l 87 694 l 434 694 l 434 608 m 0 347 l 87 347 l 87 87 l 0 87 l 0 347 m 434 347 l 87 347 l 87 434 l 434 434 l 434 608 l 521 608 l 521 0 l 87 0 l 87 87 l 434 87 l 434 347 z "},"b":{"ha":608,"x_min":0,"x_max":521,"o":"m 434 608 l 521 608 l 521 87 l 434 87 l 434 608 m 0 955 l 87 955 l 87 694 l 434 694 l 434 608 l 87 608 l 87 87 l 434 87 l 434 0 l 0 0 l 0 955 z "},"c":{"ha":608,"x_min":0,"x_max":521,"o":"m 434 608 l 87 608 l 87 694 l 434 694 l 434 608 m 434 608 l 521 608 l 521 521 l 434 521 l 434 608 m 0 608 l 87 608 l 87 87 l 0 87 l 0 608 m 434 174 l 521 174 l 521 87 l 434 87 l 434 174 m 87 87 l 434 87 l 434 0 l 87 0 l 87 87 z "},"d":{"ha":608,"x_min":0,"x_max":521,"o":"m 0 608 l 87 608 l 87 87 l 0 87 l 0 608 m 434 608 l 87 608 l 87 694 l 434 694 l 434 955 l 521 955 l 521 0 l 87 0 l 87 87 l 434 87 l 434 608 z "},"e":{"ha":608,"x_min":0,"x_max":521,"o":"m 434 608 l 87 608 l 87 694 l 434 694 l 434 608 m 434 608 l 521 608 l 521 347 l 87 347 l 87 87 l 0 87 l 0 608 l 87 608 l 87 434 l 434 434 l 434 608 m 434 174 l 521 174 l 521 87 l 434 87 l 434 174 m 87 87 l 434 87 l 434 0 l 87 0 l 87 87 z "},"f":{"ha":608,"x_min":0,"x_max":521,"o":"m 260 955 l 521 955 l 521 868 l 260 868 l 260 955 m 174 608 l 0 608 l 0 694 l 174 694 l 174 868 l 260 868 l 260 694 l 521 694 l 521 608 l 260 608 l 260 0 l 174 0 l 174 608 z "},"g":{"ha":608,"x_min":0,"x_max":521,"o":"m 0 608 l 87 608 l 87 87 l 0 87 l 0 608 m 434 608 l 87 608 l 87 694 l 521 694 l 521 -174 l 434 -174 l 434 0 l 87 0 l 87 87 l 434 87 l 434 608 m 434 -174 l 434 -260 l 87 -260 l 87 -174 l 434 -174 z "},"h":{"ha":608,"x_min":0,"x_max":521,"o":"m 434 608 l 174 608 l 174 694 l 434 694 l 434 608 m 0 955 l 87 955 l 87 608 l 174 608 l 174 521 l 87 521 l 87 0 l 0 0 l 0 955 m 434 608 l 521 608 l 521 0 l 434 0 l 434 608 z "},"i":{"ha":347,"x_min":0,"x_max":260,"o":"m 87 955 l 174 955 l 174 868 l 87 868 l 87 955 m 87 608 l 0 608 l 0 694 l 174 694 l 174 87 l 260 87 l 260 0 l 0 0 l 0 87 l 87 87 l 87 608 z "},"j":{"ha":347,"x_min":0,"x_max":260,"o":"m 174 955 l 260 955 l 260 868 l 174 868 l 174 955 m 174 608 l 0 608 l 0 694 l 260 694 l 260 -174 l 174 -174 l 174 608 m 0 -174 l 174 -174 l 174 -260 l 0 -260 l 0 -174 z "},"k":{"ha":608,"x_min":0,"x_max":521,"o":"m 434 694 l 521 694 l 521 608 l 434 608 l 434 694 m 434 521 l 260 521 l 260 608 l 434 608 l 434 521 m 174 521 l 260 521 l 260 434 l 174 434 l 174 521 m 174 347 l 260 347 l 260 260 l 174 260 l 174 347 m 260 260 l 347 260 l 347 174 l 260 174 l 260 260 m 347 174 l 434 174 l 434 87 l 347 87 l 347 174 m 0 955 l 87 955 l 87 434 l 174 434 l 174 347 l 87 347 l 87 0 l 0 0 l 0 955 m 434 87 l 521 87 l 521 0 l 434 0 l 434 87 z "},"l":{"ha":347,"x_min":0,"x_max":260,"o":"m 87 868 l 0 868 l 0 955 l 174 955 l 174 87 l 260 87 l 260 0 l 87 0 l 87 868 z "},"m":{"ha":1042,"x_min":0,"x_max":955,"o":"m 434 608 l 174 608 l 174 694 l 434 694 l 434 608 m 868 608 l 521 608 l 521 694 l 868 694 l 868 608 m 0 694 l 87 694 l 87 608 l 174 608 l 174 521 l 87 521 l 87 0 l 0 0 l 0 694 m 434 608 l 521 608 l 521 0 l 434 0 l 434 608 m 868 608 l 955 608 l 955 0 l 868 0 l 868 608 z "},"n":{"ha":608,"x_min":0,"x_max":521,"o":"m 434 608 l 174 608 l 174 694 l 434 694 l 434 608 m 0 694 l 87 694 l 87 608 l 174 608 l 174 521 l 87 521 l 87 0 l 0 0 l 0 694 m 434 608 l 521 608 l 521 0 l 434 0 l 434 608 z "},"o":{"ha":608,"x_min":0,"x_max":521,"o":"m 434 608 l 87 608 l 87 694 l 434 694 l 434 608 m 0 608 l 87 608 l 87 87 l 0 87 l 0 608 m 434 608 l 521 608 l 521 87 l 434 87 l 434 608 m 87 87 l 434 87 l 434 0 l 87 0 l 87 87 z "},"p":{"ha":608,"x_min":0,"x_max":521,"o":"m 434 608 l 521 608 l 521 87 l 434 87 l 434 608 m 0 694 l 434 694 l 434 608 l 87 608 l 87 87 l 434 87 l 434 0 l 87 0 l 87 -260 l 0 -260 l 0 694 z "},"q":{"ha":608,"x_min":0,"x_max":521,"o":"m 0 608 l 87 608 l 87 87 l 0 87 l 0 608 m 434 608 l 87 608 l 87 694 l 521 694 l 521 -260 l 434 -260 l 434 0 l 87 0 l 87 87 l 434 87 l 434 608 z "},"r":{"ha":521,"x_min":0,"x_max":434,"o":"m 434 608 l 174 608 l 174 694 l 434 694 l 434 608 m 0 694 l 87 694 l 87 608 l 174 608 l 174 521 l 87 521 l 87 0 l 0 0 l 0 694 z "},"s":{"ha":608,"x_min":0,"x_max":521,"o":"m 434 608 l 87 608 l 87 694 l 434 694 l 434 608 m 434 608 l 521 608 l 521 521 l 434 521 l 434 608 m 0 608 l 87 608 l 87 434 l 0 434 l 0 608 m 87 434 l 260 434 l 260 347 l 87 347 l 87 434 m 260 347 l 434 347 l 434 260 l 260 260 l 260 347 m 0 174 l 87 174 l 87 87 l 0 87 l 0 174 m 434 260 l 521 260 l 521 87 l 434 87 l 434 260 m 87 87 l 434 87 l 434 0 l 87 0 l 87 87 z "},"t":{"ha":608,"x_min":0,"x_max":521,"o":"m 174 608 l 0 608 l 0 694 l 174 694 l 174 955 l 260 955 l 260 694 l 521 694 l 521 608 l 260 608 l 260 87 l 174 87 l 174 608 m 521 87 l 521 0 l 260 0 l 260 87 l 521 87 z "},"u":{"ha":608,"x_min":0,"x_max":521,"o":"m 0 694 l 87 694 l 87 87 l 0 87 l 0 694 m 87 87 l 347 87 l 347 0 l 87 0 l 87 87 m 434 694 l 521 694 l 521 0 l 434 0 l 434 87 l 347 87 l 347 174 l 434 174 l 434 694 z "},"v":{"ha":694,"x_min":0,"x_max":608,"o":"m 0 694 l 87 694 l 87 521 l 0 521 l 0 694 m 521 694 l 608 694 l 608 521 l 521 521 l 521 694 m 87 521 l 174 521 l 174 347 l 87 347 l 87 521 m 434 521 l 521 521 l 521 347 l 434 347 l 434 521 m 174 347 l 260 347 l 260 174 l 174 174 l 174 347 m 347 347 l 434 347 l 434 174 l 347 174 l 347 347 m 260 174 l 347 174 l 347 0 l 260 0 l 260 174 z "},"w":{"ha":1042,"x_min":0,"x_max":955,"o":"m 434 694 l 521 694 l 521 521 l 434 521 l 434 694 m 0 694 l 87 694 l 87 434 l 0 434 l 0 694 m 868 694 l 955 694 l 955 434 l 868 434 l 868 694 m 347 521 l 434 521 l 434 347 l 347 347 l 347 521 m 521 521 l 608 521 l 608 347 l 521 347 l 521 521 m 87 434 l 174 434 l 174 174 l 87 174 l 87 434 m 260 347 l 347 347 l 347 174 l 260 174 l 260 347 m 608 347 l 694 347 l 694 174 l 608 174 l 608 347 m 781 434 l 868 434 l 868 174 l 781 174 l 781 434 m 174 174 l 260 174 l 260 0 l 174 0 l 174 174 m 694 174 l 781 174 l 781 0 l 694 0 l 694 174 z "},"x":{"ha":694,"x_min":0,"x_max":608,"o":"m 0 694 l 87 694 l 87 608 l 0 608 l 0 694 m 521 694 l 608 694 l 608 608 l 521 608 l 521 694 m 87 608 l 174 608 l 174 521 l 87 521 l 87 608 m 434 608 l 521 608 l 521 521 l 434 521 l 434 608 m 174 521 l 260 521 l 260 434 l 174 434 l 174 521 m 347 521 l 434 521 l 434 434 l 347 434 l 347 521 m 260 434 l 347 434 l 347 260 l 260 260 l 260 434 m 174 260 l 260 260 l 260 174 l 174 174 l 174 260 m 347 260 l 434 260 l 434 174 l 347 174 l 347 260 m 87 174 l 174 174 l 174 87 l 87 87 l 87 174 m 434 174 l 521 174 l 521 87 l 434 87 l 434 174 m 0 87 l 87 87 l 87 0 l 0 0 l 0 87 m 521 87 l 608 87 l 608 0 l 521 0 l 521 87 z "},"y":{"ha":694,"x_min":0,"x_max":608,"o":"m 0 694 l 87 694 l 87 521 l 0 521 l 0 694 m 521 694 l 608 694 l 608 521 l 521 521 l 521 694 m 87 521 l 174 521 l 174 260 l 87 260 l 87 521 m 434 521 l 521 521 l 521 260 l 434 260 l 434 521 m 174 260 l 260 260 l 260 87 l 174 87 l 174 260 m 347 260 l 434 260 l 434 87 l 347 87 l 347 260 m 260 87 l 347 87 l 347 -87 l 260 -87 l 260 87 m 174 -87 l 260 -87 l 260 -174 l 174 -174 l 174 -87 m 0 -174 l 174 -174 l 174 -260 l 0 -260 l 0 -174 z "},"z":{"ha":608,"x_min":0,"x_max":521,"o":"m 521 694 l 521 521 l 434 521 l 434 608 l 0 608 l 0 694 l 521 694 m 347 521 l 434 521 l 434 434 l 347 434 l 347 521 m 260 434 l 347 434 l 347 347 l 260 347 l 260 434 m 174 347 l 260 347 l 260 260 l 174 260 l 174 347 m 87 260 l 174 260 l 174 174 l 87 174 l 87 260 m 521 87 l 521 0 l 0 0 l 0 174 l 87 174 l 87 87 l 521 87 z "},"{":{"ha":608,"x_min":87,"x_max":434,"o":"m 434 955 l 260 955 l 260 1042 l 434 1042 l 434 955 m 174 955 l 260 955 l 260 521 l 174 521 l 174 955 m 87 521 l 174 521 l 174 434 l 87 434 l 87 521 m 174 434 l 260 434 l 260 -87 l 174 -87 l 174 434 m 260 -87 l 434 -87 l 434 -174 l 260 -174 l 260 -87 z "},"|":{"ha":347,"x_min":87,"x_max":174,"o":"m 87 1042 l 174 1042 l 174 -174 l 87 -174 l 87 1042 z "},"}":{"ha":608,"x_min":87,"x_max":434,"o":"m 87 1042 l 260 1042 l 260 955 l 87 955 l 87 1042 m 260 955 l 347 955 l 347 521 l 260 521 l 260 955 m 347 521 l 434 521 l 434 434 l 347 434 l 347 521 m 260 434 l 347 434 l 347 -87 l 260 -87 l 260 434 m 87 -87 l 260 -87 l 260 -174 l 87 -174 l 87 -87 z "},"~":{"ha":694,"x_min":0,"x_max":608,"o":"m 87 608 l 260 608 l 260 521 l 87 521 l 87 608 m 0 521 l 87 521 l 87 434 l 0 434 l 0 521 m 260 521 l 347 521 l 347 434 l 260 434 l 260 521 m 521 521 l 608 521 l 608 434 l 521 434 l 521 521 m 347 434 l 521 434 l 521 347 l 347 347 l 347 434 z "},"¡":{"ha":521,"x_min":87,"x_max":347,"o":"m 174 694 l 260 694 l 260 608 l 174 608 l 174 694 m 174 434 l 260 434 l 260 87 l 347 87 l 347 -174 l 260 -174 l 260 -260 l 174 -260 l 174 -174 l 87 -174 l 87 87 l 174 87 l 174 434 z "},"¢":{"ha":694,"x_min":0,"x_max":608,"o":"m 521 608 l 608 608 l 608 521 l 521 521 l 521 608 m 0 608 l 87 608 l 87 87 l 0 87 l 0 608 m 521 174 l 608 174 l 608 87 l 521 87 l 521 174 m 260 694 l 260 781 l 347 781 l 347 694 l 521 694 l 521 608 l 347 608 l 347 87 l 521 87 l 521 0 l 347 0 l 347 -87 l 260 -87 l 260 0 l 87 0 l 87 87 l 260 87 l 260 608 l 87 608 l 87 694 l 260 694 z "},"£":{"ha":608,"x_min":0,"x_max":521,"o":"m 434 955 l 434 868 l 87 868 l 87 955 l 434 955 m 434 868 l 521 868 l 521 781 l 434 781 l 434 868 m 0 868 l 87 868 l 87 608 l 0 608 l 0 868 m 87 608 l 174 608 l 174 521 l 87 521 l 87 608 m 174 347 l 0 347 l 0 434 l 174 434 l 174 521 l 260 521 l 260 434 l 434 434 l 434 347 l 260 347 l 260 260 l 174 260 l 174 347 m 87 260 l 174 260 l 174 174 l 87 174 l 87 260 m 521 87 l 521 0 l 0 0 l 0 174 l 87 174 l 87 87 l 521 87 z "},"¤":{"ha":694,"x_min":0,"x_max":608,"o":"m 0 781 l 87 781 l 87 694 l 0 694 l 0 781 m 434 694 l 174 694 l 174 781 l 434 781 l 434 694 m 521 781 l 608 781 l 608 694 l 521 694 l 521 781 m 87 694 l 174 694 l 174 608 l 87 608 l 87 694 m 434 694 l 521 694 l 521 608 l 434 608 l 434 694 m 0 608 l 87 608 l 87 347 l 0 347 l 0 608 m 521 608 l 608 608 l 608 347 l 521 347 l 521 608 m 87 347 l 174 347 l 174 260 l 87 260 l 87 347 m 434 347 l 521 347 l 521 260 l 434 260 l 434 347 m 0 260 l 87 260 l 87 174 l 0 174 l 0 260 m 434 174 l 174 174 l 174 260 l 434 260 l 434 174 m 521 260 l 608 260 l 608 174 l 521 174 l 521 260 z "},"¥":{"ha":694,"x_min":0,"x_max":608,"o":"m 0 955 l 87 955 l 87 781 l 0 781 l 0 955 m 521 955 l 608 955 l 608 781 l 521 781 l 521 955 m 87 781 l 174 781 l 174 608 l 87 608 l 87 781 m 434 781 l 521 781 l 521 608 l 434 608 l 434 781 m 608 434 l 347 434 l 347 260 l 608 260 l 608 174 l 347 174 l 347 0 l 260 0 l 260 174 l 0 174 l 0 260 l 260 260 l 260 434 l 0 434 l 0 521 l 174 521 l 174 608 l 260 608 l 260 521 l 347 521 l 347 608 l 434 608 l 434 521 l 608 521 l 608 434 z "},"¦":{"ha":347,"x_min":87,"x_max":174,"o":"m 87 1042 l 174 1042 l 174 521 l 87 521 l 87 1042 m 87 347 l 174 347 l 174 -174 l 87 -174 l 87 347 z "},"§":{"ha":608,"x_min":0,"x_max":521,"o":"m 434 955 l 434 868 l 87 868 l 87 955 l 434 955 m 434 868 l 521 868 l 521 781 l 434 781 l 434 868 m 0 868 l 87 868 l 87 608 l 0 608 l 0 868 m 87 608 l 260 608 l 260 521 l 87 521 l 87 608 m 260 521 l 434 521 l 434 434 l 260 434 l 260 521 m 0 521 l 87 521 l 87 260 l 0 260 l 0 521 m 260 174 l 87 174 l 87 260 l 260 260 l 260 174 m 434 434 l 521 434 l 521 174 l 434 174 l 434 434 m 434 87 l 260 87 l 260 174 l 434 174 l 434 87 m 0 -87 l 87 -87 l 87 -174 l 0 -174 l 0 -87 m 434 87 l 521 87 l 521 -174 l 434 -174 l 434 87 m 434 -174 l 434 -260 l 87 -260 l 87 -174 l 434 -174 z "},"¨":{"ha":608,"x_min":87,"x_max":434,"o":"m 87 955 l 174 955 l 174 868 l 87 868 l 87 955 m 347 955 l 434 955 l 434 868 l 347 868 l 347 955 z "},"©":{"ha":1389,"x_min":174,"x_max":1128,"o":"m 868 955 l 868 868 l 434 868 l 434 955 l 868 955 m 347 868 l 434 868 l 434 781 l 347 781 l 347 868 m 868 868 l 955 868 l 955 781 l 868 781 l 868 868 m 260 781 l 347 781 l 347 694 l 260 694 l 260 781 m 781 781 l 781 694 l 521 694 l 521 781 l 781 781 m 955 781 l 1042 781 l 1042 694 l 955 694 l 955 781 m 781 694 l 868 694 l 868 608 l 781 608 l 781 694 m 174 694 l 260 694 l 260 260 l 174 260 l 174 694 m 434 694 l 521 694 l 521 260 l 434 260 l 434 694 m 781 347 l 868 347 l 868 260 l 781 260 l 781 347 m 1042 694 l 1128 694 l 1128 260 l 1042 260 l 1042 694 m 260 260 l 347 260 l 347 174 l 260 174 l 260 260 m 781 260 l 781 174 l 521 174 l 521 260 l 781 260 m 955 260 l 1042 260 l 1042 174 l 955 174 l 955 260 m 347 174 l 434 174 l 434 87 l 347 87 l 347 174 m 868 174 l 955 174 l 955 87 l 868 87 l 868 174 m 868 87 l 868 0 l 434 0 l 434 87 l 868 87 z "},"ª":{"ha":521,"x_min":0,"x_max":434,"o":"m 347 868 l 87 868 l 87 955 l 347 955 l 347 868 m 0 694 l 87 694 l 87 608 l 0 608 l 0 694 m 347 694 l 87 694 l 87 781 l 347 781 l 347 868 l 434 868 l 434 521 l 87 521 l 87 608 l 347 608 l 347 694 z "},"«":{"ha":694,"x_min":0,"x_max":608,"o":"m 260 694 l 347 694 l 347 608 l 260 608 l 260 694 m 521 694 l 608 694 l 608 608 l 521 608 l 521 694 m 174 608 l 260 608 l 260 521 l 174 521 l 174 608 m 434 608 l 521 608 l 521 521 l 434 521 l 434 608 m 87 521 l 174 521 l 174 434 l 87 434 l 87 521 m 347 521 l 434 521 l 434 434 l 347 434 l 347 521 m 0 434 l 87 434 l 87 347 l 0 347 l 0 434 m 260 434 l 347 434 l 347 347 l 260 347 l 260 434 m 87 347 l 174 347 l 174 260 l 87 260 l 87 347 m 347 347 l 434 347 l 434 260 l 347 260 l 347 347 m 174 260 l 260 260 l 260 174 l 174 174 l 174 260 m 434 260 l 521 260 l 521 174 l 434 174 l 434 260 m 260 174 l 347 174 l 347 87 l 260 87 l 260 174 m 521 174 l 608 174 l 608 87 l 521 87 l 521 174 z "},"¬":{"ha":608,"x_min":0,"x_max":521,"o":"m 521 260 l 434 260 l 434 521 l 0 521 l 0 608 l 521 608 l 521 260 z "},"®":{"ha":1389,"x_min":0,"x_max":868,"o":"m 694 1042 l 174 1042 l 174 1128 l 694 1128 l 694 1042 m 87 1042 l 174 1042 l 174 955 l 87 955 l 87 1042 m 694 1042 l 781 1042 l 781 955 l 694 955 l 694 1042 m 521 868 l 608 868 l 608 694 l 521 694 l 521 868 m 0 955 l 87 955 l 87 434 l 0 434 l 0 955 m 260 955 l 521 955 l 521 868 l 347 868 l 347 694 l 521 694 l 521 608 l 347 608 l 347 434 l 260 434 l 260 955 m 521 608 l 608 608 l 608 434 l 521 434 l 521 608 m 781 955 l 868 955 l 868 434 l 781 434 l 781 955 m 87 434 l 174 434 l 174 347 l 87 347 l 87 434 m 694 434 l 781 434 l 781 347 l 694 347 l 694 434 m 694 347 l 694 260 l 174 260 l 174 347 l 694 347 z "},"¯":{"ha":608,"x_min":0,"x_max":521,"o":"m 0 955 l 521 955 l 521 868 l 0 868 l 0 955 z "},"°":{"ha":434,"x_min":0,"x_max":347,"o":"m 87 955 l 260 955 l 260 868 l 87 868 l 87 955 m 0 868 l 87 868 l 87 694 l 0 694 l 0 868 m 260 868 l 347 868 l 347 694 l 260 694 l 260 868 m 260 608 l 87 608 l 87 694 l 260 694 l 260 608 z "},"±":{"ha":521,"x_min":0,"x_max":434,"o":"m 174 434 l 0 434 l 0 521 l 174 521 l 174 694 l 260 694 l 260 521 l 434 521 l 434 434 l 260 434 l 260 260 l 174 260 l 174 434 m 434 87 l 0 87 l 0 174 l 434 174 l 434 87 z "},"²":{"ha":521,"x_min":0,"x_max":434,"o":"m 347 1128 l 347 1042 l 87 1042 l 87 1128 l 347 1128 m 0 1042 l 87 1042 l 87 955 l 0 955 l 0 1042 m 347 1042 l 434 1042 l 434 868 l 347 868 l 347 1042 m 347 781 l 174 781 l 174 868 l 347 868 l 347 781 m 87 781 l 174 781 l 174 694 l 87 694 l 87 781 m 0 694 l 87 694 l 87 608 l 434 608 l 434 521 l 0 521 l 0 694 z "},"³":{"ha":521,"x_min":0,"x_max":434,"o":"m 347 1128 l 347 1042 l 87 1042 l 87 1128 l 347 1128 m 0 1042 l 87 1042 l 87 955 l 0 955 l 0 1042 m 347 1042 l 434 1042 l 434 868 l 347 868 l 347 1042 m 347 781 l 174 781 l 174 868 l 347 868 l 347 781 m 0 694 l 87 694 l 87 608 l 0 608 l 0 694 m 347 781 l 434 781 l 434 608 l 347 608 l 347 781 m 87 608 l 347 608 l 347 521 l 87 521 l 87 608 z "},"´":{"ha":521,"x_min":87,"x_max":347,"o":"m 260 955 l 347 955 l 347 868 l 260 868 l 260 955 m 174 868 l 260 868 l 260 781 l 174 781 l 174 868 m 87 781 l 174 781 l 174 694 l 87 694 l 87 781 z "},"µ":{"ha":608,"x_min":0,"x_max":521,"o":"m 174 87 l 347 87 l 347 0 l 174 0 l 174 87 m 434 694 l 521 694 l 521 0 l 434 0 l 434 87 l 347 87 l 347 174 l 434 174 l 434 694 m 0 694 l 87 694 l 87 174 l 174 174 l 174 87 l 87 87 l 87 -260 l 0 -260 l 0 694 z "},"¶":{"ha":694,"x_min":0,"x_max":608,"o":"m 521 868 l 434 868 l 434 -260 l 347 -260 l 347 260 l 260 260 l 260 347 l 87 347 l 87 434 l 0 434 l 0 781 l 87 781 l 87 868 l 260 868 l 260 955 l 608 955 l 608 -260 l 521 -260 l 521 868 z "},"·":{"ha":1389,"x_min":608,"x_max":781,"o":"m 781 347 l 608 347 l 608 521 l 781 521 l 781 347 z "},"¸":{"ha":608,"x_min":174,"x_max":434,"o":"m 260 87 l 347 87 l 347 -87 l 260 -87 l 260 87 m 347 -87 l 434 -87 l 434 -174 l 347 -174 l 347 -87 m 174 -174 l 347 -174 l 347 -260 l 174 -260 l 174 -174 z "},"¹":{"ha":521,"x_min":87,"x_max":260,"o":"m 174 955 l 87 955 l 87 1042 l 174 1042 l 174 1128 l 260 1128 l 260 521 l 174 521 l 174 955 z "},"º":{"ha":521,"x_min":0,"x_max":434,"o":"m 347 868 l 87 868 l 87 955 l 347 955 l 347 868 m 0 868 l 87 868 l 87 608 l 0 608 l 0 868 m 347 868 l 434 868 l 434 608 l 347 608 l 347 868 m 87 608 l 347 608 l 347 521 l 87 521 l 87 608 z "},"»":{"ha":694,"x_min":0,"x_max":608,"o":"m 0 694 l 87 694 l 87 608 l 0 608 l 0 694 m 260 694 l 347 694 l 347 608 l 260 608 l 260 694 m 87 608 l 174 608 l 174 521 l 87 521 l 87 608 m 347 608 l 434 608 l 434 521 l 347 521 l 347 608 m 174 521 l 260 521 l 260 434 l 174 434 l 174 521 m 434 521 l 521 521 l 521 434 l 434 434 l 434 521 m 260 434 l 347 434 l 347 347 l 260 347 l 260 434 m 521 434 l 608 434 l 608 347 l 521 347 l 521 434 m 174 347 l 260 347 l 260 260 l 174 260 l 174 347 m 434 347 l 521 347 l 521 260 l 434 260 l 434 347 m 87 260 l 174 260 l 174 174 l 87 174 l 87 260 m 347 260 l 434 260 l 434 174 l 347 174 l 347 260 m 0 174 l 87 174 l 87 87 l 0 87 l 0 174 m 260 174 l 347 174 l 347 87 l 260 87 l 260 174 z "},"¼":{"ha":1389,"x_min":0,"x_max":1302,"o":"m 1215 1128 l 1302 1128 l 1302 1042 l 1215 1042 l 1215 1128 m 1128 1042 l 1215 1042 l 1215 955 l 1128 955 l 1128 1042 m 1042 955 l 1128 955 l 1128 868 l 1042 868 l 1042 955 m 955 868 l 1042 868 l 1042 781 l 955 781 l 955 868 m 868 781 l 955 781 l 955 694 l 868 694 l 868 781 m 781 694 l 868 694 l 868 608 l 781 608 l 781 694 m 260 955 l 174 955 l 174 1042 l 260 1042 l 260 1128 l 347 1128 l 347 521 l 260 521 l 260 955 m 694 608 l 781 608 l 781 521 l 694 521 l 694 608 m 608 521 l 694 521 l 694 434 l 608 434 l 608 521 m 521 434 l 608 434 l 608 347 l 521 347 l 521 434 m 434 347 l 521 347 l 521 260 l 434 260 l 434 347 m 347 260 l 434 260 l 434 174 l 347 174 l 347 260 m 868 347 l 955 347 l 955 174 l 868 174 l 868 347 m 260 174 l 347 174 l 347 87 l 260 87 l 260 174 m 174 87 l 260 87 l 260 0 l 174 0 l 174 87 m 87 0 l 174 0 l 174 -87 l 87 -87 l 87 0 m 0 -87 l 87 -87 l 87 -174 l 0 -174 l 0 -87 m 1215 -87 l 1128 -87 l 1128 -174 l 1042 -174 l 1042 -87 l 781 -87 l 781 174 l 868 174 l 868 0 l 1042 0 l 1042 347 l 955 347 l 955 434 l 1128 434 l 1128 0 l 1215 0 l 1215 -87 z "},"½":{"ha":1389,"x_min":0,"x_max":1302,"o":"m 1215 1128 l 1302 1128 l 1302 1042 l 1215 1042 l 1215 1128 m 1128 1042 l 1215 1042 l 1215 955 l 1128 955 l 1128 1042 m 1042 955 l 1128 955 l 1128 868 l 1042 868 l 1042 955 m 955 868 l 1042 868 l 1042 781 l 955 781 l 955 868 m 868 781 l 955 781 l 955 694 l 868 694 l 868 781 m 781 694 l 868 694 l 868 608 l 781 608 l 781 694 m 260 955 l 174 955 l 174 1042 l 260 1042 l 260 1128 l 347 1128 l 347 521 l 260 521 l 260 955 m 694 608 l 781 608 l 781 521 l 694 521 l 694 608 m 608 521 l 694 521 l 694 434 l 608 434 l 608 521 m 521 434 l 608 434 l 608 347 l 521 347 l 521 434 m 868 434 l 1128 434 l 1128 347 l 868 347 l 868 434 m 434 347 l 521 347 l 521 260 l 434 260 l 434 347 m 781 347 l 868 347 l 868 260 l 781 260 l 781 347 m 347 260 l 434 260 l 434 174 l 347 174 l 347 260 m 1128 347 l 1215 347 l 1215 174 l 1128 174 l 1128 347 m 260 174 l 347 174 l 347 87 l 260 87 l 260 174 m 955 174 l 1128 174 l 1128 87 l 955 87 l 955 174 m 174 87 l 260 87 l 260 0 l 174 0 l 174 87 m 868 87 l 955 87 l 955 0 l 868 0 l 868 87 m 87 0 l 174 0 l 174 -87 l 87 -87 l 87 0 m 0 -87 l 87 -87 l 87 -174 l 0 -174 l 0 -87 m 1215 -87 l 1215 -174 l 781 -174 l 781 0 l 868 0 l 868 -87 l 1215 -87 z "},"¾":{"ha":1389,"x_min":0,"x_max":1302,"o":"m 434 1128 l 434 1042 l 174 1042 l 174 1128 l 434 1128 m 1215 1128 l 1302 1128 l 1302 1042 l 1215 1042 l 1215 1128 m 87 1042 l 174 1042 l 174 955 l 87 955 l 87 1042 m 1128 1042 l 1215 1042 l 1215 955 l 1128 955 l 1128 1042 m 434 1042 l 521 1042 l 521 868 l 434 868 l 434 1042 m 1042 955 l 1128 955 l 1128 868 l 1042 868 l 1042 955 m 434 781 l 260 781 l 260 868 l 434 868 l 434 781 m 955 868 l 1042 868 l 1042 781 l 955 781 l 955 868 m 868 781 l 955 781 l 955 694 l 868 694 l 868 781 m 87 694 l 174 694 l 174 608 l 87 608 l 87 694 m 434 781 l 521 781 l 521 608 l 434 608 l 434 781 m 781 694 l 868 694 l 868 608 l 781 608 l 781 694 m 434 608 l 434 521 l 174 521 l 174 608 l 434 608 m 694 608 l 781 608 l 781 521 l 694 521 l 694 608 m 608 521 l 694 521 l 694 434 l 608 434 l 608 521 m 521 434 l 608 434 l 608 347 l 521 347 l 521 434 m 434 347 l 521 347 l 521 260 l 434 260 l 434 347 m 347 260 l 434 260 l 434 174 l 347 174 l 347 260 m 868 347 l 955 347 l 955 174 l 868 174 l 868 347 m 260 174 l 347 174 l 347 87 l 260 87 l 260 174 m 174 87 l 260 87 l 260 0 l 174 0 l 174 87 m 87 0 l 174 0 l 174 -87 l 87 -87 l 87 0 m 0 -87 l 87 -87 l 87 -174 l 0 -174 l 0 -87 m 1215 -87 l 1128 -87 l 1128 -174 l 1042 -174 l 1042 -87 l 781 -87 l 781 174 l 868 174 l 868 0 l 1042 0 l 1042 347 l 955 347 l 955 434 l 1128 434 l 1128 0 l 1215 0 l 1215 -87 z "},"¿":{"ha":608,"x_min":0,"x_max":521,"o":"m 174 694 l 260 694 l 260 608 l 174 608 l 174 694 m 174 434 l 260 434 l 260 174 l 174 174 l 174 434 m 87 174 l 174 174 l 174 87 l 87 87 l 87 174 m 0 87 l 87 87 l 87 -174 l 0 -174 l 0 87 m 434 0 l 521 0 l 521 -174 l 434 -174 l 434 0 m 434 -174 l 434 -260 l 87 -260 l 87 -174 l 434 -174 z "},"À":{"ha":694,"x_min":0,"x_max":608,"o":"m 174 1302 l 260 1302 l 260 1215 l 174 1215 l 174 1302 m 260 1215 l 347 1215 l 347 1128 l 260 1128 l 260 1215 m 260 955 l 347 955 l 347 781 l 260 781 l 260 955 m 174 781 l 260 781 l 260 521 l 174 521 l 174 781 m 347 781 l 434 781 l 434 521 l 347 521 l 347 781 m 434 347 l 434 521 l 521 521 l 521 260 l 87 260 l 87 521 l 174 521 l 174 347 l 434 347 m 0 260 l 87 260 l 87 0 l 0 0 l 0 260 m 521 260 l 608 260 l 608 0 l 521 0 l 521 260 z "},"Á":{"ha":694,"x_min":0,"x_max":608,"o":"m 347 1302 l 434 1302 l 434 1215 l 347 1215 l 347 1302 m 260 1215 l 347 1215 l 347 1128 l 260 1128 l 260 1215 m 260 955 l 347 955 l 347 781 l 260 781 l 260 955 m 174 781 l 260 781 l 260 521 l 174 521 l 174 781 m 347 781 l 434 781 l 434 521 l 347 521 l 347 781 m 434 347 l 434 521 l 521 521 l 521 260 l 87 260 l 87 521 l 174 521 l 174 347 l 434 347 m 0 260 l 87 260 l 87 0 l 0 0 l 0 260 m 521 260 l 608 260 l 608 0 l 521 0 l 521 260 z "},"Â":{"ha":694,"x_min":0,"x_max":608,"o":"m 260 1302 l 347 1302 l 347 1215 l 260 1215 l 260 1302 m 174 1215 l 260 1215 l 260 1128 l 174 1128 l 174 1215 m 347 1215 l 434 1215 l 434 1128 l 347 1128 l 347 1215 m 260 955 l 347 955 l 347 781 l 260 781 l 260 955 m 174 781 l 260 781 l 260 521 l 174 521 l 174 781 m 347 781 l 434 781 l 434 521 l 347 521 l 347 781 m 434 347 l 434 521 l 521 521 l 521 260 l 87 260 l 87 521 l 174 521 l 174 347 l 434 347 m 0 260 l 87 260 l 87 0 l 0 0 l 0 260 m 521 260 l 608 260 l 608 0 l 521 0 l 521 260 z "},"Ã":{"ha":694,"x_min":0,"x_max":608,"o":"m 174 1302 l 347 1302 l 347 1215 l 174 1215 l 174 1302 m 434 1302 l 521 1302 l 521 1215 l 434 1215 l 434 1302 m 87 1215 l 174 1215 l 174 1128 l 87 1128 l 87 1215 m 347 1215 l 434 1215 l 434 1128 l 347 1128 l 347 1215 m 260 955 l 347 955 l 347 781 l 260 781 l 260 955 m 174 781 l 260 781 l 260 521 l 174 521 l 174 781 m 347 781 l 434 781 l 434 521 l 347 521 l 347 781 m 434 347 l 434 521 l 521 521 l 521 260 l 87 260 l 87 521 l 174 521 l 174 347 l 434 347 m 0 260 l 87 260 l 87 0 l 0 0 l 0 260 m 521 260 l 608 260 l 608 0 l 521 0 l 521 260 z "},"Ä":{"ha":694,"x_min":0,"x_max":608,"o":"m 174 1215 l 260 1215 l 260 1128 l 174 1128 l 174 1215 m 347 1215 l 434 1215 l 434 1128 l 347 1128 l 347 1215 m 260 955 l 347 955 l 347 781 l 260 781 l 260 955 m 174 781 l 260 781 l 260 521 l 174 521 l 174 781 m 347 781 l 434 781 l 434 521 l 347 521 l 347 781 m 434 347 l 434 521 l 521 521 l 521 260 l 87 260 l 87 521 l 174 521 l 174 347 l 434 347 m 0 260 l 87 260 l 87 0 l 0 0 l 0 260 m 521 260 l 608 260 l 608 0 l 521 0 l 521 260 z "},"Å":{"ha":694,"x_min":0,"x_max":608,"o":"m 260 1302 l 347 1302 l 347 1215 l 260 1215 l 260 1302 m 174 1215 l 260 1215 l 260 1128 l 174 1128 l 174 1215 m 347 1215 l 434 1215 l 434 1128 l 347 1128 l 347 1215 m 260 1128 l 347 1128 l 347 1042 l 260 1042 l 260 1128 m 260 955 l 347 955 l 347 781 l 260 781 l 260 955 m 174 781 l 260 781 l 260 521 l 174 521 l 174 781 m 347 781 l 434 781 l 434 521 l 347 521 l 347 781 m 434 347 l 434 521 l 521 521 l 521 260 l 87 260 l 87 521 l 174 521 l 174 347 l 434 347 m 0 260 l 87 260 l 87 0 l 0 0 l 0 260 m 521 260 l 608 260 l 608 0 l 521 0 l 521 260 z "},"Æ":{"ha":1042,"x_min":0,"x_max":955,"o":"m 260 781 l 347 781 l 347 608 l 260 608 l 260 781 m 174 608 l 260 608 l 260 434 l 174 434 l 174 608 m 0 260 l 87 260 l 87 0 l 0 0 l 0 260 m 868 521 l 868 434 l 521 434 l 521 87 l 955 87 l 955 0 l 434 0 l 434 260 l 87 260 l 87 434 l 174 434 l 174 347 l 434 347 l 434 781 l 347 781 l 347 955 l 955 955 l 955 868 l 521 868 l 521 521 l 868 521 z "},"Ç":{"ha":694,"x_min":0,"x_max":608,"o":"m 521 955 l 521 868 l 174 868 l 174 955 l 521 955 m 87 868 l 174 868 l 174 781 l 87 781 l 87 868 m 521 868 l 608 868 l 608 781 l 521 781 l 521 868 m 0 781 l 87 781 l 87 174 l 0 174 l 0 781 m 87 174 l 174 174 l 174 87 l 87 87 l 87 174 m 521 174 l 608 174 l 608 87 l 521 87 l 521 174 m 347 0 l 174 0 l 174 87 l 521 87 l 521 0 l 434 0 l 434 -87 l 347 -87 l 347 0 m 434 -87 l 521 -87 l 521 -174 l 434 -174 l 434 -87 m 260 -174 l 434 -174 l 434 -260 l 260 -260 l 260 -174 z "},"È":{"ha":694,"x_min":0,"x_max":608,"o":"m 174 1302 l 260 1302 l 260 1215 l 174 1215 l 174 1302 m 260 1215 l 347 1215 l 347 1128 l 260 1128 l 260 1215 m 0 955 l 608 955 l 608 868 l 87 868 l 87 521 l 521 521 l 521 434 l 87 434 l 87 87 l 608 87 l 608 0 l 0 0 l 0 955 z "},"É":{"ha":694,"x_min":0,"x_max":608,"o":"m 347 1302 l 434 1302 l 434 1215 l 347 1215 l 347 1302 m 260 1215 l 347 1215 l 347 1128 l 260 1128 l 260 1215 m 0 955 l 608 955 l 608 868 l 87 868 l 87 521 l 521 521 l 521 434 l 87 434 l 87 87 l 608 87 l 608 0 l 0 0 l 0 955 z "},"Ê":{"ha":694,"x_min":0,"x_max":608,"o":"m 260 1302 l 347 1302 l 347 1215 l 260 1215 l 260 1302 m 174 1215 l 260 1215 l 260 1128 l 174 1128 l 174 1215 m 347 1215 l 434 1215 l 434 1128 l 347 1128 l 347 1215 m 0 955 l 608 955 l 608 868 l 87 868 l 87 521 l 521 521 l 521 434 l 87 434 l 87 87 l 608 87 l 608 0 l 0 0 l 0 955 z "},"Ë":{"ha":694,"x_min":0,"x_max":608,"o":"m 174 1215 l 260 1215 l 260 1128 l 174 1128 l 174 1215 m 347 1215 l 434 1215 l 434 1128 l 347 1128 l 347 1215 m 0 955 l 608 955 l 608 868 l 87 868 l 87 521 l 521 521 l 521 434 l 87 434 l 87 87 l 608 87 l 608 0 l 0 0 l 0 955 z "},"Ì":{"ha":347,"x_min":0,"x_max":260,"o":"m 0 1302 l 87 1302 l 87 1215 l 0 1215 l 0 1302 m 87 1215 l 174 1215 l 174 1128 l 87 1128 l 87 1215 m 87 868 l 0 868 l 0 955 l 260 955 l 260 868 l 174 868 l 174 87 l 260 87 l 260 0 l 0 0 l 0 87 l 87 87 l 87 868 z "},"Í":{"ha":347,"x_min":0,"x_max":260,"o":"m 174 1302 l 260 1302 l 260 1215 l 174 1215 l 174 1302 m 87 1215 l 174 1215 l 174 1128 l 87 1128 l 87 1215 m 87 868 l 0 868 l 0 955 l 260 955 l 260 868 l 174 868 l 174 87 l 260 87 l 260 0 l 0 0 l 0 87 l 87 87 l 87 868 z "},"Î":{"ha":347,"x_min":0,"x_max":260,"o":"m 87 1302 l 174 1302 l 174 1215 l 87 1215 l 87 1302 m 0 1215 l 87 1215 l 87 1128 l 0 1128 l 0 1215 m 174 1215 l 260 1215 l 260 1128 l 174 1128 l 174 1215 m 87 868 l 0 868 l 0 955 l 260 955 l 260 868 l 174 868 l 174 87 l 260 87 l 260 0 l 0 0 l 0 87 l 87 87 l 87 868 z "},"Ï":{"ha":347,"x_min":0,"x_max":260,"o":"m 0 1215 l 87 1215 l 87 1128 l 0 1128 l 0 1215 m 174 1215 l 260 1215 l 260 1128 l 174 1128 l 174 1215 m 87 868 l 0 868 l 0 955 l 260 955 l 260 868 l 174 868 l 174 87 l 260 87 l 260 0 l 0 0 l 0 87 l 87 87 l 87 868 z "},"Ð":{"ha":781,"x_min":0,"x_max":694,"o":"m 521 868 l 608 868 l 608 781 l 521 781 l 521 868 m 608 781 l 694 781 l 694 174 l 608 174 l 608 781 m 521 174 l 608 174 l 608 87 l 521 87 l 521 174 m 521 955 l 521 868 l 174 868 l 174 521 l 347 521 l 347 434 l 174 434 l 174 87 l 521 87 l 521 0 l 87 0 l 87 434 l 0 434 l 0 521 l 87 521 l 87 955 l 521 955 z "},"Ñ":{"ha":694,"x_min":0,"x_max":608,"o":"m 174 1302 l 347 1302 l 347 1215 l 174 1215 l 174 1302 m 434 1302 l 521 1302 l 521 1215 l 434 1215 l 434 1302 m 87 1215 l 174 1215 l 174 1128 l 87 1128 l 87 1215 m 347 1215 l 434 1215 l 434 1128 l 347 1128 l 347 1215 m 174 694 l 260 694 l 260 521 l 174 521 l 174 694 m 260 521 l 347 521 l 347 434 l 260 434 l 260 521 m 347 434 l 434 434 l 434 260 l 347 260 l 347 434 m 0 955 l 87 955 l 87 868 l 174 868 l 174 694 l 87 694 l 87 0 l 0 0 l 0 955 m 521 955 l 608 955 l 608 0 l 521 0 l 521 87 l 434 87 l 434 260 l 521 260 l 521 955 z "},"Ò":{"ha":694,"x_min":0,"x_max":608,"o":"m 174 1302 l 260 1302 l 260 1215 l 174 1215 l 174 1302 m 260 1215 l 347 1215 l 347 1128 l 260 1128 l 260 1215 m 434 955 l 434 868 l 174 868 l 174 955 l 434 955 m 87 868 l 174 868 l 174 781 l 87 781 l 87 868 m 434 868 l 521 868 l 521 781 l 434 781 l 434 868 m 0 781 l 87 781 l 87 174 l 0 174 l 0 781 m 521 781 l 608 781 l 608 174 l 521 174 l 521 781 m 87 174 l 174 174 l 174 87 l 87 87 l 87 174 m 434 174 l 521 174 l 521 87 l 434 87 l 434 174 m 434 0 l 174 0 l 174 87 l 434 87 l 434 0 z "},"Ó":{"ha":694,"x_min":0,"x_max":608,"o":"m 347 1302 l 434 1302 l 434 1215 l 347 1215 l 347 1302 m 260 1215 l 347 1215 l 347 1128 l 260 1128 l 260 1215 m 434 955 l 434 868 l 174 868 l 174 955 l 434 955 m 87 868 l 174 868 l 174 781 l 87 781 l 87 868 m 434 868 l 521 868 l 521 781 l 434 781 l 434 868 m 0 781 l 87 781 l 87 174 l 0 174 l 0 781 m 521 781 l 608 781 l 608 174 l 521 174 l 521 781 m 87 174 l 174 174 l 174 87 l 87 87 l 87 174 m 434 174 l 521 174 l 521 87 l 434 87 l 434 174 m 434 0 l 174 0 l 174 87 l 434 87 l 434 0 z "},"Ô":{"ha":694,"x_min":0,"x_max":608,"o":"m 260 1302 l 347 1302 l 347 1215 l 260 1215 l 260 1302 m 174 1215 l 260 1215 l 260 1128 l 174 1128 l 174 1215 m 347 1215 l 434 1215 l 434 1128 l 347 1128 l 347 1215 m 434 955 l 434 868 l 174 868 l 174 955 l 434 955 m 87 868 l 174 868 l 174 781 l 87 781 l 87 868 m 434 868 l 521 868 l 521 781 l 434 781 l 434 868 m 0 781 l 87 781 l 87 174 l 0 174 l 0 781 m 521 781 l 608 781 l 608 174 l 521 174 l 521 781 m 87 174 l 174 174 l 174 87 l 87 87 l 87 174 m 434 174 l 521 174 l 521 87 l 434 87 l 434 174 m 434 0 l 174 0 l 174 87 l 434 87 l 434 0 z "},"Õ":{"ha":694,"x_min":0,"x_max":608,"o":"m 174 1302 l 347 1302 l 347 1215 l 174 1215 l 174 1302 m 434 1302 l 521 1302 l 521 1215 l 434 1215 l 434 1302 m 87 1215 l 174 1215 l 174 1128 l 87 1128 l 87 1215 m 347 1215 l 434 1215 l 434 1128 l 347 1128 l 347 1215 m 434 955 l 434 868 l 174 868 l 174 955 l 434 955 m 87 868 l 174 868 l 174 781 l 87 781 l 87 868 m 434 868 l 521 868 l 521 781 l 434 781 l 434 868 m 0 781 l 87 781 l 87 174 l 0 174 l 0 781 m 521 781 l 608 781 l 608 174 l 521 174 l 521 781 m 87 174 l 174 174 l 174 87 l 87 87 l 87 174 m 434 174 l 521 174 l 521 87 l 434 87 l 434 174 m 434 0 l 174 0 l 174 87 l 434 87 l 434 0 z "},"Ö":{"ha":694,"x_min":0,"x_max":608,"o":"m 174 1215 l 260 1215 l 260 1128 l 174 1128 l 174 1215 m 347 1215 l 434 1215 l 434 1128 l 347 1128 l 347 1215 m 434 955 l 434 868 l 174 868 l 174 955 l 434 955 m 87 868 l 174 868 l 174 781 l 87 781 l 87 868 m 434 868 l 521 868 l 521 781 l 434 781 l 434 868 m 0 781 l 87 781 l 87 174 l 0 174 l 0 781 m 521 781 l 608 781 l 608 174 l 521 174 l 521 781 m 87 174 l 174 174 l 174 87 l 87 87 l 87 174 m 434 174 l 521 174 l 521 87 l 434 87 l 434 174 m 434 0 l 174 0 l 174 87 l 434 87 l 434 0 z "},"×":{"ha":521,"x_min":0,"x_max":434,"o":"m 0 694 l 87 694 l 87 608 l 0 608 l 0 694 m 347 694 l 434 694 l 434 608 l 347 608 l 347 694 m 87 608 l 174 608 l 174 521 l 87 521 l 87 608 m 260 608 l 347 608 l 347 521 l 260 521 l 260 608 m 174 521 l 260 521 l 260 434 l 174 434 l 174 521 m 87 434 l 174 434 l 174 347 l 87 347 l 87 434 m 260 434 l 347 434 l 347 347 l 260 347 l 260 434 m 0 347 l 87 347 l 87 260 l 0 260 l 0 347 m 347 347 l 434 347 l 434 260 l 347 260 l 347 347 z "},"Ø":{"ha":694,"x_min":0,"x_max":608,"o":"m 434 955 l 434 868 l 174 868 l 174 955 l 434 955 m 521 1042 l 608 1042 l 608 868 l 521 868 l 521 1042 m 87 868 l 174 868 l 174 781 l 87 781 l 87 868 m 434 868 l 521 868 l 521 781 l 434 781 l 434 868 m 347 781 l 434 781 l 434 608 l 347 608 l 347 781 m 260 608 l 347 608 l 347 347 l 260 347 l 260 608 m 0 781 l 87 781 l 87 174 l 0 174 l 0 781 m 174 347 l 260 347 l 260 174 l 174 174 l 174 347 m 521 781 l 608 781 l 608 174 l 521 174 l 521 781 m 87 174 l 174 174 l 174 87 l 87 87 l 87 174 m 434 174 l 521 174 l 521 87 l 434 87 l 434 174 m 434 0 l 174 0 l 174 87 l 434 87 l 434 0 m 0 87 l 87 87 l 87 -87 l 0 -87 l 0 87 z "},"Ù":{"ha":694,"x_min":0,"x_max":608,"o":"m 174 1302 l 260 1302 l 260 1215 l 174 1215 l 174 1302 m 260 1215 l 347 1215 l 347 1128 l 260 1128 l 260 1215 m 0 955 l 87 955 l 87 174 l 0 174 l 0 955 m 521 955 l 608 955 l 608 174 l 521 174 l 521 955 m 87 174 l 174 174 l 174 87 l 87 87 l 87 174 m 434 174 l 521 174 l 521 87 l 434 87 l 434 174 m 434 0 l 174 0 l 174 87 l 434 87 l 434 0 z "},"Ú":{"ha":694,"x_min":0,"x_max":608,"o":"m 347 1302 l 434 1302 l 434 1215 l 347 1215 l 347 1302 m 260 1215 l 347 1215 l 347 1128 l 260 1128 l 260 1215 m 0 955 l 87 955 l 87 174 l 0 174 l 0 955 m 521 955 l 608 955 l 608 174 l 521 174 l 521 955 m 87 174 l 174 174 l 174 87 l 87 87 l 87 174 m 434 174 l 521 174 l 521 87 l 434 87 l 434 174 m 434 0 l 174 0 l 174 87 l 434 87 l 434 0 z "},"Û":{"ha":694,"x_min":0,"x_max":608,"o":"m 260 1302 l 347 1302 l 347 1215 l 260 1215 l 260 1302 m 174 1215 l 260 1215 l 260 1128 l 174 1128 l 174 1215 m 347 1215 l 434 1215 l 434 1128 l 347 1128 l 347 1215 m 0 955 l 87 955 l 87 174 l 0 174 l 0 955 m 521 955 l 608 955 l 608 174 l 521 174 l 521 955 m 87 174 l 174 174 l 174 87 l 87 87 l 87 174 m 434 174 l 521 174 l 521 87 l 434 87 l 434 174 m 434 0 l 174 0 l 174 87 l 434 87 l 434 0 z "},"Ü":{"ha":694,"x_min":0,"x_max":608,"o":"m 174 1215 l 260 1215 l 260 1128 l 174 1128 l 174 1215 m 347 1215 l 434 1215 l 434 1128 l 347 1128 l 347 1215 m 0 955 l 87 955 l 87 174 l 0 174 l 0 955 m 521 955 l 608 955 l 608 174 l 521 174 l 521 955 m 87 174 l 174 174 l 174 87 l 87 87 l 87 174 m 434 174 l 521 174 l 521 87 l 434 87 l 434 174 m 434 0 l 174 0 l 174 87 l 434 87 l 434 0 z "},"Ý":{"ha":694,"x_min":0,"x_max":608,"o":"m 347 1302 l 434 1302 l 434 1215 l 347 1215 l 347 1302 m 260 1215 l 347 1215 l 347 1128 l 260 1128 l 260 1215 m 0 955 l 87 955 l 87 781 l 0 781 l 0 955 m 521 955 l 608 955 l 608 781 l 521 781 l 521 955 m 87 781 l 174 781 l 174 608 l 87 608 l 87 781 m 434 781 l 521 781 l 521 608 l 434 608 l 434 781 m 174 608 l 260 608 l 260 434 l 174 434 l 174 608 m 347 608 l 434 608 l 434 434 l 347 434 l 347 608 m 260 434 l 347 434 l 347 0 l 260 0 l 260 434 z "},"Þ":{"ha":694,"x_min":0,"x_max":608,"o":"m 521 608 l 608 608 l 608 347 l 521 347 l 521 608 m 0 955 l 87 955 l 87 694 l 521 694 l 521 608 l 87 608 l 87 347 l 521 347 l 521 260 l 87 260 l 87 0 l 0 0 l 0 955 z "},"ß":{"ha":608,"x_min":0,"x_max":521,"o":"m 347 868 l 87 868 l 87 955 l 347 955 l 347 868 m 347 868 l 434 868 l 434 608 l 347 608 l 347 868 m 260 608 l 347 608 l 347 434 l 260 434 l 260 608 m 347 434 l 434 434 l 434 347 l 347 347 l 347 434 m 174 174 l 260 174 l 260 87 l 174 87 l 174 174 m 434 347 l 521 347 l 521 87 l 434 87 l 434 347 m 0 868 l 87 868 l 87 0 l 0 0 l 0 868 m 434 0 l 260 0 l 260 87 l 434 87 l 434 0 z "},"à":{"ha":608,"x_min":0,"x_max":521,"o":"m 174 1042 l 260 1042 l 260 955 l 174 955 l 174 1042 m 260 955 l 347 955 l 347 868 l 260 868 l 260 955 m 434 608 l 87 608 l 87 694 l 434 694 l 434 608 m 0 347 l 87 347 l 87 87 l 0 87 l 0 347 m 434 347 l 87 347 l 87 434 l 434 434 l 434 608 l 521 608 l 521 0 l 87 0 l 87 87 l 434 87 l 434 347 z "},"á":{"ha":608,"x_min":0,"x_max":521,"o":"m 260 1042 l 347 1042 l 347 955 l 260 955 l 260 1042 m 174 955 l 260 955 l 260 868 l 174 868 l 174 955 m 434 608 l 87 608 l 87 694 l 434 694 l 434 608 m 0 347 l 87 347 l 87 87 l 0 87 l 0 347 m 434 347 l 87 347 l 87 434 l 434 434 l 434 608 l 521 608 l 521 0 l 87 0 l 87 87 l 434 87 l 434 347 z "},"â":{"ha":608,"x_min":0,"x_max":521,"o":"m 174 1042 l 347 1042 l 347 955 l 174 955 l 174 1042 m 87 955 l 174 955 l 174 868 l 87 868 l 87 955 m 347 955 l 434 955 l 434 868 l 347 868 l 347 955 m 434 608 l 87 608 l 87 694 l 434 694 l 434 608 m 0 347 l 87 347 l 87 87 l 0 87 l 0 347 m 434 347 l 87 347 l 87 434 l 434 434 l 434 608 l 521 608 l 521 0 l 87 0 l 87 87 l 434 87 l 434 347 z "},"ã":{"ha":608,"x_min":0,"x_max":521,"o":"m 87 1042 l 260 1042 l 260 955 l 87 955 l 87 1042 m 434 1042 l 521 1042 l 521 955 l 434 955 l 434 1042 m 0 955 l 87 955 l 87 868 l 0 868 l 0 955 m 260 955 l 434 955 l 434 868 l 260 868 l 260 955 m 434 608 l 87 608 l 87 694 l 434 694 l 434 608 m 0 347 l 87 347 l 87 87 l 0 87 l 0 347 m 434 347 l 87 347 l 87 434 l 434 434 l 434 608 l 521 608 l 521 0 l 87 0 l 87 87 l 434 87 l 434 347 z "},"ä":{"ha":608,"x_min":0,"x_max":521,"o":"m 87 955 l 174 955 l 174 868 l 87 868 l 87 955 m 347 955 l 434 955 l 434 868 l 347 868 l 347 955 m 434 608 l 87 608 l 87 694 l 434 694 l 434 608 m 0 347 l 87 347 l 87 87 l 0 87 l 0 347 m 434 347 l 87 347 l 87 434 l 434 434 l 434 608 l 521 608 l 521 0 l 87 0 l 87 87 l 434 87 l 434 347 z "},"å":{"ha":608,"x_min":0,"x_max":521,"o":"m 260 1042 l 347 1042 l 347 955 l 260 955 l 260 1042 m 174 955 l 260 955 l 260 868 l 174 868 l 174 955 m 347 955 l 434 955 l 434 868 l 347 868 l 347 955 m 260 868 l 347 868 l 347 781 l 260 781 l 260 868 m 434 608 l 87 608 l 87 694 l 434 694 l 434 608 m 0 347 l 87 347 l 87 87 l 0 87 l 0 347 m 434 347 l 87 347 l 87 434 l 434 434 l 434 608 l 521 608 l 521 0 l 87 0 l 87 87 l 434 87 l 434 347 z "},"æ":{"ha":1042,"x_min":0,"x_max":955,"o":"m 434 608 l 87 608 l 87 694 l 434 694 l 434 608 m 868 608 l 521 608 l 521 694 l 868 694 l 868 608 m 0 347 l 87 347 l 87 87 l 0 87 l 0 347 m 434 347 l 87 347 l 87 434 l 434 434 l 434 608 l 521 608 l 521 434 l 868 434 l 868 608 l 955 608 l 955 347 l 521 347 l 521 87 l 434 87 l 434 347 m 868 174 l 955 174 l 955 87 l 868 87 l 868 174 m 87 87 l 434 87 l 434 0 l 87 0 l 87 87 m 868 0 l 521 0 l 521 87 l 868 87 l 868 0 z "},"ç":{"ha":608,"x_min":0,"x_max":521,"o":"m 434 608 l 87 608 l 87 694 l 434 694 l 434 608 m 434 608 l 521 608 l 521 521 l 434 521 l 434 608 m 0 608 l 87 608 l 87 87 l 0 87 l 0 608 m 434 174 l 521 174 l 521 87 l 434 87 l 434 174 m 87 87 l 434 87 l 434 0 l 347 0 l 347 -87 l 260 -87 l 260 0 l 87 0 l 87 87 m 347 -87 l 434 -87 l 434 -174 l 347 -174 l 347 -87 m 174 -174 l 347 -174 l 347 -260 l 174 -260 l 174 -174 z "},"è":{"ha":608,"x_min":0,"x_max":521,"o":"m 174 1042 l 260 1042 l 260 955 l 174 955 l 174 1042 m 260 955 l 347 955 l 347 868 l 260 868 l 260 955 m 434 608 l 87 608 l 87 694 l 434 694 l 434 608 m 434 608 l 521 608 l 521 347 l 87 347 l 87 87 l 0 87 l 0 608 l 87 608 l 87 434 l 434 434 l 434 608 m 434 174 l 521 174 l 521 87 l 434 87 l 434 174 m 87 87 l 434 87 l 434 0 l 87 0 l 87 87 z "},"é":{"ha":608,"x_min":0,"x_max":521,"o":"m 260 1042 l 347 1042 l 347 955 l 260 955 l 260 1042 m 174 955 l 260 955 l 260 868 l 174 868 l 174 955 m 434 608 l 87 608 l 87 694 l 434 694 l 434 608 m 434 608 l 521 608 l 521 347 l 87 347 l 87 87 l 0 87 l 0 608 l 87 608 l 87 434 l 434 434 l 434 608 m 434 174 l 521 174 l 521 87 l 434 87 l 434 174 m 87 87 l 434 87 l 434 0 l 87 0 l 87 87 z "},"ê":{"ha":608,"x_min":0,"x_max":521,"o":"m 174 1042 l 347 1042 l 347 955 l 174 955 l 174 1042 m 87 955 l 174 955 l 174 868 l 87 868 l 87 955 m 347 955 l 434 955 l 434 868 l 347 868 l 347 955 m 434 608 l 87 608 l 87 694 l 434 694 l 434 608 m 434 608 l 521 608 l 521 347 l 87 347 l 87 87 l 0 87 l 0 608 l 87 608 l 87 434 l 434 434 l 434 608 m 434 174 l 521 174 l 521 87 l 434 87 l 434 174 m 87 87 l 434 87 l 434 0 l 87 0 l 87 87 z "},"ë":{"ha":608,"x_min":0,"x_max":521,"o":"m 87 955 l 174 955 l 174 868 l 87 868 l 87 955 m 347 955 l 434 955 l 434 868 l 347 868 l 347 955 m 434 608 l 87 608 l 87 694 l 434 694 l 434 608 m 434 608 l 521 608 l 521 347 l 87 347 l 87 87 l 0 87 l 0 608 l 87 608 l 87 434 l 434 434 l 434 608 m 434 174 l 521 174 l 521 87 l 434 87 l 434 174 m 87 87 l 434 87 l 434 0 l 87 0 l 87 87 z "},"ì":{"ha":347,"x_min":0,"x_max":260,"o":"m 0 1042 l 87 1042 l 87 955 l 0 955 l 0 1042 m 87 955 l 174 955 l 174 868 l 87 868 l 87 955 m 87 608 l 0 608 l 0 694 l 174 694 l 174 87 l 260 87 l 260 0 l 0 0 l 0 87 l 87 87 l 87 608 z "},"í":{"ha":347,"x_min":0,"x_max":260,"o":"m 174 1042 l 260 1042 l 260 955 l 174 955 l 174 1042 m 87 955 l 174 955 l 174 868 l 87 868 l 87 955 m 87 608 l 0 608 l 0 694 l 174 694 l 174 87 l 260 87 l 260 0 l 0 0 l 0 87 l 87 87 l 87 608 z "},"î":{"ha":347,"x_min":0,"x_max":260,"o":"m 87 1042 l 174 1042 l 174 955 l 87 955 l 87 1042 m 0 955 l 87 955 l 87 868 l 0 868 l 0 955 m 174 955 l 260 955 l 260 868 l 174 868 l 174 955 m 87 608 l 0 608 l 0 694 l 174 694 l 174 87 l 260 87 l 260 0 l 0 0 l 0 87 l 87 87 l 87 608 z "},"ï":{"ha":347,"x_min":0,"x_max":260,"o":"m 0 955 l 87 955 l 87 868 l 0 868 l 0 955 m 174 955 l 260 955 l 260 868 l 174 868 l 174 955 m 87 608 l 0 608 l 0 694 l 174 694 l 174 87 l 260 87 l 260 0 l 0 0 l 0 87 l 87 87 l 87 608 z "},"ð":{"ha":608,"x_min":0,"x_max":521,"o":"m 260 1042 l 87 1042 l 87 1128 l 260 1128 l 260 1042 m 434 1128 l 521 1128 l 521 1042 l 434 1042 l 434 1128 m 347 868 l 174 868 l 174 955 l 260 955 l 260 1042 l 434 1042 l 434 955 l 347 955 l 347 868 m 87 868 l 174 868 l 174 781 l 87 781 l 87 868 m 434 608 l 87 608 l 87 694 l 347 694 l 347 868 l 434 868 l 434 608 m 0 608 l 87 608 l 87 87 l 0 87 l 0 608 m 434 608 l 521 608 l 521 87 l 434 87 l 434 608 m 87 87 l 434 87 l 434 0 l 87 0 l 87 87 z "},"ñ":{"ha":608,"x_min":0,"x_max":521,"o":"m 87 1042 l 260 1042 l 260 955 l 87 955 l 87 1042 m 434 1042 l 521 1042 l 521 955 l 434 955 l 434 1042 m 0 955 l 87 955 l 87 868 l 0 868 l 0 955 m 260 955 l 434 955 l 434 868 l 260 868 l 260 955 m 434 608 l 174 608 l 174 694 l 434 694 l 434 608 m 0 694 l 87 694 l 87 608 l 174 608 l 174 521 l 87 521 l 87 0 l 0 0 l 0 694 m 434 608 l 521 608 l 521 0 l 434 0 l 434 608 z "},"ò":{"ha":608,"x_min":0,"x_max":521,"o":"m 174 1042 l 260 1042 l 260 955 l 174 955 l 174 1042 m 260 955 l 347 955 l 347 868 l 260 868 l 260 955 m 434 608 l 87 608 l 87 694 l 434 694 l 434 608 m 0 608 l 87 608 l 87 87 l 0 87 l 0 608 m 434 608 l 521 608 l 521 87 l 434 87 l 434 608 m 87 87 l 434 87 l 434 0 l 87 0 l 87 87 z "},"ó":{"ha":608,"x_min":0,"x_max":521,"o":"m 260 1042 l 347 1042 l 347 955 l 260 955 l 260 1042 m 174 955 l 260 955 l 260 868 l 174 868 l 174 955 m 434 608 l 87 608 l 87 694 l 434 694 l 434 608 m 0 608 l 87 608 l 87 87 l 0 87 l 0 608 m 434 608 l 521 608 l 521 87 l 434 87 l 434 608 m 87 87 l 434 87 l 434 0 l 87 0 l 87 87 z "},"ô":{"ha":608,"x_min":0,"x_max":521,"o":"m 174 1042 l 347 1042 l 347 955 l 174 955 l 174 1042 m 87 955 l 174 955 l 174 868 l 87 868 l 87 955 m 347 955 l 434 955 l 434 868 l 347 868 l 347 955 m 434 608 l 87 608 l 87 694 l 434 694 l 434 608 m 0 608 l 87 608 l 87 87 l 0 87 l 0 608 m 434 608 l 521 608 l 521 87 l 434 87 l 434 608 m 87 87 l 434 87 l 434 0 l 87 0 l 87 87 z "},"õ":{"ha":608,"x_min":0,"x_max":521,"o":"m 87 1042 l 260 1042 l 260 955 l 87 955 l 87 1042 m 434 1042 l 521 1042 l 521 955 l 434 955 l 434 1042 m 0 955 l 87 955 l 87 868 l 0 868 l 0 955 m 260 955 l 434 955 l 434 868 l 260 868 l 260 955 m 434 608 l 87 608 l 87 694 l 434 694 l 434 608 m 0 608 l 87 608 l 87 87 l 0 87 l 0 608 m 434 608 l 521 608 l 521 87 l 434 87 l 434 608 m 87 87 l 434 87 l 434 0 l 87 0 l 87 87 z "},"ö":{"ha":608,"x_min":0,"x_max":521,"o":"m 87 955 l 174 955 l 174 868 l 87 868 l 87 955 m 347 955 l 434 955 l 434 868 l 347 868 l 347 955 m 434 608 l 87 608 l 87 694 l 434 694 l 434 608 m 0 608 l 87 608 l 87 87 l 0 87 l 0 608 m 434 608 l 521 608 l 521 87 l 434 87 l 434 608 m 87 87 l 434 87 l 434 0 l 87 0 l 87 87 z "},"÷":{"ha":521,"x_min":0,"x_max":434,"o":"m 174 694 l 260 694 l 260 608 l 174 608 l 174 694 m 0 521 l 434 521 l 434 434 l 0 434 l 0 521 m 174 347 l 260 347 l 260 260 l 174 260 l 174 347 z "},"ø":{"ha":608,"x_min":0,"x_max":521,"o":"m 434 781 l 521 781 l 521 694 l 434 694 l 434 781 m 260 521 l 347 521 l 347 347 l 260 347 l 260 521 m 174 347 l 260 347 l 260 174 l 174 174 l 174 347 m 434 521 l 347 521 l 347 608 l 87 608 l 87 694 l 434 694 l 434 608 l 521 608 l 521 87 l 434 87 l 434 521 m 434 87 l 434 0 l 87 0 l 87 87 l 0 87 l 0 608 l 87 608 l 87 174 l 174 174 l 174 87 l 434 87 m 0 0 l 87 0 l 87 -87 l 0 -87 l 0 0 z "},"ù":{"ha":608,"x_min":0,"x_max":521,"o":"m 174 1042 l 260 1042 l 260 955 l 174 955 l 174 1042 m 260 955 l 347 955 l 347 868 l 260 868 l 260 955 m 0 694 l 87 694 l 87 87 l 0 87 l 0 694 m 87 87 l 347 87 l 347 0 l 87 0 l 87 87 m 434 694 l 521 694 l 521 0 l 434 0 l 434 87 l 347 87 l 347 174 l 434 174 l 434 694 z "},"ú":{"ha":608,"x_min":0,"x_max":521,"o":"m 260 1042 l 347 1042 l 347 955 l 260 955 l 260 1042 m 174 955 l 260 955 l 260 868 l 174 868 l 174 955 m 0 694 l 87 694 l 87 87 l 0 87 l 0 694 m 87 87 l 347 87 l 347 0 l 87 0 l 87 87 m 434 694 l 521 694 l 521 0 l 434 0 l 434 87 l 347 87 l 347 174 l 434 174 l 434 694 z "},"û":{"ha":608,"x_min":0,"x_max":521,"o":"m 174 1042 l 347 1042 l 347 955 l 174 955 l 174 1042 m 87 955 l 174 955 l 174 868 l 87 868 l 87 955 m 347 955 l 434 955 l 434 868 l 347 868 l 347 955 m 0 694 l 87 694 l 87 87 l 0 87 l 0 694 m 87 87 l 347 87 l 347 0 l 87 0 l 87 87 m 434 694 l 521 694 l 521 0 l 434 0 l 434 87 l 347 87 l 347 174 l 434 174 l 434 694 z "},"ü":{"ha":608,"x_min":0,"x_max":521,"o":"m 87 955 l 174 955 l 174 868 l 87 868 l 87 955 m 347 955 l 434 955 l 434 868 l 347 868 l 347 955 m 0 694 l 87 694 l 87 87 l 0 87 l 0 694 m 87 87 l 347 87 l 347 0 l 87 0 l 87 87 m 434 694 l 521 694 l 521 0 l 434 0 l 434 87 l 347 87 l 347 174 l 434 174 l 434 694 z "},"ý":{"ha":694,"x_min":0,"x_max":608,"o":"m 347 1042 l 434 1042 l 434 955 l 347 955 l 347 1042 m 260 955 l 347 955 l 347 868 l 260 868 l 260 955 m 0 694 l 87 694 l 87 521 l 0 521 l 0 694 m 521 694 l 608 694 l 608 521 l 521 521 l 521 694 m 87 521 l 174 521 l 174 260 l 87 260 l 87 521 m 434 521 l 521 521 l 521 260 l 434 260 l 434 521 m 174 260 l 260 260 l 260 87 l 174 87 l 174 260 m 347 260 l 434 260 l 434 87 l 347 87 l 347 260 m 260 87 l 347 87 l 347 -87 l 260 -87 l 260 87 m 174 -87 l 260 -87 l 260 -174 l 174 -174 l 174 -87 m 0 -174 l 174 -174 l 174 -260 l 0 -260 l 0 -174 z "},"þ":{"ha":608,"x_min":0,"x_max":521,"o":"m 434 608 l 521 608 l 521 87 l 434 87 l 434 608 m 0 955 l 87 955 l 87 694 l 434 694 l 434 608 l 87 608 l 87 87 l 434 87 l 434 0 l 87 0 l 87 -260 l 0 -260 l 0 955 z "},"ÿ":{"ha":694,"x_min":0,"x_max":608,"o":"m 174 955 l 260 955 l 260 868 l 174 868 l 174 955 m 347 955 l 434 955 l 434 868 l 347 868 l 347 955 m 0 694 l 87 694 l 87 521 l 0 521 l 0 694 m 521 694 l 608 694 l 608 521 l 521 521 l 521 694 m 87 521 l 174 521 l 174 260 l 87 260 l 87 521 m 434 521 l 521 521 l 521 260 l 434 260 l 434 521 m 174 260 l 260 260 l 260 87 l 174 87 l 174 260 m 347 260 l 434 260 l 434 87 l 347 87 l 347 260 m 260 87 l 347 87 l 347 -87 l 260 -87 l 260 87 m 174 -87 l 260 -87 l 260 -174 l 174 -174 l 174 -87 m 0 -174 l 174 -174 l 174 -260 l 0 -260 l 0 -174 z "},"Ā":{"ha":694,"x_min":0,"x_max":608,"o":"m 434 1128 l 174 1128 l 174 1215 l 434 1215 l 434 1128 m 260 955 l 347 955 l 347 781 l 260 781 l 260 955 m 174 781 l 260 781 l 260 521 l 174 521 l 174 781 m 347 781 l 434 781 l 434 521 l 347 521 l 347 781 m 434 347 l 434 521 l 521 521 l 521 260 l 87 260 l 87 521 l 174 521 l 174 347 l 434 347 m 0 260 l 87 260 l 87 0 l 0 0 l 0 260 m 521 260 l 608 260 l 608 0 l 521 0 l 521 260 z "},"ā":{"ha":608,"x_min":0,"x_max":521,"o":"m 434 955 l 434 868 l 87 868 l 87 955 l 434 955 m 434 608 l 87 608 l 87 694 l 434 694 l 434 608 m 0 347 l 87 347 l 87 87 l 0 87 l 0 347 m 434 347 l 87 347 l 87 434 l 434 434 l 434 608 l 521 608 l 521 0 l 87 0 l 87 87 l 434 87 l 434 347 z "},"Ă":{"ha":694,"x_min":0,"x_max":608,"o":"m 87 1302 l 174 1302 l 174 1215 l 87 1215 l 87 1302 m 434 1302 l 521 1302 l 521 1215 l 434 1215 l 434 1302 m 434 1128 l 174 1128 l 174 1215 l 434 1215 l 434 1128 m 260 955 l 347 955 l 347 781 l 260 781 l 260 955 m 174 781 l 260 781 l 260 521 l 174 521 l 174 781 m 347 781 l 434 781 l 434 521 l 347 521 l 347 781 m 434 347 l 434 521 l 521 521 l 521 260 l 87 260 l 87 521 l 174 521 l 174 347 l 434 347 m 0 260 l 87 260 l 87 0 l 0 0 l 0 260 m 521 260 l 608 260 l 608 0 l 521 0 l 521 260 z "},"ă":{"ha":608,"x_min":0,"x_max":521,"o":"m 0 1042 l 87 1042 l 87 955 l 0 955 l 0 1042 m 434 1042 l 521 1042 l 521 955 l 434 955 l 434 1042 m 434 955 l 434 868 l 87 868 l 87 955 l 434 955 m 434 608 l 87 608 l 87 694 l 434 694 l 434 608 m 0 347 l 87 347 l 87 87 l 0 87 l 0 347 m 434 347 l 87 347 l 87 434 l 434 434 l 434 608 l 521 608 l 521 0 l 87 0 l 87 87 l 434 87 l 434 347 z "},"Ć":{"ha":694,"x_min":0,"x_max":608,"o":"m 347 1302 l 434 1302 l 434 1215 l 347 1215 l 347 1302 m 260 1215 l 347 1215 l 347 1128 l 260 1128 l 260 1215 m 521 955 l 521 868 l 174 868 l 174 955 l 521 955 m 87 868 l 174 868 l 174 781 l 87 781 l 87 868 m 521 868 l 608 868 l 608 781 l 521 781 l 521 868 m 0 781 l 87 781 l 87 174 l 0 174 l 0 781 m 87 174 l 174 174 l 174 87 l 87 87 l 87 174 m 521 174 l 608 174 l 608 87 l 521 87 l 521 174 m 521 87 l 521 0 l 174 0 l 174 87 l 521 87 z "},"ć":{"ha":608,"x_min":0,"x_max":521,"o":"m 260 1042 l 347 1042 l 347 955 l 260 955 l 260 1042 m 174 955 l 260 955 l 260 868 l 174 868 l 174 955 m 434 608 l 87 608 l 87 694 l 434 694 l 434 608 m 434 608 l 521 608 l 521 521 l 434 521 l 434 608 m 0 608 l 87 608 l 87 87 l 0 87 l 0 608 m 434 174 l 521 174 l 521 87 l 434 87 l 434 174 m 87 87 l 434 87 l 434 0 l 87 0 l 87 87 z "},"Ĉ":{"ha":694,"x_min":0,"x_max":608,"o":"m 260 1302 l 434 1302 l 434 1215 l 260 1215 l 260 1302 m 174 1215 l 260 1215 l 260 1128 l 174 1128 l 174 1215 m 434 1215 l 521 1215 l 521 1128 l 434 1128 l 434 1215 m 521 955 l 521 868 l 174 868 l 174 955 l 521 955 m 87 868 l 174 868 l 174 781 l 87 781 l 87 868 m 521 868 l 608 868 l 608 781 l 521 781 l 521 868 m 0 781 l 87 781 l 87 174 l 0 174 l 0 781 m 87 174 l 174 174 l 174 87 l 87 87 l 87 174 m 521 174 l 608 174 l 608 87 l 521 87 l 521 174 m 521 87 l 521 0 l 174 0 l 174 87 l 521 87 z "},"ĉ":{"ha":608,"x_min":0,"x_max":521,"o":"m 174 1042 l 347 1042 l 347 955 l 174 955 l 174 1042 m 87 955 l 174 955 l 174 868 l 87 868 l 87 955 m 347 955 l 434 955 l 434 868 l 347 868 l 347 955 m 434 608 l 87 608 l 87 694 l 434 694 l 434 608 m 434 608 l 521 608 l 521 521 l 434 521 l 434 608 m 0 608 l 87 608 l 87 87 l 0 87 l 0 608 m 434 174 l 521 174 l 521 87 l 434 87 l 434 174 m 87 87 l 434 87 l 434 0 l 87 0 l 87 87 z "},"Ċ":{"ha":694,"x_min":0,"x_max":608,"o":"m 347 1215 l 434 1215 l 434 1128 l 347 1128 l 347 1215 m 521 955 l 521 868 l 174 868 l 174 955 l 521 955 m 87 868 l 174 868 l 174 781 l 87 781 l 87 868 m 521 868 l 608 868 l 608 781 l 521 781 l 521 868 m 0 781 l 87 781 l 87 174 l 0 174 l 0 781 m 87 174 l 174 174 l 174 87 l 87 87 l 87 174 m 521 174 l 608 174 l 608 87 l 521 87 l 521 174 m 521 87 l 521 0 l 174 0 l 174 87 l 521 87 z "},"ċ":{"ha":608,"x_min":0,"x_max":521,"o":"m 260 955 l 347 955 l 347 868 l 260 868 l 260 955 m 434 608 l 87 608 l 87 694 l 434 694 l 434 608 m 434 608 l 521 608 l 521 521 l 434 521 l 434 608 m 0 608 l 87 608 l 87 87 l 0 87 l 0 608 m 434 174 l 521 174 l 521 87 l 434 87 l 434 174 m 87 87 l 434 87 l 434 0 l 87 0 l 87 87 z "},"Č":{"ha":694,"x_min":0,"x_max":608,"o":"m 174 1302 l 260 1302 l 260 1215 l 174 1215 l 174 1302 m 434 1302 l 521 1302 l 521 1215 l 434 1215 l 434 1302 m 434 1128 l 260 1128 l 260 1215 l 434 1215 l 434 1128 m 521 955 l 521 868 l 174 868 l 174 955 l 521 955 m 87 868 l 174 868 l 174 781 l 87 781 l 87 868 m 521 868 l 608 868 l 608 781 l 521 781 l 521 868 m 0 781 l 87 781 l 87 174 l 0 174 l 0 781 m 87 174 l 174 174 l 174 87 l 87 87 l 87 174 m 521 174 l 608 174 l 608 87 l 521 87 l 521 174 m 521 87 l 521 0 l 174 0 l 174 87 l 521 87 z "},"č":{"ha":608,"x_min":0,"x_max":521,"o":"m 87 1042 l 174 1042 l 174 955 l 87 955 l 87 1042 m 347 1042 l 434 1042 l 434 955 l 347 955 l 347 1042 m 347 868 l 174 868 l 174 955 l 347 955 l 347 868 m 434 608 l 87 608 l 87 694 l 434 694 l 434 608 m 434 608 l 521 608 l 521 521 l 434 521 l 434 608 m 0 608 l 87 608 l 87 87 l 0 87 l 0 608 m 434 174 l 521 174 l 521 87 l 434 87 l 434 174 m 87 87 l 434 87 l 434 0 l 87 0 l 87 87 z "},"Đ":{"ha":781,"x_min":0,"x_max":694,"o":"m 521 868 l 608 868 l 608 781 l 521 781 l 521 868 m 608 781 l 694 781 l 694 174 l 608 174 l 608 781 m 521 174 l 608 174 l 608 87 l 521 87 l 521 174 m 521 955 l 521 868 l 174 868 l 174 521 l 347 521 l 347 434 l 174 434 l 174 87 l 521 87 l 521 0 l 87 0 l 87 434 l 0 434 l 0 521 l 87 521 l 87 955 l 521 955 z "},"đ":{"ha":694,"x_min":0,"x_max":608,"o":"m 0 608 l 87 608 l 87 87 l 0 87 l 0 608 m 434 608 l 87 608 l 87 694 l 434 694 l 434 781 l 347 781 l 347 868 l 434 868 l 434 955 l 521 955 l 521 868 l 608 868 l 608 781 l 521 781 l 521 0 l 87 0 l 87 87 l 434 87 l 434 608 z "},"Ē":{"ha":694,"x_min":0,"x_max":608,"o":"m 434 1128 l 174 1128 l 174 1215 l 434 1215 l 434 1128 m 0 955 l 608 955 l 608 868 l 87 868 l 87 521 l 521 521 l 521 434 l 87 434 l 87 87 l 608 87 l 608 0 l 0 0 l 0 955 z "},"ē":{"ha":608,"x_min":0,"x_max":521,"o":"m 434 955 l 434 868 l 87 868 l 87 955 l 434 955 m 434 608 l 87 608 l 87 694 l 434 694 l 434 608 m 434 608 l 521 608 l 521 347 l 87 347 l 87 87 l 0 87 l 0 608 l 87 608 l 87 434 l 434 434 l 434 608 m 434 174 l 521 174 l 521 87 l 434 87 l 434 174 m 87 87 l 434 87 l 434 0 l 87 0 l 87 87 z "},"Ĕ":{"ha":694,"x_min":0,"x_max":608,"o":"m 87 1302 l 174 1302 l 174 1215 l 87 1215 l 87 1302 m 434 1302 l 521 1302 l 521 1215 l 434 1215 l 434 1302 m 434 1128 l 174 1128 l 174 1215 l 434 1215 l 434 1128 m 0 955 l 608 955 l 608 868 l 87 868 l 87 521 l 521 521 l 521 434 l 87 434 l 87 87 l 608 87 l 608 0 l 0 0 l 0 955 z "},"ĕ":{"ha":608,"x_min":0,"x_max":521,"o":"m 0 1042 l 87 1042 l 87 955 l 0 955 l 0 1042 m 434 1042 l 521 1042 l 521 955 l 434 955 l 434 1042 m 434 955 l 434 868 l 87 868 l 87 955 l 434 955 m 434 608 l 87 608 l 87 694 l 434 694 l 434 608 m 434 608 l 521 608 l 521 347 l 87 347 l 87 87 l 0 87 l 0 608 l 87 608 l 87 434 l 434 434 l 434 608 m 434 174 l 521 174 l 521 87 l 434 87 l 434 174 m 87 87 l 434 87 l 434 0 l 87 0 l 87 87 z "},"Ė":{"ha":694,"x_min":0,"x_max":608,"o":"m 260 1215 l 347 1215 l 347 1128 l 260 1128 l 260 1215 m 0 955 l 608 955 l 608 868 l 87 868 l 87 521 l 521 521 l 521 434 l 87 434 l 87 87 l 608 87 l 608 0 l 0 0 l 0 955 z "},"ė":{"ha":608,"x_min":0,"x_max":521,"o":"m 260 955 l 347 955 l 347 868 l 260 868 l 260 955 m 434 608 l 87 608 l 87 694 l 434 694 l 434 608 m 434 608 l 521 608 l 521 347 l 87 347 l 87 87 l 0 87 l 0 608 l 87 608 l 87 434 l 434 434 l 434 608 m 434 174 l 521 174 l 521 87 l 434 87 l 434 174 m 87 87 l 434 87 l 434 0 l 87 0 l 87 87 z "},"Ě":{"ha":694,"x_min":0,"x_max":608,"o":"m 174 1302 l 260 1302 l 260 1215 l 174 1215 l 174 1302 m 347 1302 l 434 1302 l 434 1215 l 347 1215 l 347 1302 m 260 1215 l 347 1215 l 347 1128 l 260 1128 l 260 1215 m 0 955 l 608 955 l 608 868 l 87 868 l 87 521 l 521 521 l 521 434 l 87 434 l 87 87 l 608 87 l 608 0 l 0 0 l 0 955 z "},"ě":{"ha":608,"x_min":0,"x_max":521,"o":"m 87 1042 l 174 1042 l 174 955 l 87 955 l 87 1042 m 347 1042 l 434 1042 l 434 955 l 347 955 l 347 1042 m 347 868 l 174 868 l 174 955 l 347 955 l 347 868 m 434 608 l 87 608 l 87 694 l 434 694 l 434 608 m 434 608 l 521 608 l 521 347 l 87 347 l 87 87 l 0 87 l 0 608 l 87 608 l 87 434 l 434 434 l 434 608 m 434 174 l 521 174 l 521 87 l 434 87 l 434 174 m 87 87 l 434 87 l 434 0 l 87 0 l 87 87 z "},"Ĝ":{"ha":694,"x_min":0,"x_max":608,"o":"m 260 1302 l 434 1302 l 434 1215 l 260 1215 l 260 1302 m 174 1215 l 260 1215 l 260 1128 l 174 1128 l 174 1215 m 434 1215 l 521 1215 l 521 1128 l 434 1128 l 434 1215 m 521 955 l 521 868 l 174 868 l 174 955 l 521 955 m 87 868 l 174 868 l 174 781 l 87 781 l 87 868 m 521 868 l 608 868 l 608 781 l 521 781 l 521 868 m 0 781 l 87 781 l 87 174 l 0 174 l 0 781 m 87 174 l 174 174 l 174 87 l 87 87 l 87 174 m 174 87 l 521 87 l 521 347 l 347 347 l 347 434 l 608 434 l 608 0 l 174 0 l 174 87 z "},"ĝ":{"ha":608,"x_min":0,"x_max":521,"o":"m 260 1042 l 347 1042 l 347 955 l 260 955 l 260 1042 m 174 955 l 260 955 l 260 868 l 174 868 l 174 955 m 347 955 l 434 955 l 434 868 l 347 868 l 347 955 m 0 608 l 87 608 l 87 87 l 0 87 l 0 608 m 434 608 l 87 608 l 87 694 l 521 694 l 521 -174 l 434 -174 l 434 0 l 87 0 l 87 87 l 434 87 l 434 608 m 434 -174 l 434 -260 l 87 -260 l 87 -174 l 434 -174 z "},"Ğ":{"ha":694,"x_min":0,"x_max":608,"o":"m 87 1302 l 174 1302 l 174 1215 l 87 1215 l 87 1302 m 521 1302 l 608 1302 l 608 1215 l 521 1215 l 521 1302 m 521 1215 l 521 1128 l 174 1128 l 174 1215 l 521 1215 m 521 955 l 521 868 l 174 868 l 174 955 l 521 955 m 87 868 l 174 868 l 174 781 l 87 781 l 87 868 m 521 868 l 608 868 l 608 781 l 521 781 l 521 868 m 0 781 l 87 781 l 87 174 l 0 174 l 0 781 m 87 174 l 174 174 l 174 87 l 87 87 l 87 174 m 174 87 l 521 87 l 521 347 l 347 347 l 347 434 l 608 434 l 608 0 l 174 0 l 174 87 z "},"ğ":{"ha":608,"x_min":0,"x_max":521,"o":"m 87 1042 l 174 1042 l 174 955 l 87 955 l 87 1042 m 434 1042 l 521 1042 l 521 955 l 434 955 l 434 1042 m 434 955 l 434 868 l 174 868 l 174 955 l 434 955 m 0 608 l 87 608 l 87 87 l 0 87 l 0 608 m 434 608 l 87 608 l 87 694 l 521 694 l 521 -174 l 434 -174 l 434 0 l 87 0 l 87 87 l 434 87 l 434 608 m 434 -174 l 434 -260 l 87 -260 l 87 -174 l 434 -174 z "},"Ġ":{"ha":694,"x_min":0,"x_max":608,"o":"m 347 1215 l 434 1215 l 434 1128 l 347 1128 l 347 1215 m 521 955 l 521 868 l 174 868 l 174 955 l 521 955 m 87 868 l 174 868 l 174 781 l 87 781 l 87 868 m 521 868 l 608 868 l 608 781 l 521 781 l 521 868 m 0 781 l 87 781 l 87 174 l 0 174 l 0 781 m 87 174 l 174 174 l 174 87 l 87 87 l 87 174 m 174 87 l 521 87 l 521 347 l 347 347 l 347 434 l 608 434 l 608 0 l 174 0 l 174 87 z "},"ġ":{"ha":608,"x_min":0,"x_max":521,"o":"m 260 955 l 347 955 l 347 868 l 260 868 l 260 955 m 0 608 l 87 608 l 87 87 l 0 87 l 0 608 m 434 608 l 87 608 l 87 694 l 521 694 l 521 -174 l 434 -174 l 434 0 l 87 0 l 87 87 l 434 87 l 434 608 m 434 -174 l 434 -260 l 87 -260 l 87 -174 l 434 -174 z "},"Ĩ":{"ha":347,"x_min":0,"x_max":347,"o":"m 87 1302 l 174 1302 l 174 1215 l 87 1215 l 87 1302 m 260 1302 l 347 1302 l 347 1215 l 260 1215 l 260 1302 m 0 1215 l 87 1215 l 87 1128 l 0 1128 l 0 1215 m 174 1215 l 260 1215 l 260 1128 l 174 1128 l 174 1215 m 87 868 l 0 868 l 0 955 l 260 955 l 260 868 l 174 868 l 174 87 l 260 87 l 260 0 l 0 0 l 0 87 l 87 87 l 87 868 z "},"ĩ":{"ha":347,"x_min":0,"x_max":347,"o":"m 87 1042 l 174 1042 l 174 955 l 87 955 l 87 1042 m 260 1042 l 347 1042 l 347 955 l 260 955 l 260 1042 m 0 955 l 87 955 l 87 868 l 0 868 l 0 955 m 174 955 l 260 955 l 260 868 l 174 868 l 174 955 m 87 608 l 0 608 l 0 694 l 174 694 l 174 87 l 260 87 l 260 0 l 0 0 l 0 87 l 87 87 l 87 608 z "},"Ī":{"ha":347,"x_min":0,"x_max":260,"o":"m 260 1128 l 0 1128 l 0 1215 l 260 1215 l 260 1128 m 87 868 l 0 868 l 0 955 l 260 955 l 260 868 l 174 868 l 174 87 l 260 87 l 260 0 l 0 0 l 0 87 l 87 87 l 87 868 z "},"ī":{"ha":347,"x_min":0,"x_max":260,"o":"m 0 955 l 260 955 l 260 868 l 0 868 l 0 955 m 87 608 l 0 608 l 0 694 l 174 694 l 174 87 l 260 87 l 260 0 l 0 0 l 0 87 l 87 87 l 87 608 z "},"Ĭ":{"ha":347,"x_min":0,"x_max":347,"o":"m 0 1302 l 87 1302 l 87 1215 l 0 1215 l 0 1302 m 260 1302 l 347 1302 l 347 1215 l 260 1215 l 260 1302 m 260 1128 l 87 1128 l 87 1215 l 260 1215 l 260 1128 m 87 868 l 0 868 l 0 955 l 260 955 l 260 868 l 174 868 l 174 87 l 260 87 l 260 0 l 0 0 l 0 87 l 87 87 l 87 868 z "},"ĭ":{"ha":347,"x_min":0,"x_max":347,"o":"m 0 1042 l 87 1042 l 87 955 l 0 955 l 0 1042 m 260 1042 l 347 1042 l 347 955 l 260 955 l 260 1042 m 87 955 l 260 955 l 260 868 l 87 868 l 87 955 m 87 608 l 0 608 l 0 694 l 174 694 l 174 87 l 260 87 l 260 0 l 0 0 l 0 87 l 87 87 l 87 608 z "},"Ń":{"ha":694,"x_min":0,"x_max":608,"o":"m 347 1302 l 434 1302 l 434 1215 l 347 1215 l 347 1302 m 260 1215 l 347 1215 l 347 1128 l 260 1128 l 260 1215 m 174 694 l 260 694 l 260 521 l 174 521 l 174 694 m 260 521 l 347 521 l 347 434 l 260 434 l 260 521 m 347 434 l 434 434 l 434 260 l 347 260 l 347 434 m 0 955 l 87 955 l 87 868 l 174 868 l 174 694 l 87 694 l 87 0 l 0 0 l 0 955 m 521 955 l 608 955 l 608 0 l 521 0 l 521 87 l 434 87 l 434 260 l 521 260 l 521 955 z "},"ń":{"ha":608,"x_min":0,"x_max":521,"o":"m 260 1042 l 347 1042 l 347 955 l 260 955 l 260 1042 m 174 955 l 260 955 l 260 868 l 174 868 l 174 955 m 434 608 l 174 608 l 174 694 l 434 694 l 434 608 m 0 694 l 87 694 l 87 608 l 174 608 l 174 521 l 87 521 l 87 0 l 0 0 l 0 694 m 434 608 l 521 608 l 521 0 l 434 0 l 434 608 z "},"Ň":{"ha":694,"x_min":0,"x_max":608,"o":"m 174 1302 l 260 1302 l 260 1215 l 174 1215 l 174 1302 m 347 1302 l 434 1302 l 434 1215 l 347 1215 l 347 1302 m 260 1215 l 347 1215 l 347 1128 l 260 1128 l 260 1215 m 174 694 l 260 694 l 260 521 l 174 521 l 174 694 m 260 521 l 347 521 l 347 434 l 260 434 l 260 521 m 347 434 l 434 434 l 434 260 l 347 260 l 347 434 m 0 955 l 87 955 l 87 868 l 174 868 l 174 694 l 87 694 l 87 0 l 0 0 l 0 955 m 521 955 l 608 955 l 608 0 l 521 0 l 521 87 l 434 87 l 434 260 l 521 260 l 521 955 z "},"ň":{"ha":608,"x_min":0,"x_max":521,"o":"m 87 1042 l 174 1042 l 174 955 l 87 955 l 87 1042 m 347 1042 l 434 1042 l 434 955 l 347 955 l 347 1042 m 347 868 l 174 868 l 174 955 l 347 955 l 347 868 m 434 608 l 174 608 l 174 694 l 434 694 l 434 608 m 0 694 l 87 694 l 87 608 l 174 608 l 174 521 l 87 521 l 87 0 l 0 0 l 0 694 m 434 608 l 521 608 l 521 0 l 434 0 l 434 608 z "},"Ō":{"ha":694,"x_min":0,"x_max":608,"o":"m 434 1128 l 174 1128 l 174 1215 l 434 1215 l 434 1128 m 434 955 l 434 868 l 174 868 l 174 955 l 434 955 m 87 868 l 174 868 l 174 781 l 87 781 l 87 868 m 434 868 l 521 868 l 521 781 l 434 781 l 434 868 m 0 781 l 87 781 l 87 174 l 0 174 l 0 781 m 521 781 l 608 781 l 608 174 l 521 174 l 521 781 m 87 174 l 174 174 l 174 87 l 87 87 l 87 174 m 434 174 l 521 174 l 521 87 l 434 87 l 434 174 m 434 0 l 174 0 l 174 87 l 434 87 l 434 0 z "},"ō":{"ha":608,"x_min":0,"x_max":521,"o":"m 434 955 l 434 868 l 87 868 l 87 955 l 434 955 m 434 608 l 87 608 l 87 694 l 434 694 l 434 608 m 0 608 l 87 608 l 87 87 l 0 87 l 0 608 m 434 608 l 521 608 l 521 87 l 434 87 l 434 608 m 87 87 l 434 87 l 434 0 l 87 0 l 87 87 z "},"Ŏ":{"ha":694,"x_min":0,"x_max":608,"o":"m 87 1302 l 174 1302 l 174 1215 l 87 1215 l 87 1302 m 434 1302 l 521 1302 l 521 1215 l 434 1215 l 434 1302 m 434 1128 l 174 1128 l 174 1215 l 434 1215 l 434 1128 m 434 955 l 434 868 l 174 868 l 174 955 l 434 955 m 87 868 l 174 868 l 174 781 l 87 781 l 87 868 m 434 868 l 521 868 l 521 781 l 434 781 l 434 868 m 0 781 l 87 781 l 87 174 l 0 174 l 0 781 m 521 781 l 608 781 l 608 174 l 521 174 l 521 781 m 87 174 l 174 174 l 174 87 l 87 87 l 87 174 m 434 174 l 521 174 l 521 87 l 434 87 l 434 174 m 434 0 l 174 0 l 174 87 l 434 87 l 434 0 z "},"ŏ":{"ha":608,"x_min":0,"x_max":521,"o":"m 0 1042 l 87 1042 l 87 955 l 0 955 l 0 1042 m 434 1042 l 521 1042 l 521 955 l 434 955 l 434 1042 m 434 955 l 434 868 l 87 868 l 87 955 l 434 955 m 434 608 l 87 608 l 87 694 l 434 694 l 434 608 m 0 608 l 87 608 l 87 87 l 0 87 l 0 608 m 434 608 l 521 608 l 521 87 l 434 87 l 434 608 m 87 87 l 434 87 l 434 0 l 87 0 l 87 87 z "},"Ŕ":{"ha":694,"x_min":0,"x_max":608,"o":"m 347 1302 l 434 1302 l 434 1215 l 347 1215 l 347 1302 m 260 1215 l 347 1215 l 347 1128 l 260 1128 l 260 1215 m 521 868 l 608 868 l 608 521 l 521 521 l 521 868 m 347 347 l 434 347 l 434 174 l 347 174 l 347 347 m 434 174 l 521 174 l 521 87 l 434 87 l 434 174 m 0 955 l 521 955 l 521 868 l 87 868 l 87 521 l 521 521 l 521 434 l 347 434 l 347 347 l 260 347 l 260 434 l 87 434 l 87 0 l 0 0 l 0 955 m 521 87 l 608 87 l 608 0 l 521 0 l 521 87 z "},"ŕ":{"ha":521,"x_min":0,"x_max":434,"o":"m 260 1042 l 347 1042 l 347 955 l 260 955 l 260 1042 m 174 955 l 260 955 l 260 868 l 174 868 l 174 955 m 434 608 l 174 608 l 174 694 l 434 694 l 434 608 m 0 694 l 87 694 l 87 608 l 174 608 l 174 521 l 87 521 l 87 0 l 0 0 l 0 694 z "},"Ũ":{"ha":694,"x_min":0,"x_max":608,"o":"m 174 1302 l 347 1302 l 347 1215 l 174 1215 l 174 1302 m 434 1302 l 521 1302 l 521 1215 l 434 1215 l 434 1302 m 87 1215 l 174 1215 l 174 1128 l 87 1128 l 87 1215 m 347 1215 l 434 1215 l 434 1128 l 347 1128 l 347 1215 m 0 955 l 87 955 l 87 174 l 0 174 l 0 955 m 521 955 l 608 955 l 608 174 l 521 174 l 521 955 m 87 174 l 174 174 l 174 87 l 87 87 l 87 174 m 434 174 l 521 174 l 521 87 l 434 87 l 434 174 m 434 0 l 174 0 l 174 87 l 434 87 l 434 0 z "},"ũ":{"ha":608,"x_min":0,"x_max":521,"o":"m 87 1042 l 260 1042 l 260 955 l 87 955 l 87 1042 m 434 1042 l 521 1042 l 521 955 l 434 955 l 434 1042 m 0 955 l 87 955 l 87 868 l 0 868 l 0 955 m 260 955 l 434 955 l 434 868 l 260 868 l 260 955 m 0 694 l 87 694 l 87 87 l 0 87 l 0 694 m 87 87 l 347 87 l 347 0 l 87 0 l 87 87 m 434 694 l 521 694 l 521 0 l 434 0 l 434 87 l 347 87 l 347 174 l 434 174 l 434 694 z "},"Ū":{"ha":694,"x_min":0,"x_max":608,"o":"m 434 1128 l 174 1128 l 174 1215 l 434 1215 l 434 1128 m 0 955 l 87 955 l 87 174 l 0 174 l 0 955 m 521 955 l 608 955 l 608 174 l 521 174 l 521 955 m 87 174 l 174 174 l 174 87 l 87 87 l 87 174 m 434 174 l 521 174 l 521 87 l 434 87 l 434 174 m 434 0 l 174 0 l 174 87 l 434 87 l 434 0 z "},"ū":{"ha":608,"x_min":0,"x_max":521,"o":"m 434 955 l 434 868 l 87 868 l 87 955 l 434 955 m 0 694 l 87 694 l 87 87 l 0 87 l 0 694 m 87 87 l 347 87 l 347 0 l 87 0 l 87 87 m 434 694 l 521 694 l 521 0 l 434 0 l 434 87 l 347 87 l 347 174 l 434 174 l 434 694 z "},"Ŭ":{"ha":694,"x_min":0,"x_max":608,"o":"m 87 1302 l 174 1302 l 174 1215 l 87 1215 l 87 1302 m 434 1302 l 521 1302 l 521 1215 l 434 1215 l 434 1302 m 434 1128 l 174 1128 l 174 1215 l 434 1215 l 434 1128 m 0 955 l 87 955 l 87 174 l 0 174 l 0 955 m 521 955 l 608 955 l 608 174 l 521 174 l 521 955 m 87 174 l 174 174 l 174 87 l 87 87 l 87 174 m 434 174 l 521 174 l 521 87 l 434 87 l 434 174 m 434 0 l 174 0 l 174 87 l 434 87 l 434 0 z "},"ŭ":{"ha":608,"x_min":0,"x_max":521,"o":"m 0 1042 l 87 1042 l 87 955 l 0 955 l 0 1042 m 434 1042 l 521 1042 l 521 955 l 434 955 l 434 1042 m 434 955 l 434 868 l 87 868 l 87 955 l 434 955 m 0 694 l 87 694 l 87 87 l 0 87 l 0 694 m 87 87 l 347 87 l 347 0 l 87 0 l 87 87 m 434 694 l 521 694 l 521 0 l 434 0 l 434 87 l 347 87 l 347 174 l 434 174 l 434 694 z "},"Ŵ":{"ha":1042,"x_min":0,"x_max":955,"o":"m 434 1302 l 521 1302 l 521 1215 l 434 1215 l 434 1302 m 347 1215 l 434 1215 l 434 1128 l 347 1128 l 347 1215 m 521 1215 l 608 1215 l 608 1128 l 521 1128 l 521 1215 m 434 955 l 521 955 l 521 781 l 434 781 l 434 955 m 0 955 l 87 955 l 87 608 l 0 608 l 0 955 m 868 955 l 955 955 l 955 608 l 868 608 l 868 955 m 347 781 l 434 781 l 434 521 l 347 521 l 347 781 m 521 781 l 608 781 l 608 521 l 521 521 l 521 781 m 87 608 l 174 608 l 174 260 l 87 260 l 87 608 m 260 521 l 347 521 l 347 260 l 260 260 l 260 521 m 608 521 l 694 521 l 694 260 l 608 260 l 608 521 m 781 608 l 868 608 l 868 260 l 781 260 l 781 608 m 174 260 l 260 260 l 260 0 l 174 0 l 174 260 m 694 260 l 781 260 l 781 0 l 694 0 l 694 260 z "},"ŵ":{"ha":1042,"x_min":0,"x_max":955,"o":"m 434 1042 l 521 1042 l 521 955 l 434 955 l 434 1042 m 347 955 l 434 955 l 434 868 l 347 868 l 347 955 m 521 955 l 608 955 l 608 868 l 521 868 l 521 955 m 434 694 l 521 694 l 521 521 l 434 521 l 434 694 m 0 694 l 87 694 l 87 434 l 0 434 l 0 694 m 868 694 l 955 694 l 955 434 l 868 434 l 868 694 m 347 521 l 434 521 l 434 347 l 347 347 l 347 521 m 521 521 l 608 521 l 608 347 l 521 347 l 521 521 m 87 434 l 174 434 l 174 174 l 87 174 l 87 434 m 260 347 l 347 347 l 347 174 l 260 174 l 260 347 m 608 347 l 694 347 l 694 174 l 608 174 l 608 347 m 781 434 l 868 434 l 868 174 l 781 174 l 781 434 m 174 174 l 260 174 l 260 0 l 174 0 l 174 174 m 694 174 l 781 174 l 781 0 l 694 0 l 694 174 z "},"Ŷ":{"ha":694,"x_min":0,"x_max":608,"o":"m 260 1302 l 347 1302 l 347 1215 l 260 1215 l 260 1302 m 174 1215 l 260 1215 l 260 1128 l 174 1128 l 174 1215 m 347 1215 l 434 1215 l 434 1128 l 347 1128 l 347 1215 m 0 955 l 87 955 l 87 781 l 0 781 l 0 955 m 521 955 l 608 955 l 608 781 l 521 781 l 521 955 m 87 781 l 174 781 l 174 608 l 87 608 l 87 781 m 434 781 l 521 781 l 521 608 l 434 608 l 434 781 m 174 608 l 260 608 l 260 434 l 174 434 l 174 608 m 347 608 l 434 608 l 434 434 l 347 434 l 347 608 m 260 434 l 347 434 l 347 0 l 260 0 l 260 434 z "},"ŷ":{"ha":694,"x_min":0,"x_max":608,"o":"m 260 1042 l 347 1042 l 347 955 l 260 955 l 260 1042 m 174 955 l 260 955 l 260 868 l 174 868 l 174 955 m 347 955 l 434 955 l 434 868 l 347 868 l 347 955 m 0 694 l 87 694 l 87 521 l 0 521 l 0 694 m 521 694 l 608 694 l 608 521 l 521 521 l 521 694 m 87 521 l 174 521 l 174 260 l 87 260 l 87 521 m 434 521 l 521 521 l 521 260 l 434 260 l 434 521 m 174 260 l 260 260 l 260 87 l 174 87 l 174 260 m 347 260 l 434 260 l 434 87 l 347 87 l 347 260 m 260 87 l 347 87 l 347 -87 l 260 -87 l 260 87 m 174 -87 l 260 -87 l 260 -174 l 174 -174 l 174 -87 m 0 -174 l 174 -174 l 174 -260 l 0 -260 l 0 -174 z "},"Ÿ":{"ha":694,"x_min":0,"x_max":608,"o":"m 174 1215 l 260 1215 l 260 1128 l 174 1128 l 174 1215 m 347 1215 l 434 1215 l 434 1128 l 347 1128 l 347 1215 m 0 955 l 87 955 l 87 781 l 0 781 l 0 955 m 521 955 l 608 955 l 608 781 l 521 781 l 521 955 m 87 781 l 174 781 l 174 608 l 87 608 l 87 781 m 434 781 l 521 781 l 521 608 l 434 608 l 434 781 m 174 608 l 260 608 l 260 434 l 174 434 l 174 608 m 347 608 l 434 608 l 434 434 l 347 434 l 347 608 m 260 434 l 347 434 l 347 0 l 260 0 l 260 434 z "},"Ź":{"ha":694,"x_min":0,"x_max":608,"o":"m 347 1302 l 434 1302 l 434 1215 l 347 1215 l 347 1302 m 260 1215 l 347 1215 l 347 1128 l 260 1128 l 260 1215 m 0 955 l 608 955 l 608 781 l 521 781 l 521 868 l 0 868 l 0 955 m 434 781 l 521 781 l 521 694 l 434 694 l 434 781 m 347 694 l 434 694 l 434 521 l 347 521 l 347 694 m 260 521 l 347 521 l 347 434 l 260 434 l 260 521 m 174 434 l 260 434 l 260 260 l 174 260 l 174 434 m 87 260 l 174 260 l 174 174 l 87 174 l 87 260 m 608 87 l 608 0 l 0 0 l 0 174 l 87 174 l 87 87 l 608 87 z "},"ź":{"ha":608,"x_min":0,"x_max":521,"o":"m 260 1042 l 347 1042 l 347 955 l 260 955 l 260 1042 m 174 955 l 260 955 l 260 868 l 174 868 l 174 955 m 521 694 l 521 521 l 434 521 l 434 608 l 0 608 l 0 694 l 521 694 m 347 521 l 434 521 l 434 434 l 347 434 l 347 521 m 260 434 l 347 434 l 347 347 l 260 347 l 260 434 m 174 347 l 260 347 l 260 260 l 174 260 l 174 347 m 87 260 l 174 260 l 174 174 l 87 174 l 87 260 m 521 87 l 521 0 l 0 0 l 0 174 l 87 174 l 87 87 l 521 87 z "},"Ż":{"ha":694,"x_min":0,"x_max":608,"o":"m 260 1215 l 347 1215 l 347 1128 l 260 1128 l 260 1215 m 0 955 l 608 955 l 608 781 l 521 781 l 521 868 l 0 868 l 0 955 m 434 781 l 521 781 l 521 694 l 434 694 l 434 781 m 347 694 l 434 694 l 434 521 l 347 521 l 347 694 m 260 521 l 347 521 l 347 434 l 260 434 l 260 521 m 174 434 l 260 434 l 260 260 l 174 260 l 174 434 m 87 260 l 174 260 l 174 174 l 87 174 l 87 260 m 608 87 l 608 0 l 0 0 l 0 174 l 87 174 l 87 87 l 608 87 z "},"ż":{"ha":608,"x_min":0,"x_max":521,"o":"m 260 955 l 347 955 l 347 868 l 260 868 l 260 955 m 521 694 l 521 521 l 434 521 l 434 608 l 0 608 l 0 694 l 521 694 m 347 521 l 434 521 l 434 434 l 347 434 l 347 521 m 260 434 l 347 434 l 347 347 l 260 347 l 260 434 m 174 347 l 260 347 l 260 260 l 174 260 l 174 347 m 87 260 l 174 260 l 174 174 l 87 174 l 87 260 m 521 87 l 521 0 l 0 0 l 0 174 l 87 174 l 87 87 l 521 87 z "},"Ž":{"ha":694,"x_min":0,"x_max":608,"o":"m 174 1302 l 260 1302 l 260 1215 l 174 1215 l 174 1302 m 347 1302 l 434 1302 l 434 1215 l 347 1215 l 347 1302 m 260 1215 l 347 1215 l 347 1128 l 260 1128 l 260 1215 m 0 955 l 608 955 l 608 781 l 521 781 l 521 868 l 0 868 l 0 955 m 434 781 l 521 781 l 521 694 l 434 694 l 434 781 m 347 694 l 434 694 l 434 521 l 347 521 l 347 694 m 260 521 l 347 521 l 347 434 l 260 434 l 260 521 m 174 434 l 260 434 l 260 260 l 174 260 l 174 434 m 87 260 l 174 260 l 174 174 l 87 174 l 87 260 m 608 87 l 608 0 l 0 0 l 0 174 l 87 174 l 87 87 l 608 87 z "},"ž":{"ha":608,"x_min":0,"x_max":521,"o":"m 87 1042 l 174 1042 l 174 955 l 87 955 l 87 1042 m 347 1042 l 434 1042 l 434 955 l 347 955 l 347 1042 m 347 868 l 174 868 l 174 955 l 347 955 l 347 868 m 521 694 l 521 521 l 434 521 l 434 608 l 0 608 l 0 694 l 521 694 m 347 521 l 434 521 l 434 434 l 347 434 l 347 521 m 260 434 l 347 434 l 347 347 l 260 347 l 260 434 m 174 347 l 260 347 l 260 260 l 174 260 l 174 347 m 87 260 l 174 260 l 174 174 l 87 174 l 87 260 m 521 87 l 521 0 l 0 0 l 0 174 l 87 174 l 87 87 l 521 87 z "},"ƒ":{"ha":694,"x_min":0,"x_max":608,"o":"m 608 868 l 347 868 l 347 955 l 608 955 l 608 868 m 0 694 l 260 694 l 260 868 l 347 868 l 347 694 l 608 694 l 608 608 l 347 608 l 347 -174 l 260 -174 l 260 608 l 0 608 l 0 694 m 260 -260 l 0 -260 l 0 -174 l 260 -174 l 260 -260 z "},"Ǎ":{"ha":694,"x_min":0,"x_max":608,"o":"m 174 1302 l 260 1302 l 260 1215 l 174 1215 l 174 1302 m 347 1302 l 434 1302 l 434 1215 l 347 1215 l 347 1302 m 260 1215 l 347 1215 l 347 1128 l 260 1128 l 260 1215 m 260 955 l 347 955 l 347 781 l 260 781 l 260 955 m 174 781 l 260 781 l 260 521 l 174 521 l 174 781 m 347 781 l 434 781 l 434 521 l 347 521 l 347 781 m 434 347 l 434 521 l 521 521 l 521 260 l 87 260 l 87 521 l 174 521 l 174 347 l 434 347 m 0 260 l 87 260 l 87 0 l 0 0 l 0 260 m 521 260 l 608 260 l 608 0 l 521 0 l 521 260 z "},"ǎ":{"ha":608,"x_min":0,"x_max":521,"o":"m 87 1042 l 174 1042 l 174 955 l 87 955 l 87 1042 m 347 1042 l 434 1042 l 434 955 l 347 955 l 347 1042 m 347 868 l 174 868 l 174 955 l 347 955 l 347 868 m 434 608 l 87 608 l 87 694 l 434 694 l 434 608 m 0 347 l 87 347 l 87 87 l 0 87 l 0 347 m 434 347 l 87 347 l 87 434 l 434 434 l 434 608 l 521 608 l 521 0 l 87 0 l 87 87 l 434 87 l 434 347 z "},"Ǐ":{"ha":347,"x_min":0,"x_max":260,"o":"m 0 1302 l 87 1302 l 87 1215 l 0 1215 l 0 1302 m 174 1302 l 260 1302 l 260 1215 l 174 1215 l 174 1302 m 87 1215 l 174 1215 l 174 1128 l 87 1128 l 87 1215 m 87 868 l 0 868 l 0 955 l 260 955 l 260 868 l 174 868 l 174 87 l 260 87 l 260 0 l 0 0 l 0 87 l 87 87 l 87 868 z "},"ǐ":{"ha":347,"x_min":0,"x_max":260,"o":"m 0 1042 l 87 1042 l 87 955 l 0 955 l 0 1042 m 174 1042 l 260 1042 l 260 955 l 174 955 l 174 1042 m 87 955 l 174 955 l 174 868 l 87 868 l 87 955 m 87 608 l 0 608 l 0 694 l 174 694 l 174 87 l 260 87 l 260 0 l 0 0 l 0 87 l 87 87 l 87 608 z "},"Ǒ":{"ha":694,"x_min":0,"x_max":608,"o":"m 174 1302 l 260 1302 l 260 1215 l 174 1215 l 174 1302 m 347 1302 l 434 1302 l 434 1215 l 347 1215 l 347 1302 m 260 1215 l 347 1215 l 347 1128 l 260 1128 l 260 1215 m 434 955 l 434 868 l 174 868 l 174 955 l 434 955 m 87 868 l 174 868 l 174 781 l 87 781 l 87 868 m 434 868 l 521 868 l 521 781 l 434 781 l 434 868 m 0 781 l 87 781 l 87 174 l 0 174 l 0 781 m 521 781 l 608 781 l 608 174 l 521 174 l 521 781 m 87 174 l 174 174 l 174 87 l 87 87 l 87 174 m 434 174 l 521 174 l 521 87 l 434 87 l 434 174 m 434 0 l 174 0 l 174 87 l 434 87 l 434 0 z "},"ǒ":{"ha":608,"x_min":0,"x_max":521,"o":"m 87 1042 l 174 1042 l 174 955 l 87 955 l 87 1042 m 347 1042 l 434 1042 l 434 955 l 347 955 l 347 1042 m 347 868 l 174 868 l 174 955 l 347 955 l 347 868 m 434 608 l 87 608 l 87 694 l 434 694 l 434 608 m 0 608 l 87 608 l 87 87 l 0 87 l 0 608 m 434 608 l 521 608 l 521 87 l 434 87 l 434 608 m 87 87 l 434 87 l 434 0 l 87 0 l 87 87 z "},"Ǔ":{"ha":694,"x_min":0,"x_max":608,"o":"m 174 1302 l 260 1302 l 260 1215 l 174 1215 l 174 1302 m 347 1302 l 434 1302 l 434 1215 l 347 1215 l 347 1302 m 260 1215 l 347 1215 l 347 1128 l 260 1128 l 260 1215 m 0 955 l 87 955 l 87 174 l 0 174 l 0 955 m 521 955 l 608 955 l 608 174 l 521 174 l 521 955 m 87 174 l 174 174 l 174 87 l 87 87 l 87 174 m 434 174 l 521 174 l 521 87 l 434 87 l 434 174 m 434 0 l 174 0 l 174 87 l 434 87 l 434 0 z "},"ǔ":{"ha":608,"x_min":0,"x_max":521,"o":"m 87 1042 l 174 1042 l 174 955 l 87 955 l 87 1042 m 347 1042 l 434 1042 l 434 955 l 347 955 l 347 1042 m 347 868 l 174 868 l 174 955 l 347 955 l 347 868 m 0 694 l 87 694 l 87 87 l 0 87 l 0 694 m 87 87 l 347 87 l 347 0 l 87 0 l 87 87 m 434 694 l 521 694 l 521 0 l 434 0 l 434 87 l 347 87 l 347 174 l 434 174 l 434 694 z "},"Ǖ":{"ha":694,"x_min":0,"x_max":608,"o":"m 174 1302 l 434 1302 l 434 1215 l 174 1215 l 174 1302 m 174 1128 l 260 1128 l 260 1042 l 174 1042 l 174 1128 m 347 1128 l 434 1128 l 434 1042 l 347 1042 l 347 1128 m 0 955 l 87 955 l 87 174 l 0 174 l 0 955 m 521 955 l 608 955 l 608 174 l 521 174 l 521 955 m 87 174 l 174 174 l 174 87 l 87 87 l 87 174 m 434 174 l 521 174 l 521 87 l 434 87 l 434 174 m 434 0 l 174 0 l 174 87 l 434 87 l 434 0 z "},"ǖ":{"ha":608,"x_min":0,"x_max":521,"o":"m 87 1042 l 434 1042 l 434 955 l 87 955 l 87 1042 m 87 868 l 174 868 l 174 781 l 87 781 l 87 868 m 347 868 l 434 868 l 434 781 l 347 781 l 347 868 m 0 694 l 87 694 l 87 87 l 0 87 l 0 694 m 87 87 l 347 87 l 347 0 l 87 0 l 87 87 m 434 694 l 521 694 l 521 0 l 434 0 l 434 87 l 347 87 l 347 174 l 434 174 l 434 694 z "},"Ǘ":{"ha":694,"x_min":0,"x_max":608,"o":"m 347 1389 l 434 1389 l 434 1302 l 347 1302 l 347 1389 m 260 1302 l 347 1302 l 347 1215 l 260 1215 l 260 1302 m 174 1128 l 260 1128 l 260 1042 l 174 1042 l 174 1128 m 347 1128 l 434 1128 l 434 1042 l 347 1042 l 347 1128 m 0 955 l 87 955 l 87 174 l 0 174 l 0 955 m 521 955 l 608 955 l 608 174 l 521 174 l 521 955 m 87 174 l 174 174 l 174 87 l 87 87 l 87 174 m 434 174 l 521 174 l 521 87 l 434 87 l 434 174 m 434 0 l 174 0 l 174 87 l 434 87 l 434 0 z "},"ǘ":{"ha":608,"x_min":0,"x_max":521,"o":"m 260 1128 l 347 1128 l 347 1042 l 260 1042 l 260 1128 m 174 1042 l 260 1042 l 260 955 l 174 955 l 174 1042 m 87 868 l 174 868 l 174 781 l 87 781 l 87 868 m 347 868 l 434 868 l 434 781 l 347 781 l 347 868 m 0 694 l 87 694 l 87 87 l 0 87 l 0 694 m 87 87 l 347 87 l 347 0 l 87 0 l 87 87 m 434 694 l 521 694 l 521 0 l 434 0 l 434 87 l 347 87 l 347 174 l 434 174 l 434 694 z "},"Ǚ":{"ha":694,"x_min":0,"x_max":608,"o":"m 174 1389 l 260 1389 l 260 1302 l 174 1302 l 174 1389 m 347 1389 l 434 1389 l 434 1302 l 347 1302 l 347 1389 m 260 1302 l 347 1302 l 347 1215 l 260 1215 l 260 1302 m 174 1128 l 260 1128 l 260 1042 l 174 1042 l 174 1128 m 347 1128 l 434 1128 l 434 1042 l 347 1042 l 347 1128 m 0 955 l 87 955 l 87 174 l 0 174 l 0 955 m 521 955 l 608 955 l 608 174 l 521 174 l 521 955 m 87 174 l 174 174 l 174 87 l 87 87 l 87 174 m 434 174 l 521 174 l 521 87 l 434 87 l 434 174 m 434 0 l 174 0 l 174 87 l 434 87 l 434 0 z "},"ǚ":{"ha":608,"x_min":0,"x_max":521,"o":"m 87 1128 l 174 1128 l 174 1042 l 87 1042 l 87 1128 m 347 1128 l 434 1128 l 434 1042 l 347 1042 l 347 1128 m 174 1042 l 347 1042 l 347 955 l 174 955 l 174 1042 m 87 868 l 174 868 l 174 781 l 87 781 l 87 868 m 347 868 l 434 868 l 434 781 l 347 781 l 347 868 m 0 694 l 87 694 l 87 87 l 0 87 l 0 694 m 87 87 l 347 87 l 347 0 l 87 0 l 87 87 m 434 694 l 521 694 l 521 0 l 434 0 l 434 87 l 347 87 l 347 174 l 434 174 l 434 694 z "},"Ǜ":{"ha":694,"x_min":0,"x_max":608,"o":"m 174 1389 l 260 1389 l 260 1302 l 174 1302 l 174 1389 m 260 1302 l 347 1302 l 347 1215 l 260 1215 l 260 1302 m 174 1128 l 260 1128 l 260 1042 l 174 1042 l 174 1128 m 347 1128 l 434 1128 l 434 1042 l 347 1042 l 347 1128 m 0 955 l 87 955 l 87 174 l 0 174 l 0 955 m 521 955 l 608 955 l 608 174 l 521 174 l 521 955 m 87 174 l 174 174 l 174 87 l 87 87 l 87 174 m 434 174 l 521 174 l 521 87 l 434 87 l 434 174 m 434 0 l 174 0 l 174 87 l 434 87 l 434 0 z "},"ǜ":{"ha":608,"x_min":0,"x_max":521,"o":"m 174 1128 l 260 1128 l 260 1042 l 174 1042 l 174 1128 m 260 1042 l 347 1042 l 347 955 l 260 955 l 260 1042 m 87 868 l 174 868 l 174 781 l 87 781 l 87 868 m 347 868 l 434 868 l 434 781 l 347 781 l 347 868 m 0 694 l 87 694 l 87 87 l 0 87 l 0 694 m 87 87 l 347 87 l 347 0 l 87 0 l 87 87 m 434 694 l 521 694 l 521 0 l 434 0 l 434 87 l 347 87 l 347 174 l 434 174 l 434 694 z "},"ǝ":{"ha":608,"x_min":0,"x_max":521,"o":"m 434 608 l 87 608 l 87 694 l 434 694 l 434 608 m 0 608 l 87 608 l 87 521 l 0 521 l 0 608 m 434 347 l 434 608 l 521 608 l 521 87 l 434 87 l 434 260 l 87 260 l 87 87 l 0 87 l 0 347 l 434 347 m 87 87 l 434 87 l 434 0 l 87 0 l 87 87 z "},"Ǟ":{"ha":694,"x_min":0,"x_max":608,"o":"m 174 1302 l 434 1302 l 434 1215 l 174 1215 l 174 1302 m 174 1128 l 260 1128 l 260 1042 l 174 1042 l 174 1128 m 347 1128 l 434 1128 l 434 1042 l 347 1042 l 347 1128 m 260 955 l 347 955 l 347 781 l 260 781 l 260 955 m 174 781 l 260 781 l 260 521 l 174 521 l 174 781 m 347 781 l 434 781 l 434 521 l 347 521 l 347 781 m 434 347 l 434 521 l 521 521 l 521 260 l 87 260 l 87 521 l 174 521 l 174 347 l 434 347 m 0 260 l 87 260 l 87 0 l 0 0 l 0 260 m 521 260 l 608 260 l 608 0 l 521 0 l 521 260 z "},"ǟ":{"ha":608,"x_min":0,"x_max":521,"o":"m 87 1042 l 434 1042 l 434 955 l 87 955 l 87 1042 m 87 868 l 174 868 l 174 781 l 87 781 l 87 868 m 347 868 l 434 868 l 434 781 l 347 781 l 347 868 m 434 608 l 87 608 l 87 694 l 434 694 l 434 608 m 0 347 l 87 347 l 87 87 l 0 87 l 0 347 m 434 347 l 87 347 l 87 434 l 434 434 l 434 608 l 521 608 l 521 0 l 87 0 l 87 87 l 434 87 l 434 347 z "},"Ǡ":{"ha":694,"x_min":0,"x_max":608,"o":"m 174 1302 l 434 1302 l 434 1215 l 174 1215 l 174 1302 m 260 1128 l 347 1128 l 347 1042 l 260 1042 l 260 1128 m 260 955 l 347 955 l 347 781 l 260 781 l 260 955 m 174 781 l 260 781 l 260 521 l 174 521 l 174 781 m 347 781 l 434 781 l 434 521 l 347 521 l 347 781 m 434 347 l 434 521 l 521 521 l 521 260 l 87 260 l 87 521 l 174 521 l 174 347 l 434 347 m 0 260 l 87 260 l 87 0 l 0 0 l 0 260 m 521 260 l 608 260 l 608 0 l 521 0 l 521 260 z "},"ǡ":{"ha":608,"x_min":0,"x_max":521,"o":"m 87 1042 l 434 1042 l 434 955 l 87 955 l 87 1042 m 260 868 l 347 868 l 347 781 l 260 781 l 260 868 m 434 608 l 87 608 l 87 694 l 434 694 l 434 608 m 0 347 l 87 347 l 87 87 l 0 87 l 0 347 m 434 347 l 87 347 l 87 434 l 434 434 l 434 608 l 521 608 l 521 0 l 87 0 l 87 87 l 434 87 l 434 347 z "},"Ǣ":{"ha":1042,"x_min":0,"x_max":955,"o":"m 694 1215 l 694 1128 l 260 1128 l 260 1215 l 694 1215 m 260 781 l 347 781 l 347 608 l 260 608 l 260 781 m 174 608 l 260 608 l 260 434 l 174 434 l 174 608 m 0 260 l 87 260 l 87 0 l 0 0 l 0 260 m 868 521 l 868 434 l 521 434 l 521 87 l 955 87 l 955 0 l 434 0 l 434 260 l 87 260 l 87 434 l 174 434 l 174 347 l 434 347 l 434 781 l 347 781 l 347 955 l 955 955 l 955 868 l 521 868 l 521 521 l 868 521 z "},"ǣ":{"ha":1042,"x_min":0,"x_max":955,"o":"m 608 868 l 347 868 l 347 955 l 608 955 l 608 868 m 434 608 l 87 608 l 87 694 l 434 694 l 434 608 m 868 608 l 521 608 l 521 694 l 868 694 l 868 608 m 0 347 l 87 347 l 87 87 l 0 87 l 0 347 m 434 347 l 87 347 l 87 434 l 434 434 l 434 608 l 521 608 l 521 434 l 868 434 l 868 608 l 955 608 l 955 347 l 521 347 l 521 87 l 434 87 l 434 347 m 868 174 l 955 174 l 955 87 l 868 87 l 868 174 m 87 87 l 434 87 l 434 0 l 87 0 l 87 87 m 868 0 l 521 0 l 521 87 l 868 87 l 868 0 z "},"Ǹ":{"ha":694,"x_min":0,"x_max":608,"o":"m 174 1302 l 260 1302 l 260 1215 l 174 1215 l 174 1302 m 260 1215 l 347 1215 l 347 1128 l 260 1128 l 260 1215 m 174 694 l 260 694 l 260 521 l 174 521 l 174 694 m 260 521 l 347 521 l 347 434 l 260 434 l 260 521 m 347 434 l 434 434 l 434 260 l 347 260 l 347 434 m 0 955 l 87 955 l 87 868 l 174 868 l 174 694 l 87 694 l 87 0 l 0 0 l 0 955 m 521 955 l 608 955 l 608 0 l 521 0 l 521 87 l 434 87 l 434 260 l 521 260 l 521 955 z "},"ǹ":{"ha":608,"x_min":0,"x_max":521,"o":"m 174 1042 l 260 1042 l 260 955 l 174 955 l 174 1042 m 260 955 l 347 955 l 347 868 l 260 868 l 260 955 m 434 608 l 174 608 l 174 694 l 434 694 l 434 608 m 0 694 l 87 694 l 87 608 l 174 608 l 174 521 l 87 521 l 87 0 l 0 0 l 0 694 m 434 608 l 521 608 l 521 0 l 434 0 l 434 608 z "},"Ǽ":{"ha":1042,"x_min":0,"x_max":955,"o":"m 521 1302 l 608 1302 l 608 1215 l 521 1215 l 521 1302 m 434 1215 l 521 1215 l 521 1128 l 434 1128 l 434 1215 m 260 868 l 347 868 l 347 608 l 260 608 l 260 868 m 87 347 l 174 347 l 174 174 l 87 174 l 87 347 m 0 174 l 87 174 l 87 0 l 0 0 l 0 174 m 868 521 l 868 434 l 521 434 l 521 87 l 955 87 l 955 0 l 434 0 l 434 347 l 174 347 l 174 608 l 260 608 l 260 434 l 434 434 l 434 868 l 347 868 l 347 955 l 955 955 l 955 868 l 521 868 l 521 521 l 868 521 z "},"ǽ":{"ha":1042,"x_min":0,"x_max":955,"o":"m 521 1042 l 608 1042 l 608 955 l 521 955 l 521 1042 m 434 955 l 521 955 l 521 868 l 434 868 l 434 955 m 434 608 l 87 608 l 87 694 l 434 694 l 434 608 m 868 608 l 521 608 l 521 694 l 868 694 l 868 608 m 0 347 l 87 347 l 87 87 l 0 87 l 0 347 m 434 347 l 87 347 l 87 434 l 434 434 l 434 608 l 521 608 l 521 434 l 868 434 l 868 608 l 955 608 l 955 347 l 521 347 l 521 87 l 434 87 l 434 347 m 868 174 l 955 174 l 955 87 l 868 87 l 868 174 m 87 87 l 434 87 l 434 0 l 87 0 l 87 87 m 868 0 l 521 0 l 521 87 l 868 87 l 868 0 z "},"Ȟ":{"ha":694,"x_min":0,"x_max":608,"o":"m 174 1302 l 260 1302 l 260 1215 l 174 1215 l 174 1302 m 347 1302 l 434 1302 l 434 1215 l 347 1215 l 347 1302 m 260 1215 l 347 1215 l 347 1128 l 260 1128 l 260 1215 m 608 0 l 521 0 l 521 434 l 87 434 l 87 0 l 0 0 l 0 955 l 87 955 l 87 521 l 521 521 l 521 955 l 608 955 l 608 0 z "},"ȟ":{"ha":608,"x_min":0,"x_max":521,"o":"m 87 1302 l 174 1302 l 174 1215 l 87 1215 l 87 1302 m 347 1302 l 434 1302 l 434 1215 l 347 1215 l 347 1302 m 174 1215 l 347 1215 l 347 1128 l 174 1128 l 174 1215 m 434 608 l 174 608 l 174 694 l 434 694 l 434 608 m 0 955 l 87 955 l 87 608 l 174 608 l 174 521 l 87 521 l 87 0 l 0 0 l 0 955 m 434 608 l 521 608 l 521 0 l 434 0 l 434 608 z "},"Ȳ":{"ha":694,"x_min":0,"x_max":608,"o":"m 434 1128 l 174 1128 l 174 1215 l 434 1215 l 434 1128 m 0 955 l 87 955 l 87 781 l 0 781 l 0 955 m 521 955 l 608 955 l 608 781 l 521 781 l 521 955 m 87 781 l 174 781 l 174 608 l 87 608 l 87 781 m 434 781 l 521 781 l 521 608 l 434 608 l 434 781 m 174 608 l 260 608 l 260 434 l 174 434 l 174 608 m 347 608 l 434 608 l 434 434 l 347 434 l 347 608 m 260 434 l 347 434 l 347 0 l 260 0 l 260 434 z "},"ȳ":{"ha":694,"x_min":0,"x_max":608,"o":"m 434 955 l 434 868 l 174 868 l 174 955 l 434 955 m 0 694 l 87 694 l 87 521 l 0 521 l 0 694 m 521 694 l 608 694 l 608 521 l 521 521 l 521 694 m 87 521 l 174 521 l 174 347 l 87 347 l 87 521 m 434 521 l 521 521 l 521 347 l 434 347 l 434 521 m 174 347 l 260 347 l 260 87 l 174 87 l 174 347 m 347 347 l 434 347 l 434 87 l 347 87 l 347 347 m 260 87 l 347 87 l 347 -87 l 260 -87 l 260 87 m 174 -87 l 260 -87 l 260 -174 l 174 -174 l 174 -87 m 0 -174 l 174 -174 l 174 -260 l 0 -260 l 0 -174 z "},"΄":{"ha":434,"x_min":87,"x_max":260,"o":"m 174 1128 l 260 1128 l 260 1042 l 174 1042 l 174 1128 m 87 1042 l 174 1042 l 174 955 l 87 955 l 87 1042 z "},"΅":{"ha":608,"x_min":87,"x_max":434,"o":"m 260 1128 l 347 1128 l 347 1042 l 260 1042 l 260 1128 m 174 1042 l 260 1042 l 260 955 l 174 955 l 174 1042 m 87 868 l 174 868 l 174 781 l 87 781 l 87 868 m 347 868 l 434 868 l 434 781 l 347 781 l 347 868 z "},"Ά":{"ha":694,"x_min":0,"x_max":608,"o":"m 87 1302 l 174 1302 l 174 1215 l 87 1215 l 87 1302 m 0 1215 l 87 1215 l 87 1128 l 0 1128 l 0 1215 m 260 955 l 347 955 l 347 781 l 260 781 l 260 955 m 174 781 l 260 781 l 260 521 l 174 521 l 174 781 m 347 781 l 434 781 l 434 521 l 347 521 l 347 781 m 434 347 l 434 521 l 521 521 l 521 260 l 87 260 l 87 521 l 174 521 l 174 347 l 434 347 m 0 260 l 87 260 l 87 0 l 0 0 l 0 260 m 521 260 l 608 260 l 608 0 l 521 0 l 521 260 z "},"Έ":{"ha":694,"x_min":0,"x_max":608,"o":"m 87 1302 l 174 1302 l 174 1215 l 87 1215 l 87 1302 m 0 1215 l 87 1215 l 87 1128 l 0 1128 l 0 1215 m 0 955 l 608 955 l 608 868 l 87 868 l 87 521 l 521 521 l 521 434 l 87 434 l 87 87 l 608 87 l 608 0 l 0 0 l 0 955 z "},"Ή":{"ha":694,"x_min":0,"x_max":608,"o":"m 87 1302 l 174 1302 l 174 1215 l 87 1215 l 87 1302 m 0 1215 l 87 1215 l 87 1128 l 0 1128 l 0 1215 m 608 0 l 521 0 l 521 434 l 87 434 l 87 0 l 0 0 l 0 955 l 87 955 l 87 521 l 521 521 l 521 955 l 608 955 l 608 0 z "},"Ί":{"ha":347,"x_min":0,"x_max":260,"o":"m 87 1302 l 174 1302 l 174 1215 l 87 1215 l 87 1302 m 0 1215 l 87 1215 l 87 1128 l 0 1128 l 0 1215 m 87 868 l 0 868 l 0 955 l 260 955 l 260 868 l 174 868 l 174 87 l 260 87 l 260 0 l 0 0 l 0 87 l 87 87 l 87 868 z "},"Ό":{"ha":694,"x_min":0,"x_max":608,"o":"m 87 1302 l 174 1302 l 174 1215 l 87 1215 l 87 1302 m 0 1215 l 87 1215 l 87 1128 l 0 1128 l 0 1215 m 434 955 l 434 868 l 174 868 l 174 955 l 434 955 m 87 868 l 174 868 l 174 781 l 87 781 l 87 868 m 434 868 l 521 868 l 521 781 l 434 781 l 434 868 m 0 781 l 87 781 l 87 174 l 0 174 l 0 781 m 521 781 l 608 781 l 608 174 l 521 174 l 521 781 m 87 174 l 174 174 l 174 87 l 87 87 l 87 174 m 434 174 l 521 174 l 521 87 l 434 87 l 434 174 m 434 0 l 174 0 l 174 87 l 434 87 l 434 0 z "},"Ύ":{"ha":694,"x_min":0,"x_max":608,"o":"m 87 1302 l 174 1302 l 174 1215 l 87 1215 l 87 1302 m 0 1215 l 87 1215 l 87 1128 l 0 1128 l 0 1215 m 0 955 l 87 955 l 87 781 l 0 781 l 0 955 m 521 955 l 608 955 l 608 781 l 521 781 l 521 955 m 87 781 l 174 781 l 174 608 l 87 608 l 87 781 m 434 781 l 521 781 l 521 608 l 434 608 l 434 781 m 174 608 l 260 608 l 260 434 l 174 434 l 174 608 m 347 608 l 434 608 l 434 434 l 347 434 l 347 608 m 260 434 l 347 434 l 347 0 l 260 0 l 260 434 z "},"Ώ":{"ha":781,"x_min":0,"x_max":694,"o":"m 87 1302 l 174 1302 l 174 1215 l 87 1215 l 87 1302 m 0 1215 l 87 1215 l 87 1128 l 0 1128 l 0 1215 m 521 955 l 521 868 l 174 868 l 174 955 l 521 955 m 87 868 l 174 868 l 174 781 l 87 781 l 87 868 m 521 868 l 608 868 l 608 781 l 521 781 l 521 868 m 0 781 l 87 781 l 87 260 l 0 260 l 0 781 m 608 781 l 694 781 l 694 260 l 608 260 l 608 781 m 87 260 l 174 260 l 174 174 l 87 174 l 87 260 m 521 260 l 608 260 l 608 174 l 521 174 l 521 260 m 174 87 l 174 174 l 260 174 l 260 0 l 0 0 l 0 87 l 174 87 m 694 0 l 434 0 l 434 174 l 521 174 l 521 87 l 694 87 l 694 0 z "},"ΐ":{"ha":347,"x_min":0,"x_max":260,"o":"m 174 1128 l 260 1128 l 260 1042 l 174 1042 l 174 1128 m 87 1042 l 174 1042 l 174 955 l 87 955 l 87 1042 m 0 868 l 87 868 l 87 781 l 0 781 l 0 868 m 174 868 l 260 868 l 260 781 l 174 781 l 174 868 m 87 521 l 0 521 l 0 608 l 87 608 l 87 694 l 174 694 l 174 87 l 87 87 l 87 521 m 174 87 l 260 87 l 260 0 l 174 0 l 174 87 z "},"Α":{"ha":694,"x_min":0,"x_max":608,"o":"m 260 955 l 347 955 l 347 781 l 260 781 l 260 955 m 174 781 l 260 781 l 260 521 l 174 521 l 174 781 m 347 781 l 434 781 l 434 521 l 347 521 l 347 781 m 434 347 l 434 521 l 521 521 l 521 260 l 87 260 l 87 521 l 174 521 l 174 347 l 434 347 m 0 260 l 87 260 l 87 0 l 0 0 l 0 260 m 521 260 l 608 260 l 608 0 l 521 0 l 521 260 z "},"Β":{"ha":694,"x_min":0,"x_max":608,"o":"m 434 868 l 521 868 l 521 781 l 434 781 l 434 868 m 521 781 l 608 781 l 608 608 l 521 608 l 521 781 m 434 608 l 521 608 l 521 521 l 434 521 l 434 608 m 434 434 l 521 434 l 521 347 l 434 347 l 434 434 m 521 347 l 608 347 l 608 174 l 521 174 l 521 347 m 434 174 l 521 174 l 521 87 l 434 87 l 434 174 m 0 955 l 434 955 l 434 868 l 87 868 l 87 521 l 434 521 l 434 434 l 87 434 l 87 87 l 434 87 l 434 0 l 0 0 l 0 955 z "},"Γ":{"ha":608,"x_min":0,"x_max":521,"o":"m 0 955 l 521 955 l 521 868 l 87 868 l 87 0 l 0 0 l 0 955 z "},"Δ":{"ha":694,"x_min":0,"x_max":608,"o":"m 260 955 l 347 955 l 347 781 l 260 781 l 260 955 m 174 781 l 260 781 l 260 521 l 174 521 l 174 781 m 347 781 l 434 781 l 434 521 l 347 521 l 347 781 m 87 521 l 174 521 l 174 260 l 87 260 l 87 521 m 434 521 l 521 521 l 521 260 l 434 260 l 434 521 m 521 87 l 521 260 l 608 260 l 608 0 l 0 0 l 0 260 l 87 260 l 87 87 l 521 87 z "},"Ε":{"ha":694,"x_min":0,"x_max":608,"o":"m 0 955 l 608 955 l 608 868 l 87 868 l 87 521 l 521 521 l 521 434 l 87 434 l 87 87 l 608 87 l 608 0 l 0 0 l 0 955 z "},"Ζ":{"ha":694,"x_min":0,"x_max":608,"o":"m 0 955 l 608 955 l 608 781 l 521 781 l 521 868 l 0 868 l 0 955 m 434 781 l 521 781 l 521 694 l 434 694 l 434 781 m 347 694 l 434 694 l 434 521 l 347 521 l 347 694 m 260 521 l 347 521 l 347 434 l 260 434 l 260 521 m 174 434 l 260 434 l 260 260 l 174 260 l 174 434 m 87 260 l 174 260 l 174 174 l 87 174 l 87 260 m 608 87 l 608 0 l 0 0 l 0 174 l 87 174 l 87 87 l 608 87 z "},"Η":{"ha":694,"x_min":0,"x_max":608,"o":"m 608 0 l 521 0 l 521 434 l 87 434 l 87 0 l 0 0 l 0 955 l 87 955 l 87 521 l 521 521 l 521 955 l 608 955 l 608 0 z "},"Θ":{"ha":694,"x_min":0,"x_max":608,"o":"m 434 955 l 434 868 l 174 868 l 174 955 l 434 955 m 87 868 l 174 868 l 174 781 l 87 781 l 87 868 m 434 868 l 521 868 l 521 781 l 434 781 l 434 868 m 434 521 l 434 434 l 174 434 l 174 521 l 434 521 m 0 781 l 87 781 l 87 174 l 0 174 l 0 781 m 521 781 l 608 781 l 608 174 l 521 174 l 521 781 m 87 174 l 174 174 l 174 87 l 87 87 l 87 174 m 434 174 l 521 174 l 521 87 l 434 87 l 434 174 m 434 0 l 174 0 l 174 87 l 434 87 l 434 0 z "},"Ι":{"ha":347,"x_min":0,"x_max":260,"o":"m 87 868 l 0 868 l 0 955 l 260 955 l 260 868 l 174 868 l 174 87 l 260 87 l 260 0 l 0 0 l 0 87 l 87 87 l 87 868 z "},"Κ":{"ha":694,"x_min":0,"x_max":608,"o":"m 521 955 l 608 955 l 608 868 l 521 868 l 521 955 m 434 868 l 521 868 l 521 781 l 434 781 l 434 868 m 347 781 l 434 781 l 434 694 l 347 694 l 347 781 m 260 694 l 347 694 l 347 608 l 260 608 l 260 694 m 174 608 l 260 608 l 260 521 l 174 521 l 174 608 m 174 434 l 260 434 l 260 347 l 174 347 l 174 434 m 260 347 l 347 347 l 347 260 l 260 260 l 260 347 m 347 260 l 434 260 l 434 174 l 347 174 l 347 260 m 434 174 l 521 174 l 521 87 l 434 87 l 434 174 m 174 434 l 87 434 l 87 0 l 0 0 l 0 955 l 87 955 l 87 521 l 174 521 l 174 434 m 521 87 l 608 87 l 608 0 l 521 0 l 521 87 z "},"Λ":{"ha":694,"x_min":0,"x_max":608,"o":"m 260 955 l 347 955 l 347 781 l 260 781 l 260 955 m 174 781 l 260 781 l 260 521 l 174 521 l 174 781 m 347 781 l 434 781 l 434 521 l 347 521 l 347 781 m 87 521 l 174 521 l 174 260 l 87 260 l 87 521 m 434 521 l 521 521 l 521 260 l 434 260 l 434 521 m 0 260 l 87 260 l 87 0 l 0 0 l 0 260 m 521 260 l 608 260 l 608 0 l 521 0 l 521 260 z "},"Μ":{"ha":1042,"x_min":0,"x_max":955,"o":"m 174 694 l 260 694 l 260 521 l 174 521 l 174 694 m 694 694 l 781 694 l 781 521 l 694 521 l 694 694 m 260 521 l 347 521 l 347 347 l 260 347 l 260 521 m 608 521 l 694 521 l 694 347 l 608 347 l 608 521 m 347 347 l 434 347 l 434 174 l 347 174 l 347 347 m 521 347 l 608 347 l 608 174 l 521 174 l 521 347 m 0 955 l 87 955 l 87 868 l 174 868 l 174 694 l 87 694 l 87 0 l 0 0 l 0 955 m 434 174 l 521 174 l 521 0 l 434 0 l 434 174 m 868 694 l 781 694 l 781 868 l 868 868 l 868 955 l 955 955 l 955 0 l 868 0 l 868 694 z "},"Ν":{"ha":694,"x_min":0,"x_max":608,"o":"m 174 694 l 260 694 l 260 521 l 174 521 l 174 694 m 260 521 l 347 521 l 347 434 l 260 434 l 260 521 m 347 434 l 434 434 l 434 260 l 347 260 l 347 434 m 0 955 l 87 955 l 87 868 l 174 868 l 174 694 l 87 694 l 87 0 l 0 0 l 0 955 m 521 955 l 608 955 l 608 0 l 521 0 l 521 87 l 434 87 l 434 260 l 521 260 l 521 955 z "},"Ξ":{"ha":608,"x_min":0,"x_max":521,"o":"m 0 955 l 521 955 l 521 868 l 0 868 l 0 955 m 434 521 l 434 434 l 87 434 l 87 521 l 434 521 m 521 87 l 521 0 l 0 0 l 0 87 l 521 87 z "},"Ο":{"ha":694,"x_min":0,"x_max":608,"o":"m 434 955 l 434 868 l 174 868 l 174 955 l 434 955 m 87 868 l 174 868 l 174 781 l 87 781 l 87 868 m 434 868 l 521 868 l 521 781 l 434 781 l 434 868 m 0 781 l 87 781 l 87 174 l 0 174 l 0 781 m 521 781 l 608 781 l 608 174 l 521 174 l 521 781 m 87 174 l 174 174 l 174 87 l 87 87 l 87 174 m 434 174 l 521 174 l 521 87 l 434 87 l 434 174 m 434 0 l 174 0 l 174 87 l 434 87 l 434 0 z "},"Π":{"ha":694,"x_min":0,"x_max":608,"o":"m 521 868 l 87 868 l 87 0 l 0 0 l 0 955 l 608 955 l 608 0 l 521 0 l 521 868 z "},"Ρ":{"ha":694,"x_min":0,"x_max":608,"o":"m 521 868 l 608 868 l 608 521 l 521 521 l 521 868 m 0 955 l 521 955 l 521 868 l 87 868 l 87 521 l 521 521 l 521 434 l 87 434 l 87 0 l 0 0 l 0 955 z "},"Σ":{"ha":694,"x_min":0,"x_max":608,"o":"m 0 955 l 608 955 l 608 868 l 174 868 l 174 781 l 87 781 l 87 868 l 0 868 l 0 955 m 174 781 l 260 781 l 260 694 l 174 694 l 174 781 m 260 694 l 347 694 l 347 608 l 260 608 l 260 694 m 347 608 l 434 608 l 434 521 l 347 521 l 347 608 m 434 521 l 521 521 l 521 434 l 434 434 l 434 521 m 347 434 l 434 434 l 434 347 l 347 347 l 347 434 m 260 347 l 347 347 l 347 260 l 260 260 l 260 347 m 174 260 l 260 260 l 260 174 l 174 174 l 174 260 m 608 87 l 608 0 l 0 0 l 0 87 l 87 87 l 87 174 l 174 174 l 174 87 l 608 87 z "},"Τ":{"ha":694,"x_min":0,"x_max":608,"o":"m 0 955 l 608 955 l 608 868 l 347 868 l 347 0 l 260 0 l 260 868 l 0 868 l 0 955 z "},"Υ":{"ha":694,"x_min":0,"x_max":608,"o":"m 0 955 l 87 955 l 87 781 l 0 781 l 0 955 m 521 955 l 608 955 l 608 781 l 521 781 l 521 955 m 87 781 l 174 781 l 174 608 l 87 608 l 87 781 m 434 781 l 521 781 l 521 608 l 434 608 l 434 781 m 174 608 l 260 608 l 260 434 l 174 434 l 174 608 m 347 608 l 434 608 l 434 434 l 347 434 l 347 608 m 260 434 l 347 434 l 347 0 l 260 0 l 260 434 z "},"Φ":{"ha":1042,"x_min":0,"x_max":955,"o":"m 87 781 l 174 781 l 174 694 l 87 694 l 87 781 m 781 781 l 868 781 l 868 694 l 781 694 l 781 781 m 0 694 l 87 694 l 87 260 l 0 260 l 0 694 m 868 694 l 955 694 l 955 260 l 868 260 l 868 694 m 87 260 l 174 260 l 174 174 l 87 174 l 87 260 m 781 260 l 868 260 l 868 174 l 781 174 l 781 260 m 434 781 l 174 781 l 174 868 l 434 868 l 434 955 l 521 955 l 521 868 l 781 868 l 781 781 l 521 781 l 521 174 l 781 174 l 781 87 l 521 87 l 521 0 l 434 0 l 434 87 l 174 87 l 174 174 l 434 174 l 434 781 z "},"Χ":{"ha":694,"x_min":0,"x_max":608,"o":"m 0 955 l 87 955 l 87 781 l 0 781 l 0 955 m 521 955 l 608 955 l 608 781 l 521 781 l 521 955 m 87 781 l 174 781 l 174 608 l 87 608 l 87 781 m 434 781 l 521 781 l 521 608 l 434 608 l 434 781 m 174 608 l 260 608 l 260 521 l 174 521 l 174 608 m 347 608 l 434 608 l 434 521 l 347 521 l 347 608 m 260 521 l 347 521 l 347 434 l 260 434 l 260 521 m 174 434 l 260 434 l 260 347 l 174 347 l 174 434 m 347 434 l 434 434 l 434 347 l 347 347 l 347 434 m 87 347 l 174 347 l 174 174 l 87 174 l 87 347 m 434 347 l 521 347 l 521 174 l 434 174 l 434 347 m 0 174 l 87 174 l 87 0 l 0 0 l 0 174 m 521 174 l 608 174 l 608 0 l 521 0 l 521 174 z "},"Ψ":{"ha":1042,"x_min":0,"x_max":955,"o":"m 0 955 l 87 955 l 87 521 l 0 521 l 0 955 m 868 955 l 955 955 l 955 521 l 868 521 l 868 955 m 87 521 l 174 521 l 174 434 l 87 434 l 87 521 m 781 521 l 868 521 l 868 434 l 781 434 l 781 521 m 434 347 l 174 347 l 174 434 l 434 434 l 434 955 l 521 955 l 521 434 l 781 434 l 781 347 l 521 347 l 521 0 l 434 0 l 434 347 z "},"Ω":{"ha":781,"x_min":0,"x_max":694,"o":"m 521 955 l 521 868 l 174 868 l 174 955 l 521 955 m 87 868 l 174 868 l 174 781 l 87 781 l 87 868 m 521 868 l 608 868 l 608 781 l 521 781 l 521 868 m 0 781 l 87 781 l 87 260 l 0 260 l 0 781 m 608 781 l 694 781 l 694 260 l 608 260 l 608 781 m 87 260 l 174 260 l 174 174 l 87 174 l 87 260 m 521 260 l 608 260 l 608 174 l 521 174 l 521 260 m 174 87 l 174 174 l 260 174 l 260 0 l 0 0 l 0 87 l 174 87 m 694 0 l 434 0 l 434 174 l 521 174 l 521 87 l 694 87 l 694 0 z "},"Ϊ":{"ha":347,"x_min":0,"x_max":260,"o":"m 0 1215 l 87 1215 l 87 1128 l 0 1128 l 0 1215 m 174 1215 l 260 1215 l 260 1128 l 174 1128 l 174 1215 m 87 868 l 0 868 l 0 955 l 260 955 l 260 868 l 174 868 l 174 87 l 260 87 l 260 0 l 0 0 l 0 87 l 87 87 l 87 868 z "},"Ϋ":{"ha":694,"x_min":0,"x_max":608,"o":"m 174 1215 l 260 1215 l 260 1128 l 174 1128 l 174 1215 m 347 1215 l 434 1215 l 434 1128 l 347 1128 l 347 1215 m 0 955 l 87 955 l 87 781 l 0 781 l 0 955 m 521 955 l 608 955 l 608 781 l 521 781 l 521 955 m 87 781 l 174 781 l 174 608 l 87 608 l 87 781 m 434 781 l 521 781 l 521 608 l 434 608 l 434 781 m 174 608 l 260 608 l 260 434 l 174 434 l 174 608 m 347 608 l 434 608 l 434 434 l 347 434 l 347 608 m 260 434 l 347 434 l 347 0 l 260 0 l 260 434 z "},"ά":{"ha":608,"x_min":0,"x_max":521,"o":"m 260 1042 l 347 1042 l 347 955 l 260 955 l 260 1042 m 174 955 l 260 955 l 260 868 l 174 868 l 174 955 m 347 694 l 347 608 l 87 608 l 87 694 l 347 694 m 0 608 l 87 608 l 87 87 l 0 87 l 0 608 m 87 87 l 347 87 l 347 0 l 87 0 l 87 87 m 434 521 l 347 521 l 347 608 l 434 608 l 434 694 l 521 694 l 521 0 l 434 0 l 434 87 l 347 87 l 347 174 l 434 174 l 434 521 z "},"έ":{"ha":608,"x_min":0,"x_max":521,"o":"m 260 1042 l 347 1042 l 347 955 l 260 955 l 260 1042 m 174 955 l 260 955 l 260 868 l 174 868 l 174 955 m 434 608 l 87 608 l 87 694 l 434 694 l 434 608 m 434 608 l 521 608 l 521 521 l 434 521 l 434 608 m 0 608 l 87 608 l 87 434 l 0 434 l 0 608 m 347 347 l 87 347 l 87 434 l 347 434 l 347 347 m 0 347 l 87 347 l 87 87 l 0 87 l 0 347 m 434 174 l 521 174 l 521 87 l 434 87 l 434 174 m 87 87 l 434 87 l 434 0 l 87 0 l 87 87 z "},"ή":{"ha":608,"x_min":0,"x_max":521,"o":"m 260 1042 l 347 1042 l 347 955 l 260 955 l 260 1042 m 174 955 l 260 955 l 260 868 l 174 868 l 174 955 m 434 608 l 174 608 l 174 694 l 434 694 l 434 608 m 0 694 l 87 694 l 87 608 l 174 608 l 174 521 l 87 521 l 87 0 l 0 0 l 0 694 m 434 608 l 521 608 l 521 -260 l 434 -260 l 434 608 z "},"ί":{"ha":347,"x_min":0,"x_max":260,"o":"m 174 1042 l 260 1042 l 260 955 l 174 955 l 174 1042 m 87 955 l 174 955 l 174 868 l 87 868 l 87 955 m 87 521 l 0 521 l 0 608 l 87 608 l 87 694 l 174 694 l 174 87 l 87 87 l 87 521 m 174 87 l 260 87 l 260 0 l 174 0 l 174 87 z "},"ΰ":{"ha":608,"x_min":0,"x_max":521,"o":"m 260 1128 l 347 1128 l 347 1042 l 260 1042 l 260 1128 m 174 1042 l 260 1042 l 260 955 l 174 955 l 174 1042 m 87 868 l 174 868 l 174 781 l 87 781 l 87 868 m 347 868 l 434 868 l 434 781 l 347 781 l 347 868 m 0 694 l 87 694 l 87 87 l 0 87 l 0 694 m 434 694 l 521 694 l 521 87 l 434 87 l 434 694 m 87 87 l 434 87 l 434 0 l 87 0 l 87 87 z "},"α":{"ha":608,"x_min":0,"x_max":521,"o":"m 347 694 l 347 608 l 87 608 l 87 694 l 347 694 m 0 608 l 87 608 l 87 87 l 0 87 l 0 608 m 87 87 l 347 87 l 347 0 l 87 0 l 87 87 m 434 521 l 347 521 l 347 608 l 434 608 l 434 694 l 521 694 l 521 0 l 434 0 l 434 87 l 347 87 l 347 174 l 434 174 l 434 521 z "},"β":{"ha":608,"x_min":0,"x_max":521,"o":"m 347 868 l 87 868 l 87 955 l 347 955 l 347 868 m 347 868 l 434 868 l 434 608 l 347 608 l 347 868 m 174 608 l 347 608 l 347 521 l 174 521 l 174 608 m 347 521 l 434 521 l 434 434 l 347 434 l 347 521 m 434 434 l 521 434 l 521 87 l 434 87 l 434 434 m 434 0 l 174 0 l 174 87 l 434 87 l 434 0 m 0 868 l 87 868 l 87 174 l 174 174 l 174 87 l 87 87 l 87 -260 l 0 -260 l 0 868 z "},"γ":{"ha":694,"x_min":0,"x_max":608,"o":"m 0 694 l 87 694 l 87 608 l 0 608 l 0 694 m 521 694 l 608 694 l 608 521 l 521 521 l 521 694 m 87 608 l 174 608 l 174 434 l 87 434 l 87 608 m 434 521 l 521 521 l 521 347 l 434 347 l 434 521 m 174 434 l 260 434 l 260 174 l 174 174 l 174 434 m 347 347 l 434 347 l 434 174 l 347 174 l 347 347 m 260 174 l 347 174 l 347 0 l 260 0 l 260 174 m 174 0 l 260 0 l 260 -174 l 174 -174 l 174 0 m 87 -174 l 174 -174 l 174 -260 l 87 -260 l 87 -174 z "},"δ":{"ha":608,"x_min":0,"x_max":521,"o":"m 87 955 l 521 955 l 521 868 l 87 868 l 87 955 m 0 868 l 87 868 l 87 781 l 0 781 l 0 868 m 87 781 l 174 781 l 174 694 l 87 694 l 87 781 m 174 694 l 260 694 l 260 608 l 174 608 l 174 694 m 87 608 l 174 608 l 174 521 l 87 521 l 87 608 m 260 608 l 347 608 l 347 521 l 260 521 l 260 608 m 347 521 l 434 521 l 434 434 l 347 434 l 347 521 m 0 521 l 87 521 l 87 87 l 0 87 l 0 521 m 434 434 l 521 434 l 521 87 l 434 87 l 434 434 m 87 87 l 434 87 l 434 0 l 87 0 l 87 87 z "},"ε":{"ha":608,"x_min":0,"x_max":521,"o":"m 434 608 l 87 608 l 87 694 l 434 694 l 434 608 m 434 608 l 521 608 l 521 521 l 434 521 l 434 608 m 0 608 l 87 608 l 87 434 l 0 434 l 0 608 m 347 347 l 87 347 l 87 434 l 347 434 l 347 347 m 0 347 l 87 347 l 87 87 l 0 87 l 0 347 m 434 174 l 521 174 l 521 87 l 434 87 l 434 174 m 87 87 l 434 87 l 434 0 l 87 0 l 87 87 z "},"ζ":{"ha":608,"x_min":0,"x_max":521,"o":"m 0 955 l 521 955 l 521 868 l 434 868 l 434 781 l 347 781 l 347 868 l 0 868 l 0 955 m 260 781 l 347 781 l 347 694 l 260 694 l 260 781 m 174 694 l 260 694 l 260 608 l 174 608 l 174 694 m 87 608 l 174 608 l 174 521 l 87 521 l 87 608 m 0 521 l 87 521 l 87 174 l 0 174 l 0 521 m 87 174 l 174 174 l 174 87 l 87 87 l 87 174 m 434 0 l 174 0 l 174 87 l 434 87 l 434 0 m 434 0 l 521 0 l 521 -174 l 434 -174 l 434 0 m 347 -174 l 434 -174 l 434 -260 l 347 -260 l 347 -174 z "},"η":{"ha":608,"x_min":0,"x_max":521,"o":"m 434 608 l 174 608 l 174 694 l 434 694 l 434 608 m 0 694 l 87 694 l 87 608 l 174 608 l 174 521 l 87 521 l 87 0 l 0 0 l 0 694 m 434 608 l 521 608 l 521 -260 l 434 -260 l 434 608 z "},"θ":{"ha":608,"x_min":0,"x_max":521,"o":"m 347 868 l 174 868 l 174 955 l 347 955 l 347 868 m 87 868 l 174 868 l 174 781 l 87 781 l 87 868 m 347 868 l 434 868 l 434 781 l 347 781 l 347 868 m 434 434 l 87 434 l 87 174 l 0 174 l 0 781 l 87 781 l 87 521 l 434 521 l 434 781 l 521 781 l 521 174 l 434 174 l 434 434 m 87 174 l 174 174 l 174 87 l 87 87 l 87 174 m 347 174 l 434 174 l 434 87 l 347 87 l 347 174 m 174 87 l 347 87 l 347 0 l 174 0 l 174 87 z "},"ι":{"ha":347,"x_min":0,"x_max":260,"o":"m 87 521 l 0 521 l 0 608 l 87 608 l 87 694 l 174 694 l 174 87 l 87 87 l 87 521 m 174 87 l 260 87 l 260 0 l 174 0 l 174 87 z "},"κ":{"ha":608,"x_min":0,"x_max":521,"o":"m 434 694 l 521 694 l 521 608 l 434 608 l 434 694 m 434 521 l 260 521 l 260 608 l 434 608 l 434 521 m 174 521 l 260 521 l 260 434 l 174 434 l 174 521 m 174 347 l 260 347 l 260 260 l 174 260 l 174 347 m 260 260 l 347 260 l 347 174 l 260 174 l 260 260 m 347 174 l 434 174 l 434 87 l 347 87 l 347 174 m 0 694 l 87 694 l 87 434 l 174 434 l 174 347 l 87 347 l 87 0 l 0 0 l 0 694 m 434 87 l 521 87 l 521 0 l 434 0 l 434 87 z "},"λ":{"ha":608,"x_min":0,"x_max":521,"o":"m 0 955 l 174 955 l 174 868 l 0 868 l 0 955 m 174 868 l 260 868 l 260 694 l 174 694 l 174 868 m 260 694 l 347 694 l 347 521 l 260 521 l 260 694 m 174 521 l 260 521 l 260 347 l 174 347 l 174 521 m 347 521 l 434 521 l 434 260 l 347 260 l 347 521 m 87 347 l 174 347 l 174 174 l 87 174 l 87 347 m 0 174 l 87 174 l 87 0 l 0 0 l 0 174 m 434 260 l 521 260 l 521 0 l 434 0 l 434 260 z "},"μ":{"ha":608,"x_min":0,"x_max":521,"o":"m 174 87 l 347 87 l 347 0 l 174 0 l 174 87 m 434 694 l 521 694 l 521 0 l 434 0 l 434 87 l 347 87 l 347 174 l 434 174 l 434 694 m 0 694 l 87 694 l 87 174 l 174 174 l 174 87 l 87 87 l 87 -260 l 0 -260 l 0 694 z "},"ν":{"ha":694,"x_min":0,"x_max":608,"o":"m 0 694 l 87 694 l 87 521 l 0 521 l 0 694 m 521 694 l 608 694 l 608 521 l 521 521 l 521 694 m 87 521 l 174 521 l 174 347 l 87 347 l 87 521 m 434 521 l 521 521 l 521 347 l 434 347 l 434 521 m 174 347 l 260 347 l 260 174 l 174 174 l 174 347 m 347 347 l 434 347 l 434 174 l 347 174 l 347 347 m 260 174 l 347 174 l 347 0 l 260 0 l 260 174 z "},"ξ":{"ha":608,"x_min":0,"x_max":521,"o":"m 521 955 l 521 868 l 174 868 l 174 955 l 521 955 m 87 868 l 174 868 l 174 781 l 87 781 l 87 868 m 0 781 l 87 781 l 87 608 l 0 608 l 0 781 m 87 608 l 174 608 l 174 521 l 87 521 l 87 608 m 434 521 l 434 434 l 174 434 l 174 521 l 434 521 m 87 434 l 174 434 l 174 347 l 87 347 l 87 434 m 0 347 l 87 347 l 87 174 l 0 174 l 0 347 m 87 174 l 174 174 l 174 87 l 87 87 l 87 174 m 434 0 l 174 0 l 174 87 l 434 87 l 434 0 m 434 0 l 521 0 l 521 -174 l 434 -174 l 434 0 m 347 -174 l 434 -174 l 434 -260 l 347 -260 l 347 -174 z "},"ο":{"ha":608,"x_min":0,"x_max":521,"o":"m 434 608 l 87 608 l 87 694 l 434 694 l 434 608 m 0 608 l 87 608 l 87 87 l 0 87 l 0 608 m 434 608 l 521 608 l 521 87 l 434 87 l 434 608 m 87 87 l 434 87 l 434 0 l 87 0 l 87 87 z "},"π":{"ha":694,"x_min":0,"x_max":608,"o":"m 0 87 l 87 87 l 87 0 l 0 0 l 0 87 m 434 608 l 174 608 l 174 87 l 87 87 l 87 608 l 0 608 l 0 694 l 608 694 l 608 608 l 521 608 l 521 87 l 608 87 l 608 0 l 434 0 l 434 608 z "},"ρ":{"ha":608,"x_min":0,"x_max":521,"o":"m 434 608 l 87 608 l 87 694 l 434 694 l 434 608 m 434 608 l 521 608 l 521 87 l 434 87 l 434 608 m 434 0 l 87 0 l 87 -260 l 0 -260 l 0 608 l 87 608 l 87 87 l 434 87 l 434 0 z "},"ς":{"ha":608,"x_min":0,"x_max":521,"o":"m 434 608 l 87 608 l 87 694 l 434 694 l 434 608 m 434 608 l 521 608 l 521 521 l 434 521 l 434 608 m 0 608 l 87 608 l 87 87 l 0 87 l 0 608 m 87 87 l 347 87 l 347 0 l 87 0 l 87 87 m 347 0 l 434 0 l 434 -174 l 347 -174 l 347 0 m 260 -174 l 347 -174 l 347 -260 l 260 -260 l 260 -174 z "},"σ":{"ha":694,"x_min":0,"x_max":608,"o":"m 608 694 l 608 608 l 434 608 l 434 521 l 347 521 l 347 608 l 87 608 l 87 694 l 608 694 m 0 608 l 87 608 l 87 87 l 0 87 l 0 608 m 434 521 l 521 521 l 521 87 l 434 87 l 434 521 m 87 87 l 434 87 l 434 0 l 87 0 l 87 87 z "},"τ":{"ha":608,"x_min":0,"x_max":521,"o":"m 174 608 l 0 608 l 0 694 l 521 694 l 521 608 l 260 608 l 260 87 l 174 87 l 174 608 m 434 0 l 260 0 l 260 87 l 434 87 l 434 0 z "},"υ":{"ha":608,"x_min":0,"x_max":521,"o":"m 0 694 l 87 694 l 87 87 l 0 87 l 0 694 m 434 694 l 521 694 l 521 87 l 434 87 l 434 694 m 87 87 l 434 87 l 434 0 l 87 0 l 87 87 z "},"φ":{"ha":868,"x_min":0,"x_max":781,"o":"m 87 694 l 174 694 l 174 608 l 87 608 l 87 694 m 434 694 l 608 694 l 608 608 l 434 608 l 434 694 m 608 608 l 694 608 l 694 521 l 608 521 l 608 608 m 0 608 l 87 608 l 87 174 l 0 174 l 0 608 m 694 521 l 781 521 l 781 174 l 694 174 l 694 521 m 87 174 l 174 174 l 174 87 l 87 87 l 87 174 m 608 174 l 694 174 l 694 87 l 608 87 l 608 174 m 347 608 l 434 608 l 434 87 l 608 87 l 608 0 l 434 0 l 434 -260 l 347 -260 l 347 0 l 174 0 l 174 87 l 347 87 l 347 608 z "},"χ":{"ha":694,"x_min":0,"x_max":608,"o":"m 0 694 l 87 694 l 87 608 l 0 608 l 0 694 m 521 694 l 608 694 l 608 521 l 521 521 l 521 694 m 87 608 l 174 608 l 174 434 l 87 434 l 87 608 m 434 521 l 521 521 l 521 347 l 434 347 l 434 521 m 174 434 l 260 434 l 260 260 l 174 260 l 174 434 m 347 347 l 434 347 l 434 260 l 347 260 l 347 347 m 260 260 l 347 260 l 347 174 l 260 174 l 260 260 m 174 174 l 260 174 l 260 87 l 174 87 l 174 174 m 347 174 l 434 174 l 434 0 l 347 0 l 347 174 m 87 87 l 174 87 l 174 -87 l 87 -87 l 87 87 m 434 0 l 521 0 l 521 -174 l 434 -174 l 434 0 m 0 -87 l 87 -87 l 87 -260 l 0 -260 l 0 -87 m 521 -174 l 608 -174 l 608 -260 l 521 -260 l 521 -174 z "},"ψ":{"ha":868,"x_min":0,"x_max":781,"o":"m 0 694 l 87 694 l 87 174 l 0 174 l 0 694 m 694 694 l 781 694 l 781 174 l 694 174 l 694 694 m 87 174 l 174 174 l 174 87 l 87 87 l 87 174 m 608 174 l 694 174 l 694 87 l 608 87 l 608 174 m 347 694 l 434 694 l 434 87 l 608 87 l 608 0 l 434 0 l 434 -260 l 347 -260 l 347 0 l 174 0 l 174 87 l 347 87 l 347 694 z "},"ω":{"ha":868,"x_min":0,"x_max":781,"o":"m 87 694 l 174 694 l 174 608 l 87 608 l 87 694 m 608 694 l 694 694 l 694 608 l 608 608 l 608 694 m 347 521 l 434 521 l 434 174 l 347 174 l 347 521 m 0 608 l 87 608 l 87 87 l 0 87 l 0 608 m 260 174 l 347 174 l 347 87 l 260 87 l 260 174 m 434 174 l 521 174 l 521 87 l 434 87 l 434 174 m 694 608 l 781 608 l 781 87 l 694 87 l 694 608 m 87 87 l 260 87 l 260 0 l 87 0 l 87 87 m 694 0 l 521 0 l 521 87 l 694 87 l 694 0 z "},"ϊ":{"ha":347,"x_min":0,"x_max":260,"o":"m 0 955 l 87 955 l 87 868 l 0 868 l 0 955 m 174 955 l 260 955 l 260 868 l 174 868 l 174 955 m 87 521 l 0 521 l 0 608 l 87 608 l 87 694 l 174 694 l 174 87 l 87 87 l 87 521 m 174 87 l 260 87 l 260 0 l 174 0 l 174 87 z "},"ϋ":{"ha":608,"x_min":0,"x_max":521,"o":"m 87 955 l 174 955 l 174 868 l 87 868 l 87 955 m 347 955 l 434 955 l 434 868 l 347 868 l 347 955 m 0 694 l 87 694 l 87 87 l 0 87 l 0 694 m 434 694 l 521 694 l 521 87 l 434 87 l 434 694 m 87 87 l 434 87 l 434 0 l 87 0 l 87 87 z "},"ό":{"ha":608,"x_min":0,"x_max":521,"o":"m 260 1042 l 347 1042 l 347 955 l 260 955 l 260 1042 m 174 955 l 260 955 l 260 868 l 174 868 l 174 955 m 434 608 l 87 608 l 87 694 l 434 694 l 434 608 m 0 608 l 87 608 l 87 87 l 0 87 l 0 608 m 434 608 l 521 608 l 521 87 l 434 87 l 434 608 m 87 87 l 434 87 l 434 0 l 87 0 l 87 87 z "},"ύ":{"ha":608,"x_min":0,"x_max":521,"o":"m 260 1042 l 347 1042 l 347 955 l 260 955 l 260 1042 m 174 955 l 260 955 l 260 868 l 174 868 l 174 955 m 0 694 l 87 694 l 87 87 l 0 87 l 0 694 m 434 694 l 521 694 l 521 87 l 434 87 l 434 694 m 87 87 l 434 87 l 434 0 l 87 0 l 87 87 z "},"ώ":{"ha":868,"x_min":0,"x_max":781,"o":"m 434 1042 l 521 1042 l 521 955 l 434 955 l 434 1042 m 347 955 l 434 955 l 434 868 l 347 868 l 347 955 m 87 694 l 174 694 l 174 608 l 87 608 l 87 694 m 608 694 l 694 694 l 694 608 l 608 608 l 608 694 m 347 521 l 434 521 l 434 174 l 347 174 l 347 521 m 0 608 l 87 608 l 87 87 l 0 87 l 0 608 m 260 174 l 347 174 l 347 87 l 260 87 l 260 174 m 434 174 l 521 174 l 521 87 l 434 87 l 434 174 m 694 608 l 781 608 l 781 87 l 694 87 l 694 608 m 87 87 l 260 87 l 260 0 l 87 0 l 87 87 m 694 0 l 521 0 l 521 87 l 694 87 l 694 0 z "},"Ѐ":{"ha":694,"x_min":0,"x_max":608,"o":"m 174 1302 l 260 1302 l 260 1215 l 174 1215 l 174 1302 m 260 1215 l 347 1215 l 347 1128 l 260 1128 l 260 1215 m 0 955 l 608 955 l 608 868 l 87 868 l 87 521 l 521 521 l 521 434 l 87 434 l 87 87 l 608 87 l 608 0 l 0 0 l 0 955 z "},"Ё":{"ha":694,"x_min":0,"x_max":608,"o":"m 174 1215 l 260 1215 l 260 1128 l 174 1128 l 174 1215 m 347 1215 l 434 1215 l 434 1128 l 347 1128 l 347 1215 m 0 955 l 608 955 l 608 868 l 87 868 l 87 521 l 521 521 l 521 434 l 87 434 l 87 87 l 608 87 l 608 0 l 0 0 l 0 955 z "},"Ѓ":{"ha":608,"x_min":0,"x_max":521,"o":"m 260 1302 l 347 1302 l 347 1215 l 260 1215 l 260 1302 m 174 1215 l 260 1215 l 260 1128 l 174 1128 l 174 1215 m 0 955 l 521 955 l 521 868 l 87 868 l 87 0 l 0 0 l 0 955 z "},"Ќ":{"ha":694,"x_min":0,"x_max":608,"o":"m 347 1302 l 434 1302 l 434 1215 l 347 1215 l 347 1302 m 260 1215 l 347 1215 l 347 1128 l 260 1128 l 260 1215 m 521 955 l 608 955 l 608 868 l 521 868 l 521 955 m 434 868 l 521 868 l 521 781 l 434 781 l 434 868 m 347 781 l 434 781 l 434 694 l 347 694 l 347 781 m 260 694 l 347 694 l 347 608 l 260 608 l 260 694 m 174 608 l 260 608 l 260 521 l 174 521 l 174 608 m 174 434 l 260 434 l 260 347 l 174 347 l 174 434 m 260 347 l 347 347 l 347 260 l 260 260 l 260 347 m 347 260 l 434 260 l 434 174 l 347 174 l 347 260 m 434 174 l 521 174 l 521 87 l 434 87 l 434 174 m 174 434 l 87 434 l 87 0 l 0 0 l 0 955 l 87 955 l 87 521 l 174 521 l 174 434 m 521 87 l 608 87 l 608 0 l 521 0 l 521 87 z "},"Ѝ":{"ha":694,"x_min":0,"x_max":608,"o":"m 174 1302 l 260 1302 l 260 1215 l 174 1215 l 174 1302 m 260 1215 l 347 1215 l 347 1128 l 260 1128 l 260 1215 m 347 694 l 434 694 l 434 521 l 347 521 l 347 694 m 260 521 l 347 521 l 347 434 l 260 434 l 260 521 m 174 434 l 260 434 l 260 260 l 174 260 l 174 434 m 0 955 l 87 955 l 87 260 l 174 260 l 174 87 l 87 87 l 87 0 l 0 0 l 0 955 m 521 694 l 434 694 l 434 868 l 521 868 l 521 955 l 608 955 l 608 0 l 521 0 l 521 694 z "},"А":{"ha":694,"x_min":0,"x_max":608,"o":"m 260 955 l 347 955 l 347 781 l 260 781 l 260 955 m 174 781 l 260 781 l 260 521 l 174 521 l 174 781 m 347 781 l 434 781 l 434 521 l 347 521 l 347 781 m 434 347 l 434 521 l 521 521 l 521 260 l 87 260 l 87 521 l 174 521 l 174 347 l 434 347 m 0 260 l 87 260 l 87 0 l 0 0 l 0 260 m 521 260 l 608 260 l 608 0 l 521 0 l 521 260 z "},"Б":{"ha":694,"x_min":0,"x_max":608,"o":"m 521 434 l 608 434 l 608 87 l 521 87 l 521 434 m 0 955 l 521 955 l 521 868 l 87 868 l 87 521 l 521 521 l 521 434 l 87 434 l 87 87 l 521 87 l 521 0 l 0 0 l 0 955 z "},"В":{"ha":694,"x_min":0,"x_max":608,"o":"m 434 868 l 521 868 l 521 781 l 434 781 l 434 868 m 521 781 l 608 781 l 608 608 l 521 608 l 521 781 m 434 608 l 521 608 l 521 521 l 434 521 l 434 608 m 434 434 l 521 434 l 521 347 l 434 347 l 434 434 m 521 347 l 608 347 l 608 174 l 521 174 l 521 347 m 434 174 l 521 174 l 521 87 l 434 87 l 434 174 m 0 955 l 434 955 l 434 868 l 87 868 l 87 521 l 434 521 l 434 434 l 87 434 l 87 87 l 434 87 l 434 0 l 0 0 l 0 955 z "},"Г":{"ha":608,"x_min":0,"x_max":521,"o":"m 0 955 l 521 955 l 521 868 l 87 868 l 87 0 l 0 0 l 0 955 z "},"Д":{"ha":781,"x_min":0,"x_max":694,"o":"m 87 434 l 174 434 l 174 174 l 87 174 l 87 434 m 521 868 l 260 868 l 260 434 l 174 434 l 174 955 l 608 955 l 608 87 l 694 87 l 694 -260 l 608 -260 l 608 0 l 87 0 l 87 -260 l 0 -260 l 0 174 l 87 174 l 87 87 l 521 87 l 521 868 z "},"Е":{"ha":694,"x_min":0,"x_max":608,"o":"m 0 955 l 608 955 l 608 868 l 87 868 l 87 521 l 521 521 l 521 434 l 87 434 l 87 87 l 608 87 l 608 0 l 0 0 l 0 955 z "},"Ж":{"ha":1042,"x_min":0,"x_max":955,"o":"m 0 955 l 87 955 l 87 868 l 0 868 l 0 955 m 868 955 l 955 955 l 955 868 l 868 868 l 868 955 m 87 868 l 174 868 l 174 694 l 87 694 l 87 868 m 781 868 l 868 868 l 868 694 l 781 694 l 781 868 m 174 694 l 260 694 l 260 608 l 174 608 l 174 694 m 694 694 l 781 694 l 781 608 l 694 608 l 694 694 m 260 608 l 347 608 l 347 521 l 260 521 l 260 608 m 608 608 l 694 608 l 694 521 l 608 521 l 608 608 m 260 434 l 347 434 l 347 347 l 260 347 l 260 434 m 608 434 l 694 434 l 694 347 l 608 347 l 608 434 m 174 347 l 260 347 l 260 260 l 174 260 l 174 347 m 694 347 l 781 347 l 781 260 l 694 260 l 694 347 m 87 260 l 174 260 l 174 174 l 87 174 l 87 260 m 781 260 l 868 260 l 868 174 l 781 174 l 781 260 m 0 174 l 87 174 l 87 0 l 0 0 l 0 174 m 608 434 l 521 434 l 521 0 l 434 0 l 434 434 l 347 434 l 347 521 l 434 521 l 434 955 l 521 955 l 521 521 l 608 521 l 608 434 m 868 174 l 955 174 l 955 0 l 868 0 l 868 174 z "},"З":{"ha":694,"x_min":0,"x_max":608,"o":"m 434 955 l 434 868 l 87 868 l 87 955 l 434 955 m 0 868 l 87 868 l 87 781 l 0 781 l 0 868 m 434 868 l 521 868 l 521 781 l 434 781 l 434 868 m 521 781 l 608 781 l 608 608 l 521 608 l 521 781 m 434 608 l 521 608 l 521 521 l 434 521 l 434 608 m 434 521 l 434 434 l 174 434 l 174 521 l 434 521 m 434 434 l 521 434 l 521 347 l 434 347 l 434 434 m 521 347 l 608 347 l 608 174 l 521 174 l 521 347 m 0 174 l 87 174 l 87 87 l 0 87 l 0 174 m 434 174 l 521 174 l 521 87 l 434 87 l 434 174 m 87 87 l 434 87 l 434 0 l 87 0 l 87 87 z "},"И":{"ha":694,"x_min":0,"x_max":608,"o":"m 347 694 l 434 694 l 434 521 l 347 521 l 347 694 m 260 521 l 347 521 l 347 434 l 260 434 l 260 521 m 174 434 l 260 434 l 260 260 l 174 260 l 174 434 m 0 955 l 87 955 l 87 260 l 174 260 l 174 87 l 87 87 l 87 0 l 0 0 l 0 955 m 521 694 l 434 694 l 434 868 l 521 868 l 521 955 l 608 955 l 608 0 l 521 0 l 521 694 z "},"Й":{"ha":694,"x_min":0,"x_max":608,"o":"m 174 1302 l 260 1302 l 260 1215 l 174 1215 l 174 1302 m 347 1302 l 434 1302 l 434 1215 l 347 1215 l 347 1302 m 260 1215 l 347 1215 l 347 1128 l 260 1128 l 260 1215 m 347 694 l 434 694 l 434 521 l 347 521 l 347 694 m 260 521 l 347 521 l 347 434 l 260 434 l 260 521 m 174 434 l 260 434 l 260 260 l 174 260 l 174 434 m 0 955 l 87 955 l 87 260 l 174 260 l 174 87 l 87 87 l 87 0 l 0 0 l 0 955 m 521 694 l 434 694 l 434 868 l 521 868 l 521 955 l 608 955 l 608 0 l 521 0 l 521 694 z "},"К":{"ha":694,"x_min":0,"x_max":608,"o":"m 521 955 l 608 955 l 608 868 l 521 868 l 521 955 m 434 868 l 521 868 l 521 781 l 434 781 l 434 868 m 347 781 l 434 781 l 434 694 l 347 694 l 347 781 m 260 694 l 347 694 l 347 608 l 260 608 l 260 694 m 174 608 l 260 608 l 260 521 l 174 521 l 174 608 m 174 434 l 260 434 l 260 347 l 174 347 l 174 434 m 260 347 l 347 347 l 347 260 l 260 260 l 260 347 m 347 260 l 434 260 l 434 174 l 347 174 l 347 260 m 434 174 l 521 174 l 521 87 l 434 87 l 434 174 m 174 434 l 87 434 l 87 0 l 0 0 l 0 955 l 87 955 l 87 521 l 174 521 l 174 434 m 521 87 l 608 87 l 608 0 l 521 0 l 521 87 z "},"Л":{"ha":694,"x_min":0,"x_max":608,"o":"m 87 260 l 174 260 l 174 87 l 87 87 l 87 260 m 0 87 l 87 87 l 87 0 l 0 0 l 0 87 m 521 868 l 260 868 l 260 260 l 174 260 l 174 955 l 608 955 l 608 0 l 521 0 l 521 868 z "},"М":{"ha":1042,"x_min":0,"x_max":955,"o":"m 174 694 l 260 694 l 260 521 l 174 521 l 174 694 m 694 694 l 781 694 l 781 521 l 694 521 l 694 694 m 260 521 l 347 521 l 347 347 l 260 347 l 260 521 m 608 521 l 694 521 l 694 347 l 608 347 l 608 521 m 347 347 l 434 347 l 434 174 l 347 174 l 347 347 m 521 347 l 608 347 l 608 174 l 521 174 l 521 347 m 0 955 l 87 955 l 87 868 l 174 868 l 174 694 l 87 694 l 87 0 l 0 0 l 0 955 m 434 174 l 521 174 l 521 0 l 434 0 l 434 174 m 868 694 l 781 694 l 781 868 l 868 868 l 868 955 l 955 955 l 955 0 l 868 0 l 868 694 z "},"Н":{"ha":694,"x_min":0,"x_max":608,"o":"m 608 0 l 521 0 l 521 434 l 87 434 l 87 0 l 0 0 l 0 955 l 87 955 l 87 521 l 521 521 l 521 955 l 608 955 l 608 0 z "},"О":{"ha":694,"x_min":0,"x_max":608,"o":"m 434 955 l 434 868 l 174 868 l 174 955 l 434 955 m 87 868 l 174 868 l 174 781 l 87 781 l 87 868 m 434 868 l 521 868 l 521 781 l 434 781 l 434 868 m 0 781 l 87 781 l 87 174 l 0 174 l 0 781 m 521 781 l 608 781 l 608 174 l 521 174 l 521 781 m 87 174 l 174 174 l 174 87 l 87 87 l 87 174 m 434 174 l 521 174 l 521 87 l 434 87 l 434 174 m 434 0 l 174 0 l 174 87 l 434 87 l 434 0 z "},"П":{"ha":694,"x_min":0,"x_max":608,"o":"m 521 868 l 87 868 l 87 0 l 0 0 l 0 955 l 608 955 l 608 0 l 521 0 l 521 868 z "},"Р":{"ha":694,"x_min":0,"x_max":608,"o":"m 521 868 l 608 868 l 608 521 l 521 521 l 521 868 m 0 955 l 521 955 l 521 868 l 87 868 l 87 521 l 521 521 l 521 434 l 87 434 l 87 0 l 0 0 l 0 955 z "},"С":{"ha":694,"x_min":0,"x_max":608,"o":"m 521 955 l 521 868 l 174 868 l 174 955 l 521 955 m 87 868 l 174 868 l 174 781 l 87 781 l 87 868 m 521 868 l 608 868 l 608 781 l 521 781 l 521 868 m 0 781 l 87 781 l 87 174 l 0 174 l 0 781 m 87 174 l 174 174 l 174 87 l 87 87 l 87 174 m 521 174 l 608 174 l 608 87 l 521 87 l 521 174 m 521 87 l 521 0 l 174 0 l 174 87 l 521 87 z "},"Т":{"ha":694,"x_min":0,"x_max":608,"o":"m 0 955 l 608 955 l 608 868 l 347 868 l 347 0 l 260 0 l 260 868 l 0 868 l 0 955 z "},"У":{"ha":694,"x_min":0,"x_max":608,"o":"m 0 955 l 87 955 l 87 781 l 0 781 l 0 955 m 521 955 l 608 955 l 608 781 l 521 781 l 521 955 m 87 781 l 174 781 l 174 521 l 87 521 l 87 781 m 434 781 l 521 781 l 521 521 l 434 521 l 434 781 m 174 521 l 260 521 l 260 347 l 174 347 l 174 521 m 347 521 l 434 521 l 434 347 l 347 347 l 347 521 m 260 347 l 347 347 l 347 174 l 260 174 l 260 347 m 174 174 l 260 174 l 260 87 l 174 87 l 174 174 m 174 0 l 0 0 l 0 87 l 174 87 l 174 0 z "},"Ф":{"ha":1042,"x_min":0,"x_max":955,"o":"m 87 781 l 174 781 l 174 694 l 87 694 l 87 781 m 781 781 l 868 781 l 868 694 l 781 694 l 781 781 m 0 694 l 87 694 l 87 260 l 0 260 l 0 694 m 868 694 l 955 694 l 955 260 l 868 260 l 868 694 m 87 260 l 174 260 l 174 174 l 87 174 l 87 260 m 781 260 l 868 260 l 868 174 l 781 174 l 781 260 m 434 781 l 174 781 l 174 868 l 434 868 l 434 955 l 521 955 l 521 868 l 781 868 l 781 781 l 521 781 l 521 174 l 781 174 l 781 87 l 521 87 l 521 0 l 434 0 l 434 87 l 174 87 l 174 174 l 434 174 l 434 781 z "},"Х":{"ha":694,"x_min":0,"x_max":608,"o":"m 0 955 l 87 955 l 87 781 l 0 781 l 0 955 m 521 955 l 608 955 l 608 781 l 521 781 l 521 955 m 87 781 l 174 781 l 174 608 l 87 608 l 87 781 m 434 781 l 521 781 l 521 608 l 434 608 l 434 781 m 174 608 l 260 608 l 260 521 l 174 521 l 174 608 m 347 608 l 434 608 l 434 521 l 347 521 l 347 608 m 260 521 l 347 521 l 347 434 l 260 434 l 260 521 m 174 434 l 260 434 l 260 347 l 174 347 l 174 434 m 347 434 l 434 434 l 434 347 l 347 347 l 347 434 m 87 347 l 174 347 l 174 174 l 87 174 l 87 347 m 434 347 l 521 347 l 521 174 l 434 174 l 434 347 m 0 174 l 87 174 l 87 0 l 0 0 l 0 174 m 521 174 l 608 174 l 608 0 l 521 0 l 521 174 z "},"Ц":{"ha":781,"x_min":0,"x_max":694,"o":"m 521 955 l 608 955 l 608 87 l 694 87 l 694 -174 l 608 -174 l 608 0 l 0 0 l 0 955 l 87 955 l 87 87 l 521 87 l 521 955 z "},"Ч":{"ha":694,"x_min":0,"x_max":608,"o":"m 0 955 l 87 955 l 87 608 l 0 608 l 0 955 m 87 608 l 174 608 l 174 521 l 87 521 l 87 608 m 434 521 l 434 434 l 174 434 l 174 521 l 434 521 m 521 521 l 434 521 l 434 608 l 521 608 l 521 955 l 608 955 l 608 0 l 521 0 l 521 521 z "},"Ш":{"ha":1042,"x_min":0,"x_max":955,"o":"m 868 87 l 868 955 l 955 955 l 955 0 l 0 0 l 0 955 l 87 955 l 87 87 l 434 87 l 434 955 l 521 955 l 521 87 l 868 87 z "},"Щ":{"ha":1128,"x_min":0,"x_max":1042,"o":"m 868 87 l 868 955 l 955 955 l 955 87 l 1042 87 l 1042 -174 l 955 -174 l 955 0 l 0 0 l 0 955 l 87 955 l 87 87 l 434 87 l 434 955 l 521 955 l 521 87 l 868 87 z "},"Ъ":{"ha":868,"x_min":0,"x_max":781,"o":"m 694 434 l 781 434 l 781 87 l 694 87 l 694 434 m 694 521 l 694 434 l 260 434 l 260 87 l 694 87 l 694 0 l 174 0 l 174 868 l 0 868 l 0 955 l 260 955 l 260 521 l 694 521 z "},"Ы":{"ha":868,"x_min":0,"x_max":781,"o":"m 521 434 l 608 434 l 608 87 l 521 87 l 521 434 m 0 955 l 87 955 l 87 521 l 521 521 l 521 434 l 87 434 l 87 87 l 521 87 l 521 0 l 0 0 l 0 955 m 694 955 l 781 955 l 781 0 l 694 0 l 694 955 z "},"Ь":{"ha":694,"x_min":0,"x_max":608,"o":"m 521 434 l 608 434 l 608 87 l 521 87 l 521 434 m 0 955 l 87 955 l 87 521 l 521 521 l 521 434 l 87 434 l 87 87 l 521 87 l 521 0 l 0 0 l 0 955 z "},"Э":{"ha":694,"x_min":0,"x_max":608,"o":"m 434 955 l 434 868 l 87 868 l 87 955 l 434 955 m 0 868 l 87 868 l 87 781 l 0 781 l 0 868 m 434 868 l 521 868 l 521 781 l 434 781 l 434 868 m 608 174 l 521 174 l 521 434 l 174 434 l 174 521 l 521 521 l 521 781 l 608 781 l 608 174 m 0 174 l 87 174 l 87 87 l 0 87 l 0 174 m 434 174 l 521 174 l 521 87 l 434 87 l 434 174 m 87 87 l 434 87 l 434 0 l 87 0 l 87 87 z "},"Ю":{"ha":955,"x_min":0,"x_max":868,"o":"m 694 955 l 694 868 l 434 868 l 434 955 l 694 955 m 347 868 l 434 868 l 434 781 l 347 781 l 347 868 m 694 868 l 781 868 l 781 781 l 694 781 l 694 868 m 781 781 l 868 781 l 868 174 l 781 174 l 781 781 m 347 174 l 434 174 l 434 87 l 347 87 l 347 174 m 694 174 l 781 174 l 781 87 l 694 87 l 694 174 m 0 955 l 87 955 l 87 521 l 260 521 l 260 781 l 347 781 l 347 174 l 260 174 l 260 434 l 87 434 l 87 0 l 0 0 l 0 955 m 694 0 l 434 0 l 434 87 l 694 87 l 694 0 z "},"Я":{"ha":694,"x_min":0,"x_max":608,"o":"m 0 868 l 87 868 l 87 521 l 0 521 l 0 868 m 174 347 l 260 347 l 260 174 l 174 174 l 174 347 m 87 174 l 174 174 l 174 87 l 87 87 l 87 174 m 0 87 l 87 87 l 87 0 l 0 0 l 0 87 m 608 0 l 521 0 l 521 434 l 347 434 l 347 347 l 260 347 l 260 434 l 87 434 l 87 521 l 521 521 l 521 868 l 87 868 l 87 955 l 608 955 l 608 0 z "},"а":{"ha":608,"x_min":0,"x_max":521,"o":"m 434 608 l 87 608 l 87 694 l 434 694 l 434 608 m 0 347 l 87 347 l 87 87 l 0 87 l 0 347 m 434 347 l 87 347 l 87 434 l 434 434 l 434 608 l 521 608 l 521 0 l 87 0 l 87 87 l 434 87 l 434 347 z "},"б":{"ha":608,"x_min":0,"x_max":521,"o":"m 434 955 l 521 955 l 521 868 l 434 868 l 434 955 m 434 868 l 434 781 l 87 781 l 87 868 l 434 868 m 0 781 l 87 781 l 87 608 l 434 608 l 434 521 l 87 521 l 87 87 l 0 87 l 0 781 m 434 521 l 521 521 l 521 87 l 434 87 l 434 521 m 87 87 l 434 87 l 434 0 l 87 0 l 87 87 z "},"в":{"ha":608,"x_min":0,"x_max":521,"o":"m 434 608 l 521 608 l 521 434 l 434 434 l 434 608 m 434 347 l 521 347 l 521 87 l 434 87 l 434 347 m 0 694 l 434 694 l 434 608 l 87 608 l 87 434 l 434 434 l 434 347 l 87 347 l 87 87 l 434 87 l 434 0 l 0 0 l 0 694 z "},"г":{"ha":521,"x_min":0,"x_max":434,"o":"m 434 608 l 87 608 l 87 0 l 0 0 l 0 694 l 434 694 l 434 608 z "},"д":{"ha":781,"x_min":0,"x_max":694,"o":"m 87 347 l 174 347 l 174 174 l 87 174 l 87 347 m 521 608 l 260 608 l 260 347 l 174 347 l 174 694 l 608 694 l 608 87 l 694 87 l 694 -174 l 608 -174 l 608 0 l 87 0 l 87 -174 l 0 -174 l 0 174 l 87 174 l 87 87 l 521 87 l 521 608 z "},"е":{"ha":608,"x_min":0,"x_max":521,"o":"m 434 608 l 87 608 l 87 694 l 434 694 l 434 608 m 434 608 l 521 608 l 521 347 l 87 347 l 87 87 l 0 87 l 0 608 l 87 608 l 87 434 l 434 434 l 434 608 m 434 174 l 521 174 l 521 87 l 434 87 l 434 174 m 87 87 l 434 87 l 434 0 l 87 0 l 87 87 z "},"ж":{"ha":868,"x_min":0,"x_max":781,"o":"m 0 694 l 87 694 l 87 608 l 0 608 l 0 694 m 694 694 l 781 694 l 781 608 l 694 608 l 694 694 m 87 608 l 174 608 l 174 521 l 87 521 l 87 608 m 608 608 l 694 608 l 694 521 l 608 521 l 608 608 m 174 521 l 260 521 l 260 434 l 174 434 l 174 521 m 521 521 l 608 521 l 608 434 l 521 434 l 521 521 m 174 347 l 260 347 l 260 260 l 174 260 l 174 347 m 521 347 l 608 347 l 608 260 l 521 260 l 521 347 m 87 260 l 174 260 l 174 174 l 87 174 l 87 260 m 608 260 l 694 260 l 694 174 l 608 174 l 608 260 m 0 174 l 87 174 l 87 0 l 0 0 l 0 174 m 347 694 l 434 694 l 434 434 l 521 434 l 521 347 l 434 347 l 434 0 l 347 0 l 347 347 l 260 347 l 260 434 l 347 434 l 347 694 m 694 174 l 781 174 l 781 0 l 694 0 l 694 174 z "},"з":{"ha":608,"x_min":0,"x_max":521,"o":"m 434 608 l 87 608 l 87 694 l 434 694 l 434 608 m 0 608 l 87 608 l 87 521 l 0 521 l 0 608 m 434 608 l 521 608 l 521 434 l 434 434 l 434 608 m 434 434 l 434 347 l 174 347 l 174 434 l 434 434 m 0 174 l 87 174 l 87 87 l 0 87 l 0 174 m 434 347 l 521 347 l 521 87 l 434 87 l 434 347 m 87 87 l 434 87 l 434 0 l 87 0 l 87 87 z "},"и":{"ha":608,"x_min":0,"x_max":521,"o":"m 260 521 l 347 521 l 347 347 l 260 347 l 260 521 m 174 347 l 260 347 l 260 174 l 174 174 l 174 347 m 0 694 l 87 694 l 87 174 l 174 174 l 174 87 l 87 87 l 87 0 l 0 0 l 0 694 m 434 521 l 347 521 l 347 608 l 434 608 l 434 694 l 521 694 l 521 0 l 434 0 l 434 521 z "},"й":{"ha":608,"x_min":0,"x_max":521,"o":"m 87 1042 l 174 1042 l 174 955 l 87 955 l 87 1042 m 347 1042 l 434 1042 l 434 955 l 347 955 l 347 1042 m 347 868 l 174 868 l 174 955 l 347 955 l 347 868 m 260 521 l 347 521 l 347 347 l 260 347 l 260 521 m 174 347 l 260 347 l 260 174 l 174 174 l 174 347 m 0 694 l 87 694 l 87 174 l 174 174 l 174 87 l 87 87 l 87 0 l 0 0 l 0 694 m 434 521 l 347 521 l 347 608 l 434 608 l 434 694 l 521 694 l 521 0 l 434 0 l 434 521 z "},"к":{"ha":608,"x_min":0,"x_max":521,"o":"m 434 694 l 521 694 l 521 608 l 434 608 l 434 694 m 434 521 l 260 521 l 260 608 l 434 608 l 434 521 m 174 521 l 260 521 l 260 434 l 174 434 l 174 521 m 174 347 l 260 347 l 260 260 l 174 260 l 174 347 m 260 260 l 347 260 l 347 174 l 260 174 l 260 260 m 347 174 l 434 174 l 434 87 l 347 87 l 347 174 m 0 694 l 87 694 l 87 434 l 174 434 l 174 347 l 87 347 l 87 0 l 0 0 l 0 694 m 434 87 l 521 87 l 521 0 l 434 0 l 434 87 z "},"л":{"ha":608,"x_min":0,"x_max":521,"o":"m 0 87 l 87 87 l 87 0 l 0 0 l 0 87 m 434 608 l 174 608 l 174 87 l 87 87 l 87 694 l 521 694 l 521 0 l 434 0 l 434 608 z "},"м":{"ha":868,"x_min":0,"x_max":781,"o":"m 174 521 l 260 521 l 260 347 l 174 347 l 174 521 m 521 521 l 608 521 l 608 347 l 521 347 l 521 521 m 260 347 l 347 347 l 347 174 l 260 174 l 260 347 m 434 347 l 521 347 l 521 174 l 434 174 l 434 347 m 0 694 l 87 694 l 87 608 l 174 608 l 174 521 l 87 521 l 87 0 l 0 0 l 0 694 m 347 174 l 434 174 l 434 0 l 347 0 l 347 174 m 694 521 l 608 521 l 608 608 l 694 608 l 694 694 l 781 694 l 781 0 l 694 0 l 694 521 z "},"н":{"ha":608,"x_min":0,"x_max":521,"o":"m 434 347 l 87 347 l 87 0 l 0 0 l 0 694 l 87 694 l 87 434 l 434 434 l 434 694 l 521 694 l 521 0 l 434 0 l 434 347 z "},"о":{"ha":608,"x_min":0,"x_max":521,"o":"m 434 608 l 87 608 l 87 694 l 434 694 l 434 608 m 0 608 l 87 608 l 87 87 l 0 87 l 0 608 m 434 608 l 521 608 l 521 87 l 434 87 l 434 608 m 87 87 l 434 87 l 434 0 l 87 0 l 87 87 z "},"п":{"ha":608,"x_min":0,"x_max":521,"o":"m 434 608 l 87 608 l 87 0 l 0 0 l 0 694 l 521 694 l 521 0 l 434 0 l 434 608 z "},"р":{"ha":608,"x_min":0,"x_max":521,"o":"m 434 608 l 521 608 l 521 87 l 434 87 l 434 608 m 0 694 l 434 694 l 434 608 l 87 608 l 87 87 l 434 87 l 434 0 l 87 0 l 87 -260 l 0 -260 l 0 694 z "},"с":{"ha":608,"x_min":0,"x_max":521,"o":"m 434 608 l 87 608 l 87 694 l 434 694 l 434 608 m 434 608 l 521 608 l 521 521 l 434 521 l 434 608 m 0 608 l 87 608 l 87 87 l 0 87 l 0 608 m 434 174 l 521 174 l 521 87 l 434 87 l 434 174 m 87 87 l 434 87 l 434 0 l 87 0 l 87 87 z "},"т":{"ha":694,"x_min":0,"x_max":608,"o":"m 608 694 l 608 608 l 347 608 l 347 0 l 260 0 l 260 608 l 0 608 l 0 694 l 608 694 z "},"у":{"ha":694,"x_min":0,"x_max":608,"o":"m 0 694 l 87 694 l 87 521 l 0 521 l 0 694 m 521 694 l 608 694 l 608 521 l 521 521 l 521 694 m 87 521 l 174 521 l 174 260 l 87 260 l 87 521 m 434 521 l 521 521 l 521 260 l 434 260 l 434 521 m 174 260 l 260 260 l 260 87 l 174 87 l 174 260 m 347 260 l 434 260 l 434 87 l 347 87 l 347 260 m 260 87 l 347 87 l 347 -87 l 260 -87 l 260 87 m 174 -87 l 260 -87 l 260 -174 l 174 -174 l 174 -87 m 0 -174 l 174 -174 l 174 -260 l 0 -260 l 0 -174 z "},"ф":{"ha":868,"x_min":0,"x_max":781,"o":"m 0 608 l 87 608 l 87 87 l 0 87 l 0 608 m 694 608 l 781 608 l 781 87 l 694 87 l 694 608 m 694 0 l 434 0 l 434 -260 l 347 -260 l 347 0 l 87 0 l 87 87 l 347 87 l 347 608 l 87 608 l 87 694 l 347 694 l 347 955 l 434 955 l 434 694 l 694 694 l 694 608 l 434 608 l 434 87 l 694 87 l 694 0 z "},"х":{"ha":694,"x_min":0,"x_max":608,"o":"m 0 694 l 87 694 l 87 608 l 0 608 l 0 694 m 521 694 l 608 694 l 608 608 l 521 608 l 521 694 m 87 608 l 174 608 l 174 521 l 87 521 l 87 608 m 434 608 l 521 608 l 521 521 l 434 521 l 434 608 m 174 521 l 260 521 l 260 434 l 174 434 l 174 521 m 347 521 l 434 521 l 434 434 l 347 434 l 347 521 m 260 434 l 347 434 l 347 260 l 260 260 l 260 434 m 174 260 l 260 260 l 260 174 l 174 174 l 174 260 m 347 260 l 434 260 l 434 174 l 347 174 l 347 260 m 87 174 l 174 174 l 174 87 l 87 87 l 87 174 m 434 174 l 521 174 l 521 87 l 434 87 l 434 174 m 0 87 l 87 87 l 87 0 l 0 0 l 0 87 m 521 87 l 608 87 l 608 0 l 521 0 l 521 87 z "},"ц":{"ha":694,"x_min":0,"x_max":608,"o":"m 521 0 l 0 0 l 0 694 l 87 694 l 87 87 l 434 87 l 434 694 l 521 694 l 521 87 l 608 87 l 608 -174 l 521 -174 l 521 0 z "},"ч":{"ha":608,"x_min":0,"x_max":521,"o":"m 0 694 l 87 694 l 87 347 l 0 347 l 0 694 m 347 347 l 347 260 l 87 260 l 87 347 l 347 347 m 434 347 l 347 347 l 347 434 l 434 434 l 434 694 l 521 694 l 521 0 l 434 0 l 434 347 z "},"ш":{"ha":868,"x_min":0,"x_max":781,"o":"m 694 694 l 781 694 l 781 0 l 0 0 l 0 694 l 87 694 l 87 87 l 347 87 l 347 694 l 434 694 l 434 87 l 694 87 l 694 694 z "},"щ":{"ha":955,"x_min":0,"x_max":868,"o":"m 694 87 l 694 694 l 781 694 l 781 87 l 868 87 l 868 -174 l 781 -174 l 781 0 l 0 0 l 0 694 l 87 694 l 87 87 l 347 87 l 347 694 l 434 694 l 434 87 l 694 87 z "},"ъ":{"ha":781,"x_min":0,"x_max":694,"o":"m 608 347 l 694 347 l 694 87 l 608 87 l 608 347 m 0 694 l 260 694 l 260 434 l 608 434 l 608 347 l 260 347 l 260 87 l 608 87 l 608 0 l 174 0 l 174 608 l 0 608 l 0 694 z "},"ы":{"ha":781,"x_min":0,"x_max":694,"o":"m 434 347 l 521 347 l 521 87 l 434 87 l 434 347 m 0 694 l 87 694 l 87 434 l 434 434 l 434 347 l 87 347 l 87 87 l 434 87 l 434 0 l 0 0 l 0 694 m 608 694 l 694 694 l 694 0 l 608 0 l 608 694 z "},"ь":{"ha":608,"x_min":0,"x_max":521,"o":"m 434 347 l 521 347 l 521 87 l 434 87 l 434 347 m 0 694 l 87 694 l 87 434 l 434 434 l 434 347 l 87 347 l 87 87 l 434 87 l 434 0 l 0 0 l 0 694 z "},"э":{"ha":608,"x_min":0,"x_max":521,"o":"m 434 608 l 87 608 l 87 694 l 434 694 l 434 608 m 0 608 l 87 608 l 87 521 l 0 521 l 0 608 m 0 174 l 87 174 l 87 87 l 0 87 l 0 174 m 434 347 l 174 347 l 174 434 l 434 434 l 434 608 l 521 608 l 521 87 l 434 87 l 434 347 m 87 87 l 434 87 l 434 0 l 87 0 l 87 87 z "},"ю":{"ha":868,"x_min":0,"x_max":781,"o":"m 694 608 l 347 608 l 347 694 l 694 694 l 694 608 m 694 608 l 781 608 l 781 87 l 694 87 l 694 608 m 0 694 l 87 694 l 87 434 l 260 434 l 260 608 l 347 608 l 347 87 l 260 87 l 260 347 l 87 347 l 87 0 l 0 0 l 0 694 m 347 87 l 694 87 l 694 0 l 347 0 l 347 87 z "},"я":{"ha":608,"x_min":0,"x_max":521,"o":"m 0 608 l 87 608 l 87 347 l 0 347 l 0 608 m 87 174 l 174 174 l 174 87 l 87 87 l 87 174 m 0 87 l 87 87 l 87 0 l 0 0 l 0 87 m 434 260 l 260 260 l 260 174 l 174 174 l 174 260 l 87 260 l 87 347 l 434 347 l 434 608 l 87 608 l 87 694 l 521 694 l 521 0 l 434 0 l 434 260 z "},"ѐ":{"ha":608,"x_min":0,"x_max":521,"o":"m 174 1042 l 260 1042 l 260 955 l 174 955 l 174 1042 m 260 955 l 347 955 l 347 868 l 260 868 l 260 955 m 434 608 l 87 608 l 87 694 l 434 694 l 434 608 m 434 608 l 521 608 l 521 347 l 87 347 l 87 87 l 0 87 l 0 608 l 87 608 l 87 434 l 434 434 l 434 608 m 434 174 l 521 174 l 521 87 l 434 87 l 434 174 m 87 87 l 434 87 l 434 0 l 87 0 l 87 87 z "},"ё":{"ha":608,"x_min":0,"x_max":521,"o":"m 87 955 l 174 955 l 174 868 l 87 868 l 87 955 m 347 955 l 434 955 l 434 868 l 347 868 l 347 955 m 434 608 l 87 608 l 87 694 l 434 694 l 434 608 m 434 608 l 521 608 l 521 347 l 87 347 l 87 87 l 0 87 l 0 608 l 87 608 l 87 434 l 434 434 l 434 608 m 434 174 l 521 174 l 521 87 l 434 87 l 434 174 m 87 87 l 434 87 l 434 0 l 87 0 l 87 87 z "},"ѓ":{"ha":521,"x_min":0,"x_max":434,"o":"m 260 1042 l 347 1042 l 347 955 l 260 955 l 260 1042 m 174 955 l 260 955 l 260 868 l 174 868 l 174 955 m 434 608 l 87 608 l 87 0 l 0 0 l 0 694 l 434 694 l 434 608 z "},"ќ":{"ha":608,"x_min":0,"x_max":521,"o":"m 260 1042 l 347 1042 l 347 955 l 260 955 l 260 1042 m 174 955 l 260 955 l 260 868 l 174 868 l 174 955 m 434 694 l 521 694 l 521 608 l 434 608 l 434 694 m 434 521 l 260 521 l 260 608 l 434 608 l 434 521 m 174 521 l 260 521 l 260 434 l 174 434 l 174 521 m 174 347 l 260 347 l 260 260 l 174 260 l 174 347 m 260 260 l 347 260 l 347 174 l 260 174 l 260 260 m 347 174 l 434 174 l 434 87 l 347 87 l 347 174 m 0 694 l 87 694 l 87 434 l 174 434 l 174 347 l 87 347 l 87 0 l 0 0 l 0 694 m 434 87 l 521 87 l 521 0 l 434 0 l 434 87 z "},"ѝ":{"ha":608,"x_min":0,"x_max":521,"o":"m 174 1042 l 260 1042 l 260 955 l 174 955 l 174 1042 m 260 955 l 347 955 l 347 868 l 260 868 l 260 955 m 260 521 l 347 521 l 347 347 l 260 347 l 260 521 m 174 347 l 260 347 l 260 174 l 174 174 l 174 347 m 0 694 l 87 694 l 87 174 l 174 174 l 174 87 l 87 87 l 87 0 l 0 0 l 0 694 m 434 521 l 347 521 l 347 608 l 434 608 l 434 694 l 521 694 l 521 0 l 434 0 l 434 521 z "},"Ӣ":{"ha":694,"x_min":0,"x_max":608,"o":"m 434 1128 l 174 1128 l 174 1215 l 434 1215 l 434 1128 m 347 694 l 434 694 l 434 521 l 347 521 l 347 694 m 260 521 l 347 521 l 347 434 l 260 434 l 260 521 m 174 434 l 260 434 l 260 260 l 174 260 l 174 434 m 0 955 l 87 955 l 87 260 l 174 260 l 174 87 l 87 87 l 87 0 l 0 0 l 0 955 m 521 694 l 434 694 l 434 868 l 521 868 l 521 955 l 608 955 l 608 0 l 521 0 l 521 694 z "},"ӣ":{"ha":608,"x_min":0,"x_max":521,"o":"m 434 955 l 434 868 l 87 868 l 87 955 l 434 955 m 260 521 l 347 521 l 347 347 l 260 347 l 260 521 m 174 347 l 260 347 l 260 174 l 174 174 l 174 347 m 0 694 l 87 694 l 87 174 l 174 174 l 174 87 l 87 87 l 87 0 l 0 0 l 0 694 m 434 521 l 347 521 l 347 608 l 434 608 l 434 694 l 521 694 l 521 0 l 434 0 l 434 521 z "},"Ӯ":{"ha":694,"x_min":0,"x_max":608,"o":"m 434 1128 l 174 1128 l 174 1215 l 434 1215 l 434 1128 m 0 955 l 87 955 l 87 781 l 0 781 l 0 955 m 521 955 l 608 955 l 608 781 l 521 781 l 521 955 m 87 781 l 174 781 l 174 521 l 87 521 l 87 781 m 434 781 l 521 781 l 521 521 l 434 521 l 434 781 m 174 521 l 260 521 l 260 347 l 174 347 l 174 521 m 347 521 l 434 521 l 434 347 l 347 347 l 347 521 m 260 347 l 347 347 l 347 174 l 260 174 l 260 347 m 174 174 l 260 174 l 260 87 l 174 87 l 174 174 m 174 0 l 0 0 l 0 87 l 174 87 l 174 0 z "},"ӯ":{"ha":694,"x_min":0,"x_max":608,"o":"m 434 955 l 434 868 l 174 868 l 174 955 l 434 955 m 0 694 l 87 694 l 87 521 l 0 521 l 0 694 m 521 694 l 608 694 l 608 521 l 521 521 l 521 694 m 87 521 l 174 521 l 174 260 l 87 260 l 87 521 m 434 521 l 521 521 l 521 260 l 434 260 l 434 521 m 174 260 l 260 260 l 260 87 l 174 87 l 174 260 m 347 260 l 434 260 l 434 87 l 347 87 l 347 260 m 260 87 l 347 87 l 347 -87 l 260 -87 l 260 87 m 174 -87 l 260 -87 l 260 -174 l 174 -174 l 174 -87 m 0 -174 l 174 -174 l 174 -260 l 0 -260 l 0 -174 z "},"‐":{"ha":1389,"x_min":347,"x_max":955,"o":"m 955 521 l 955 434 l 347 434 l 347 521 l 955 521 z "},"‑":{"ha":694,"x_min":0,"x_max":608,"o":"m 608 521 l 608 434 l 0 434 l 0 521 l 608 521 z "},"‒":{"ha":694,"x_min":0,"x_max":608,"o":"m 608 521 l 608 434 l 0 434 l 0 521 l 608 521 z "},"–":{"ha":694,"x_min":0,"x_max":694,"o":"m 694 521 l 694 434 l 0 434 l 0 521 l 694 521 z "},"—":{"ha":1389,"x_min":0,"x_max":1302,"o":"m 1302 521 l 1302 434 l 0 434 l 0 521 l 1302 521 z "},"―":{"ha":1389,"x_min":0,"x_max":1389,"o":"m 1389 521 l 1389 434 l 0 434 l 0 521 l 1389 521 z "},"‖":{"ha":1389,"x_min":521,"x_max":781,"o":"m 521 1128 l 608 1128 l 608 -174 l 521 -174 l 521 1128 m 694 1128 l 781 1128 l 781 -174 l 694 -174 l 694 1128 z "},"‘":{"ha":1389,"x_min":1042,"x_max":1215,"o":"m 1128 1128 l 1215 1128 l 1215 1042 l 1128 1042 l 1128 1128 m 1215 781 l 1042 781 l 1042 1042 l 1128 1042 l 1128 955 l 1215 955 l 1215 781 z "},"’":{"ha":1389,"x_min":87,"x_max":260,"o":"m 260 868 l 174 868 l 174 955 l 87 955 l 87 1128 l 260 1128 l 260 868 m 87 868 l 174 868 l 174 781 l 87 781 l 87 868 z "},"‚":{"ha":434,"x_min":87,"x_max":260,"o":"m 87 174 l 260 174 l 260 -87 l 174 -87 l 174 0 l 87 0 l 87 174 m 87 -87 l 174 -87 l 174 -174 l 87 -174 l 87 -87 z "},"‛":{"ha":434,"x_min":87,"x_max":260,"o":"m 87 955 l 260 955 l 260 781 l 174 781 l 174 694 l 87 694 l 87 955 m 174 694 l 260 694 l 260 608 l 174 608 l 174 694 z "},"“":{"ha":1389,"x_min":781,"x_max":1215,"o":"m 868 1128 l 955 1128 l 955 1042 l 868 1042 l 868 1128 m 1128 1128 l 1215 1128 l 1215 1042 l 1128 1042 l 1128 1128 m 781 1042 l 868 1042 l 868 955 l 955 955 l 955 781 l 781 781 l 781 1042 m 1215 781 l 1042 781 l 1042 1042 l 1128 1042 l 1128 955 l 1215 955 l 1215 781 z "},"”":{"ha":1389,"x_min":87,"x_max":521,"o":"m 260 868 l 174 868 l 174 955 l 87 955 l 87 1128 l 260 1128 l 260 868 m 347 1128 l 521 1128 l 521 868 l 434 868 l 434 955 l 347 955 l 347 1128 m 87 868 l 174 868 l 174 781 l 87 781 l 87 868 m 347 868 l 434 868 l 434 781 l 347 781 l 347 868 z "},"„":{"ha":694,"x_min":87,"x_max":521,"o":"m 87 174 l 260 174 l 260 -87 l 174 -87 l 174 0 l 87 0 l 87 174 m 347 174 l 521 174 l 521 -87 l 434 -87 l 434 0 l 347 0 l 347 174 m 87 -87 l 174 -87 l 174 -174 l 87 -174 l 87 -87 m 347 -87 l 434 -87 l 434 -174 l 347 -174 l 347 -87 z "},"‟":{"ha":694,"x_min":87,"x_max":521,"o":"m 87 955 l 260 955 l 260 781 l 174 781 l 174 694 l 87 694 l 87 955 m 347 955 l 521 955 l 521 781 l 434 781 l 434 694 l 347 694 l 347 955 m 174 694 l 260 694 l 260 608 l 174 608 l 174 694 m 434 694 l 521 694 l 521 608 l 434 608 l 434 694 z "},"†":{"ha":1389,"x_min":260,"x_max":1042,"o":"m 1042 781 l 1042 694 l 694 694 l 694 -174 l 608 -174 l 608 694 l 260 694 l 260 781 l 608 781 l 608 1128 l 694 1128 l 694 781 l 1042 781 z "},"‡":{"ha":1389,"x_min":260,"x_max":1042,"o":"m 608 174 l 608 781 l 260 781 l 260 868 l 608 868 l 608 1128 l 694 1128 l 694 868 l 1042 868 l 1042 781 l 694 781 l 694 174 l 1042 174 l 1042 87 l 694 87 l 694 -174 l 608 -174 l 608 87 l 260 87 l 260 174 l 608 174 z "},"․":{"ha":1389,"x_min":608,"x_max":781,"o":"m 781 347 l 608 347 l 608 521 l 781 521 l 781 347 z "},"‥":{"ha":1389,"x_min":347,"x_max":1042,"o":"m 347 521 l 521 521 l 521 347 l 347 347 l 347 521 m 1042 347 l 868 347 l 868 521 l 1042 521 l 1042 347 z "},"…":{"ha":1389,"x_min":174,"x_max":1215,"o":"m 347 347 l 174 347 l 174 521 l 347 521 l 347 347 m 781 347 l 608 347 l 608 521 l 781 521 l 781 347 m 1042 521 l 1215 521 l 1215 347 l 1042 347 l 1042 521 z "},"‧":{"ha":1389,"x_min":608,"x_max":781,"o":"m 781 347 l 608 347 l 608 521 l 781 521 l 781 347 z "},"※":{"ha":1389,"x_min":0,"x_max":1302,"o":"m 87 1042 l 174 1042 l 174 955 l 87 955 l 87 1042 m 1128 1042 l 1215 1042 l 1215 955 l 1128 955 l 1128 1042 m 174 955 l 260 955 l 260 868 l 174 868 l 174 955 m 521 1042 l 608 1042 l 608 1128 l 694 1128 l 694 1042 l 781 1042 l 781 955 l 694 955 l 694 868 l 608 868 l 608 955 l 521 955 l 521 1042 m 1042 955 l 1128 955 l 1128 868 l 1042 868 l 1042 955 m 260 868 l 347 868 l 347 781 l 260 781 l 260 868 m 955 868 l 1042 868 l 1042 781 l 955 781 l 955 868 m 347 781 l 434 781 l 434 694 l 347 694 l 347 781 m 868 781 l 955 781 l 955 694 l 868 694 l 868 781 m 434 694 l 521 694 l 521 608 l 434 608 l 434 694 m 781 694 l 868 694 l 868 608 l 781 608 l 781 694 m 521 608 l 608 608 l 608 521 l 521 521 l 521 608 m 694 608 l 781 608 l 781 521 l 694 521 l 694 608 m 608 521 l 694 521 l 694 434 l 608 434 l 608 521 m 87 608 l 174 608 l 174 521 l 260 521 l 260 434 l 174 434 l 174 347 l 87 347 l 87 434 l 0 434 l 0 521 l 87 521 l 87 608 m 521 434 l 608 434 l 608 347 l 521 347 l 521 434 m 694 434 l 781 434 l 781 347 l 694 347 l 694 434 m 1128 434 l 1042 434 l 1042 521 l 1128 521 l 1128 608 l 1215 608 l 1215 521 l 1302 521 l 1302 434 l 1215 434 l 1215 347 l 1128 347 l 1128 434 m 434 347 l 521 347 l 521 260 l 434 260 l 434 347 m 781 347 l 868 347 l 868 260 l 781 260 l 781 347 m 347 260 l 434 260 l 434 174 l 347 174 l 347 260 m 868 260 l 955 260 l 955 174 l 868 174 l 868 260 m 260 174 l 347 174 l 347 87 l 260 87 l 260 174 m 955 174 l 1042 174 l 1042 87 l 955 87 l 955 174 m 174 87 l 260 87 l 260 0 l 174 0 l 174 87 m 1042 87 l 1128 87 l 1128 0 l 1042 0 l 1042 87 m 87 0 l 174 0 l 174 -87 l 87 -87 l 87 0 m 1128 0 l 1215 0 l 1215 -87 l 1128 -87 l 1128 0 m 781 -87 l 694 -87 l 694 -174 l 608 -174 l 608 -87 l 521 -87 l 521 0 l 608 0 l 608 87 l 694 87 l 694 0 l 781 0 l 781 -87 z "},"‾":{"ha":694,"x_min":0,"x_max":608,"o":"m 0 1128 l 608 1128 l 608 1042 l 0 1042 l 0 1128 z "},"⁋":{"ha":694,"x_min":0,"x_max":608,"o":"m 608 434 l 521 434 l 521 347 l 347 347 l 347 260 l 260 260 l 260 -260 l 174 -260 l 174 868 l 87 868 l 87 -260 l 0 -260 l 0 955 l 347 955 l 347 868 l 521 868 l 521 781 l 608 781 l 608 434 z "},"⁌":{"ha":694,"x_min":0,"x_max":608,"o":"m 608 0 l 260 0 l 260 87 l 87 87 l 87 174 l 0 174 l 0 521 l 87 521 l 87 608 l 260 608 l 260 694 l 608 694 l 608 0 m 521 608 l 434 608 l 434 87 l 521 87 l 521 608 z "},"⁍":{"ha":694,"x_min":0,"x_max":608,"o":"m 87 87 l 174 87 l 174 608 l 87 608 l 87 87 m 608 174 l 521 174 l 521 87 l 347 87 l 347 0 l 0 0 l 0 694 l 347 694 l 347 608 l 521 608 l 521 521 l 608 521 l 608 174 z "},"⁰":{"ha":521,"x_min":0,"x_max":434,"o":"m 347 1128 l 347 1042 l 87 1042 l 87 1128 l 347 1128 m 174 868 l 260 868 l 260 781 l 174 781 l 174 868 m 0 1042 l 87 1042 l 87 781 l 174 781 l 174 694 l 87 694 l 87 608 l 0 608 l 0 1042 m 347 868 l 260 868 l 260 955 l 347 955 l 347 1042 l 434 1042 l 434 608 l 347 608 l 347 868 m 87 608 l 347 608 l 347 521 l 87 521 l 87 608 z "},"ⁱ":{"ha":521,"x_min":87,"x_max":347,"o":"m 174 1128 l 260 1128 l 260 1042 l 174 1042 l 174 1128 m 174 868 l 87 868 l 87 955 l 260 955 l 260 608 l 347 608 l 347 521 l 87 521 l 87 608 l 174 608 l 174 868 z "},"⁴":{"ha":521,"x_min":0,"x_max":434,"o":"m 87 1042 l 174 1042 l 174 868 l 87 868 l 87 1042 m 434 608 l 347 608 l 347 521 l 260 521 l 260 608 l 0 608 l 0 868 l 87 868 l 87 694 l 260 694 l 260 1042 l 174 1042 l 174 1128 l 347 1128 l 347 694 l 434 694 l 434 608 z "},"⁵":{"ha":521,"x_min":0,"x_max":434,"o":"m 0 1128 l 434 1128 l 434 1042 l 87 1042 l 87 868 l 347 868 l 347 781 l 0 781 l 0 1128 m 0 694 l 87 694 l 87 608 l 0 608 l 0 694 m 347 781 l 434 781 l 434 608 l 347 608 l 347 781 m 87 608 l 347 608 l 347 521 l 87 521 l 87 608 z "},"⁶":{"ha":521,"x_min":0,"x_max":434,"o":"m 347 1128 l 347 1042 l 87 1042 l 87 1128 l 347 1128 m 347 1042 l 434 1042 l 434 955 l 347 955 l 347 1042 m 0 1042 l 87 1042 l 87 868 l 347 868 l 347 781 l 87 781 l 87 608 l 0 608 l 0 1042 m 347 781 l 434 781 l 434 608 l 347 608 l 347 781 m 87 608 l 347 608 l 347 521 l 87 521 l 87 608 z "},"⁷":{"ha":521,"x_min":0,"x_max":434,"o":"m 434 955 l 347 955 l 347 1042 l 0 1042 l 0 1128 l 434 1128 l 434 955 m 260 955 l 347 955 l 347 781 l 260 781 l 260 955 m 174 781 l 260 781 l 260 521 l 174 521 l 174 781 z "},"⁸":{"ha":521,"x_min":0,"x_max":434,"o":"m 347 1128 l 347 1042 l 87 1042 l 87 1128 l 347 1128 m 0 1042 l 87 1042 l 87 868 l 0 868 l 0 1042 m 347 1042 l 434 1042 l 434 868 l 347 868 l 347 1042 m 347 781 l 87 781 l 87 868 l 347 868 l 347 781 m 0 781 l 87 781 l 87 608 l 0 608 l 0 781 m 347 781 l 434 781 l 434 608 l 347 608 l 347 781 m 87 608 l 347 608 l 347 521 l 87 521 l 87 608 z "},"⁹":{"ha":521,"x_min":0,"x_max":434,"o":"m 347 1128 l 347 1042 l 87 1042 l 87 1128 l 347 1128 m 0 1042 l 87 1042 l 87 868 l 0 868 l 0 1042 m 0 694 l 87 694 l 87 608 l 0 608 l 0 694 m 347 781 l 87 781 l 87 868 l 347 868 l 347 1042 l 434 1042 l 434 608 l 347 608 l 347 781 m 87 608 l 347 608 l 347 521 l 87 521 l 87 608 z "},"⁺":{"ha":521,"x_min":0,"x_max":434,"o":"m 434 868 l 434 781 l 260 781 l 260 608 l 174 608 l 174 781 l 0 781 l 0 868 l 174 868 l 174 1042 l 260 1042 l 260 868 l 434 868 z "},"⁻":{"ha":521,"x_min":0,"x_max":434,"o":"m 434 868 l 434 781 l 0 781 l 0 868 l 434 868 z "},"⁼":{"ha":521,"x_min":0,"x_max":434,"o":"m 0 955 l 434 955 l 434 868 l 0 868 l 0 955 m 434 781 l 434 694 l 0 694 l 0 781 l 434 781 z "},"⁽":{"ha":260,"x_min":0,"x_max":174,"o":"m 87 1128 l 174 1128 l 174 1042 l 87 1042 l 87 1128 m 0 1042 l 87 1042 l 87 608 l 0 608 l 0 1042 m 87 608 l 174 608 l 174 521 l 87 521 l 87 608 z "},"⁾":{"ha":260,"x_min":0,"x_max":174,"o":"m 0 1128 l 87 1128 l 87 1042 l 0 1042 l 0 1128 m 87 1042 l 174 1042 l 174 608 l 87 608 l 87 1042 m 0 608 l 87 608 l 87 521 l 0 521 l 0 608 z "},"ⁿ":{"ha":521,"x_min":0,"x_max":434,"o":"m 347 868 l 174 868 l 174 955 l 347 955 l 347 868 m 0 955 l 87 955 l 87 868 l 174 868 l 174 781 l 87 781 l 87 521 l 0 521 l 0 955 m 347 868 l 434 868 l 434 521 l 347 521 l 347 868 z "},"₀":{"ha":521,"x_min":0,"x_max":434,"o":"m 347 347 l 87 347 l 87 434 l 347 434 l 347 347 m 174 174 l 260 174 l 260 87 l 174 87 l 174 174 m 174 0 l 87 0 l 87 -87 l 0 -87 l 0 347 l 87 347 l 87 87 l 174 87 l 174 0 m 434 -87 l 347 -87 l 347 174 l 260 174 l 260 260 l 347 260 l 347 347 l 434 347 l 434 -87 m 347 -174 l 87 -174 l 87 -87 l 347 -87 l 347 -174 z "},"₁":{"ha":521,"x_min":87,"x_max":260,"o":"m 260 -174 l 174 -174 l 174 260 l 87 260 l 87 347 l 174 347 l 174 434 l 260 434 l 260 -174 z "},"₂":{"ha":521,"x_min":0,"x_max":434,"o":"m 347 347 l 87 347 l 87 434 l 347 434 l 347 347 m 0 347 l 87 347 l 87 260 l 0 260 l 0 347 m 347 347 l 434 347 l 434 174 l 347 174 l 347 347 m 174 174 l 347 174 l 347 87 l 174 87 l 174 174 m 87 87 l 174 87 l 174 0 l 87 0 l 87 87 m 434 -87 l 434 -174 l 0 -174 l 0 0 l 87 0 l 87 -87 l 434 -87 z "},"₃":{"ha":521,"x_min":0,"x_max":434,"o":"m 347 347 l 87 347 l 87 434 l 347 434 l 347 347 m 0 347 l 87 347 l 87 260 l 0 260 l 0 347 m 347 347 l 434 347 l 434 174 l 347 174 l 347 347 m 174 174 l 347 174 l 347 87 l 174 87 l 174 174 m 0 0 l 87 0 l 87 -87 l 0 -87 l 0 0 m 347 87 l 434 87 l 434 -87 l 347 -87 l 347 87 m 347 -174 l 87 -174 l 87 -87 l 347 -87 l 347 -174 z "},"₄":{"ha":521,"x_min":0,"x_max":434,"o":"m 87 347 l 174 347 l 174 174 l 87 174 l 87 347 m 260 0 l 260 347 l 174 347 l 174 434 l 347 434 l 347 0 l 434 0 l 434 -87 l 347 -87 l 347 -174 l 260 -174 l 260 -87 l 0 -87 l 0 174 l 87 174 l 87 0 l 260 0 z "},"₅":{"ha":521,"x_min":0,"x_max":434,"o":"m 434 347 l 87 347 l 87 174 l 347 174 l 347 87 l 0 87 l 0 434 l 434 434 l 434 347 m 0 0 l 87 0 l 87 -87 l 0 -87 l 0 0 m 347 87 l 434 87 l 434 -87 l 347 -87 l 347 87 m 347 -174 l 87 -174 l 87 -87 l 347 -87 l 347 -174 z "},"₆":{"ha":521,"x_min":0,"x_max":434,"o":"m 347 347 l 87 347 l 87 434 l 347 434 l 347 347 m 347 347 l 434 347 l 434 260 l 347 260 l 347 347 m 0 347 l 87 347 l 87 174 l 347 174 l 347 87 l 87 87 l 87 -87 l 0 -87 l 0 347 m 347 87 l 434 87 l 434 -87 l 347 -87 l 347 87 m 347 -174 l 87 -174 l 87 -87 l 347 -87 l 347 -174 z "},"₇":{"ha":521,"x_min":0,"x_max":434,"o":"m 434 434 l 434 260 l 347 260 l 347 347 l 0 347 l 0 434 l 434 434 m 260 260 l 347 260 l 347 87 l 260 87 l 260 260 m 174 87 l 260 87 l 260 -174 l 174 -174 l 174 87 z "},"₈":{"ha":521,"x_min":0,"x_max":434,"o":"m 347 347 l 87 347 l 87 434 l 347 434 l 347 347 m 0 347 l 87 347 l 87 174 l 0 174 l 0 347 m 347 347 l 434 347 l 434 174 l 347 174 l 347 347 m 347 174 l 347 87 l 87 87 l 87 174 l 347 174 m 0 87 l 87 87 l 87 -87 l 0 -87 l 0 87 m 347 87 l 434 87 l 434 -87 l 347 -87 l 347 87 m 347 -174 l 87 -174 l 87 -87 l 347 -87 l 347 -174 z "},"₉":{"ha":521,"x_min":0,"x_max":434,"o":"m 347 347 l 87 347 l 87 434 l 347 434 l 347 347 m 0 347 l 87 347 l 87 174 l 0 174 l 0 347 m 0 0 l 87 0 l 87 -87 l 0 -87 l 0 0 m 434 -87 l 347 -87 l 347 87 l 87 87 l 87 174 l 347 174 l 347 347 l 434 347 l 434 -87 m 347 -174 l 87 -174 l 87 -87 l 347 -87 l 347 -174 z "},"₊":{"ha":521,"x_min":0,"x_max":434,"o":"m 174 347 l 260 347 l 260 174 l 434 174 l 434 87 l 260 87 l 260 -87 l 174 -87 l 174 87 l 0 87 l 0 174 l 174 174 l 174 347 z "},"₋":{"ha":521,"x_min":0,"x_max":434,"o":"m 434 87 l 0 87 l 0 174 l 434 174 l 434 87 z "},"₌":{"ha":521,"x_min":0,"x_max":434,"o":"m 434 174 l 0 174 l 0 260 l 434 260 l 434 174 m 434 87 l 434 0 l 0 0 l 0 87 l 434 87 z "},"₍":{"ha":260,"x_min":0,"x_max":174,"o":"m 87 434 l 174 434 l 174 347 l 87 347 l 87 434 m 0 347 l 87 347 l 87 -87 l 0 -87 l 0 347 m 87 -87 l 174 -87 l 174 -174 l 87 -174 l 87 -87 z "},"₎":{"ha":260,"x_min":0,"x_max":174,"o":"m 0 434 l 87 434 l 87 347 l 0 347 l 0 434 m 87 347 l 174 347 l 174 -87 l 87 -87 l 87 347 m 0 -87 l 87 -87 l 87 -174 l 0 -174 l 0 -87 z "},"ₐ":{"ha":521,"x_min":0,"x_max":434,"o":"m 347 260 l 347 174 l 87 174 l 87 260 l 347 260 m 0 0 l 87 0 l 87 -87 l 0 -87 l 0 0 m 434 -174 l 87 -174 l 87 -87 l 347 -87 l 347 0 l 87 0 l 87 87 l 347 87 l 347 174 l 434 174 l 434 -174 z "},"ₑ":{"ha":521,"x_min":0,"x_max":434,"o":"m 347 260 l 347 174 l 87 174 l 87 260 l 347 260 m 347 174 l 434 174 l 434 0 l 87 0 l 87 -87 l 0 -87 l 0 174 l 87 174 l 87 87 l 347 87 l 347 174 m 347 -174 l 87 -174 l 87 -87 l 347 -87 l 347 -174 z "},"ₒ":{"ha":521,"x_min":0,"x_max":434,"o":"m 347 260 l 347 174 l 87 174 l 87 260 l 347 260 m 0 174 l 87 174 l 87 -87 l 0 -87 l 0 174 m 347 174 l 434 174 l 434 -87 l 347 -87 l 347 174 m 347 -174 l 87 -174 l 87 -87 l 347 -87 l 347 -174 z "},"ₓ":{"ha":521,"x_min":0,"x_max":434,"o":"m 0 260 l 87 260 l 87 174 l 0 174 l 0 260 m 347 260 l 434 260 l 434 174 l 347 174 l 347 260 m 87 174 l 174 174 l 174 87 l 87 87 l 87 174 m 260 174 l 347 174 l 347 87 l 260 87 l 260 174 m 174 87 l 260 87 l 260 0 l 174 0 l 174 87 m 87 0 l 174 0 l 174 -87 l 87 -87 l 87 0 m 260 0 l 347 0 l 347 -87 l 260 -87 l 260 0 m 0 -87 l 87 -87 l 87 -174 l 0 -174 l 0 -87 m 347 -87 l 434 -87 l 434 -174 l 347 -174 l 347 -87 z "},"ₔ":{"ha":521,"x_min":0,"x_max":434,"o":"m 347 260 l 347 174 l 87 174 l 87 260 l 347 260 m 347 174 l 434 174 l 434 -87 l 347 -87 l 347 0 l 87 0 l 87 -87 l 0 -87 l 0 87 l 347 87 l 347 174 m 347 -174 l 87 -174 l 87 -87 l 347 -87 l 347 -174 z "},"ₕ":{"ha":521,"x_min":0,"x_max":434,"o":"m 174 260 l 347 260 l 347 174 l 174 174 l 174 260 m 0 434 l 87 434 l 87 174 l 174 174 l 174 87 l 87 87 l 87 -174 l 0 -174 l 0 434 m 347 174 l 434 174 l 434 -174 l 347 -174 l 347 174 z "},"ₖ":{"ha":521,"x_min":0,"x_max":434,"o":"m 347 260 l 434 260 l 434 174 l 347 174 l 347 260 m 174 174 l 347 174 l 347 87 l 174 87 l 174 174 m 174 0 l 260 0 l 260 -87 l 174 -87 l 174 0 m 0 434 l 87 434 l 87 87 l 174 87 l 174 0 l 87 0 l 87 -174 l 0 -174 l 0 434 m 260 -87 l 434 -87 l 434 -174 l 260 -174 l 260 -87 z "},"ₗ":{"ha":347,"x_min":0,"x_max":260,"o":"m 87 347 l 0 347 l 0 434 l 174 434 l 174 -87 l 260 -87 l 260 -174 l 87 -174 l 87 347 z "},"ₘ":{"ha":694,"x_min":0,"x_max":608,"o":"m 347 260 l 521 260 l 521 174 l 347 174 l 347 260 m 0 260 l 260 260 l 260 174 l 87 174 l 87 -174 l 0 -174 l 0 260 m 260 174 l 347 174 l 347 -174 l 260 -174 l 260 174 m 521 174 l 608 174 l 608 -174 l 521 -174 l 521 174 z "},"ₙ":{"ha":521,"x_min":0,"x_max":434,"o":"m 174 260 l 347 260 l 347 174 l 174 174 l 174 260 m 0 260 l 87 260 l 87 174 l 174 174 l 174 87 l 87 87 l 87 -174 l 0 -174 l 0 260 m 347 174 l 434 174 l 434 -174 l 347 -174 l 347 174 z "},"ₚ":{"ha":521,"x_min":0,"x_max":434,"o":"m 347 174 l 434 174 l 434 -87 l 347 -87 l 347 174 m 0 260 l 347 260 l 347 174 l 87 174 l 87 -87 l 347 -87 l 347 -174 l 87 -174 l 87 -347 l 0 -347 l 0 260 z "},"ₛ":{"ha":521,"x_min":0,"x_max":434,"o":"m 434 174 l 87 174 l 87 260 l 434 260 l 434 174 m 0 174 l 87 174 l 87 87 l 0 87 l 0 174 m 87 87 l 347 87 l 347 0 l 87 0 l 87 87 m 347 0 l 434 0 l 434 -87 l 347 -87 l 347 0 m 0 -87 l 347 -87 l 347 -174 l 0 -174 l 0 -87 z "},"ₜ":{"ha":434,"x_min":0,"x_max":347,"o":"m 87 174 l 0 174 l 0 260 l 87 260 l 87 434 l 174 434 l 174 260 l 347 260 l 347 174 l 174 174 l 174 -87 l 87 -87 l 87 174 m 347 -174 l 174 -174 l 174 -87 l 347 -87 l 347 -174 z "},"⅐":{"ha":1389,"x_min":0,"x_max":1302,"o":"m 1215 1128 l 1302 1128 l 1302 1042 l 1215 1042 l 1215 1128 m 1128 1042 l 1215 1042 l 1215 955 l 1128 955 l 1128 1042 m 1042 955 l 1128 955 l 1128 868 l 1042 868 l 1042 955 m 955 868 l 1042 868 l 1042 781 l 955 781 l 955 868 m 868 781 l 955 781 l 955 694 l 868 694 l 868 781 m 781 694 l 868 694 l 868 608 l 781 608 l 781 694 m 260 955 l 174 955 l 174 1042 l 260 1042 l 260 1128 l 347 1128 l 347 521 l 260 521 l 260 955 m 694 608 l 781 608 l 781 521 l 694 521 l 694 608 m 608 521 l 694 521 l 694 434 l 608 434 l 608 521 m 521 434 l 608 434 l 608 347 l 521 347 l 521 434 m 434 347 l 521 347 l 521 260 l 434 260 l 434 347 m 1215 260 l 1128 260 l 1128 347 l 781 347 l 781 434 l 1215 434 l 1215 260 m 347 260 l 434 260 l 434 174 l 347 174 l 347 260 m 260 174 l 347 174 l 347 87 l 260 87 l 260 174 m 1042 260 l 1128 260 l 1128 87 l 1042 87 l 1042 260 m 174 87 l 260 87 l 260 0 l 174 0 l 174 87 m 87 0 l 174 0 l 174 -87 l 87 -87 l 87 0 m 0 -87 l 87 -87 l 87 -174 l 0 -174 l 0 -87 m 955 87 l 1042 87 l 1042 -174 l 955 -174 l 955 87 z "},"⅑":{"ha":1389,"x_min":0,"x_max":1302,"o":"m 1215 1128 l 1302 1128 l 1302 1042 l 1215 1042 l 1215 1128 m 1128 1042 l 1215 1042 l 1215 955 l 1128 955 l 1128 1042 m 1042 955 l 1128 955 l 1128 868 l 1042 868 l 1042 955 m 955 868 l 1042 868 l 1042 781 l 955 781 l 955 868 m 868 781 l 955 781 l 955 694 l 868 694 l 868 781 m 781 694 l 868 694 l 868 608 l 781 608 l 781 694 m 260 955 l 174 955 l 174 1042 l 260 1042 l 260 1128 l 347 1128 l 347 521 l 260 521 l 260 955 m 694 608 l 781 608 l 781 521 l 694 521 l 694 608 m 608 521 l 694 521 l 694 434 l 608 434 l 608 521 m 521 434 l 608 434 l 608 347 l 521 347 l 521 434 m 868 434 l 1128 434 l 1128 347 l 868 347 l 868 434 m 434 347 l 521 347 l 521 260 l 434 260 l 434 347 m 347 260 l 434 260 l 434 174 l 347 174 l 347 260 m 781 347 l 868 347 l 868 174 l 781 174 l 781 347 m 260 174 l 347 174 l 347 87 l 260 87 l 260 174 m 174 87 l 260 87 l 260 0 l 174 0 l 174 87 m 87 0 l 174 0 l 174 -87 l 87 -87 l 87 0 m 781 0 l 868 0 l 868 -87 l 781 -87 l 781 0 m 1128 87 l 868 87 l 868 174 l 1128 174 l 1128 347 l 1215 347 l 1215 -87 l 1128 -87 l 1128 87 m 0 -87 l 87 -87 l 87 -174 l 0 -174 l 0 -87 m 868 -87 l 1128 -87 l 1128 -174 l 868 -174 l 868 -87 z "},"⅒":{"ha":1389,"x_min":0,"x_max":1302,"o":"m 1215 1128 l 1302 1128 l 1302 1042 l 1215 1042 l 1215 1128 m 1128 1042 l 1215 1042 l 1215 955 l 1128 955 l 1128 1042 m 1042 955 l 1128 955 l 1128 868 l 1042 868 l 1042 955 m 955 868 l 1042 868 l 1042 781 l 955 781 l 955 868 m 868 781 l 955 781 l 955 694 l 868 694 l 868 781 m 781 694 l 868 694 l 868 608 l 781 608 l 781 694 m 260 955 l 174 955 l 174 1042 l 260 1042 l 260 1128 l 347 1128 l 347 521 l 260 521 l 260 955 m 694 608 l 781 608 l 781 521 l 694 521 l 694 608 m 608 521 l 694 521 l 694 434 l 608 434 l 608 521 m 521 434 l 608 434 l 608 347 l 521 347 l 521 434 m 1215 347 l 1042 347 l 1042 434 l 1215 434 l 1215 347 m 434 347 l 521 347 l 521 260 l 434 260 l 434 347 m 347 260 l 434 260 l 434 174 l 347 174 l 347 260 m 260 174 l 347 174 l 347 87 l 260 87 l 260 174 m 174 87 l 260 87 l 260 0 l 174 0 l 174 87 m 87 0 l 174 0 l 174 -87 l 87 -87 l 87 0 m 955 347 l 1042 347 l 1042 -87 l 955 -87 l 955 347 m 1215 347 l 1302 347 l 1302 -87 l 1215 -87 l 1215 347 m 0 -87 l 87 -87 l 87 -174 l 0 -174 l 0 -87 m 868 -174 l 781 -174 l 781 260 l 694 260 l 694 347 l 781 347 l 781 434 l 868 434 l 868 -174 m 1215 -174 l 1042 -174 l 1042 -87 l 1215 -87 l 1215 -174 z "},"⅓":{"ha":1389,"x_min":0,"x_max":1302,"o":"m 1215 1128 l 1302 1128 l 1302 1042 l 1215 1042 l 1215 1128 m 1128 1042 l 1215 1042 l 1215 955 l 1128 955 l 1128 1042 m 1042 955 l 1128 955 l 1128 868 l 1042 868 l 1042 955 m 955 868 l 1042 868 l 1042 781 l 955 781 l 955 868 m 868 781 l 955 781 l 955 694 l 868 694 l 868 781 m 781 694 l 868 694 l 868 608 l 781 608 l 781 694 m 260 955 l 174 955 l 174 1042 l 260 1042 l 260 1128 l 347 1128 l 347 521 l 260 521 l 260 955 m 694 608 l 781 608 l 781 521 l 694 521 l 694 608 m 608 521 l 694 521 l 694 434 l 608 434 l 608 521 m 521 434 l 608 434 l 608 347 l 521 347 l 521 434 m 868 434 l 1128 434 l 1128 347 l 868 347 l 868 434 m 434 347 l 521 347 l 521 260 l 434 260 l 434 347 m 781 347 l 868 347 l 868 260 l 781 260 l 781 347 m 347 260 l 434 260 l 434 174 l 347 174 l 347 260 m 1128 347 l 1215 347 l 1215 174 l 1128 174 l 1128 347 m 260 174 l 347 174 l 347 87 l 260 87 l 260 174 m 955 174 l 1128 174 l 1128 87 l 955 87 l 955 174 m 174 87 l 260 87 l 260 0 l 174 0 l 174 87 m 87 0 l 174 0 l 174 -87 l 87 -87 l 87 0 m 781 0 l 868 0 l 868 -87 l 781 -87 l 781 0 m 1128 87 l 1215 87 l 1215 -87 l 1128 -87 l 1128 87 m 0 -87 l 87 -87 l 87 -174 l 0 -174 l 0 -87 m 868 -87 l 1128 -87 l 1128 -174 l 868 -174 l 868 -87 z "},"⅔":{"ha":1389,"x_min":0,"x_max":1302,"o":"m 434 1128 l 434 1042 l 174 1042 l 174 1128 l 434 1128 m 1215 1128 l 1302 1128 l 1302 1042 l 1215 1042 l 1215 1128 m 87 1042 l 174 1042 l 174 955 l 87 955 l 87 1042 m 1128 1042 l 1215 1042 l 1215 955 l 1128 955 l 1128 1042 m 434 1042 l 521 1042 l 521 868 l 434 868 l 434 1042 m 1042 955 l 1128 955 l 1128 868 l 1042 868 l 1042 955 m 434 781 l 260 781 l 260 868 l 434 868 l 434 781 m 955 868 l 1042 868 l 1042 781 l 955 781 l 955 868 m 174 781 l 260 781 l 260 694 l 174 694 l 174 781 m 868 781 l 955 781 l 955 694 l 868 694 l 868 781 m 781 694 l 868 694 l 868 608 l 781 608 l 781 694 m 87 694 l 174 694 l 174 608 l 521 608 l 521 521 l 87 521 l 87 694 m 694 608 l 781 608 l 781 521 l 694 521 l 694 608 m 608 521 l 694 521 l 694 434 l 608 434 l 608 521 m 521 434 l 608 434 l 608 347 l 521 347 l 521 434 m 868 434 l 1128 434 l 1128 347 l 868 347 l 868 434 m 434 347 l 521 347 l 521 260 l 434 260 l 434 347 m 781 347 l 868 347 l 868 260 l 781 260 l 781 347 m 347 260 l 434 260 l 434 174 l 347 174 l 347 260 m 1128 347 l 1215 347 l 1215 174 l 1128 174 l 1128 347 m 260 174 l 347 174 l 347 87 l 260 87 l 260 174 m 955 174 l 1128 174 l 1128 87 l 955 87 l 955 174 m 174 87 l 260 87 l 260 0 l 174 0 l 174 87 m 87 0 l 174 0 l 174 -87 l 87 -87 l 87 0 m 781 0 l 868 0 l 868 -87 l 781 -87 l 781 0 m 1128 87 l 1215 87 l 1215 -87 l 1128 -87 l 1128 87 m 0 -87 l 87 -87 l 87 -174 l 0 -174 l 0 -87 m 868 -87 l 1128 -87 l 1128 -174 l 868 -174 l 868 -87 z "},"⅕":{"ha":1389,"x_min":0,"x_max":1302,"o":"m 1215 1128 l 1302 1128 l 1302 1042 l 1215 1042 l 1215 1128 m 1128 1042 l 1215 1042 l 1215 955 l 1128 955 l 1128 1042 m 1042 955 l 1128 955 l 1128 868 l 1042 868 l 1042 955 m 955 868 l 1042 868 l 1042 781 l 955 781 l 955 868 m 868 781 l 955 781 l 955 694 l 868 694 l 868 781 m 781 694 l 868 694 l 868 608 l 781 608 l 781 694 m 260 955 l 174 955 l 174 1042 l 260 1042 l 260 1128 l 347 1128 l 347 521 l 260 521 l 260 955 m 694 608 l 781 608 l 781 521 l 694 521 l 694 608 m 608 521 l 694 521 l 694 434 l 608 434 l 608 521 m 521 434 l 608 434 l 608 347 l 521 347 l 521 434 m 434 347 l 521 347 l 521 260 l 434 260 l 434 347 m 347 260 l 434 260 l 434 174 l 347 174 l 347 260 m 260 174 l 347 174 l 347 87 l 260 87 l 260 174 m 781 434 l 1215 434 l 1215 347 l 868 347 l 868 174 l 1128 174 l 1128 87 l 781 87 l 781 434 m 174 87 l 260 87 l 260 0 l 174 0 l 174 87 m 87 0 l 174 0 l 174 -87 l 87 -87 l 87 0 m 781 0 l 868 0 l 868 -87 l 781 -87 l 781 0 m 1128 87 l 1215 87 l 1215 -87 l 1128 -87 l 1128 87 m 0 -87 l 87 -87 l 87 -174 l 0 -174 l 0 -87 m 868 -87 l 1128 -87 l 1128 -174 l 868 -174 l 868 -87 z "},"⅖":{"ha":1389,"x_min":0,"x_max":1302,"o":"m 434 1128 l 434 1042 l 174 1042 l 174 1128 l 434 1128 m 1215 1128 l 1302 1128 l 1302 1042 l 1215 1042 l 1215 1128 m 87 1042 l 174 1042 l 174 955 l 87 955 l 87 1042 m 1128 1042 l 1215 1042 l 1215 955 l 1128 955 l 1128 1042 m 434 1042 l 521 1042 l 521 868 l 434 868 l 434 1042 m 1042 955 l 1128 955 l 1128 868 l 1042 868 l 1042 955 m 434 781 l 260 781 l 260 868 l 434 868 l 434 781 m 955 868 l 1042 868 l 1042 781 l 955 781 l 955 868 m 174 781 l 260 781 l 260 694 l 174 694 l 174 781 m 868 781 l 955 781 l 955 694 l 868 694 l 868 781 m 781 694 l 868 694 l 868 608 l 781 608 l 781 694 m 87 694 l 174 694 l 174 608 l 521 608 l 521 521 l 87 521 l 87 694 m 694 608 l 781 608 l 781 521 l 694 521 l 694 608 m 608 521 l 694 521 l 694 434 l 608 434 l 608 521 m 521 434 l 608 434 l 608 347 l 521 347 l 521 434 m 434 347 l 521 347 l 521 260 l 434 260 l 434 347 m 347 260 l 434 260 l 434 174 l 347 174 l 347 260 m 260 174 l 347 174 l 347 87 l 260 87 l 260 174 m 781 434 l 1215 434 l 1215 347 l 868 347 l 868 174 l 1128 174 l 1128 87 l 781 87 l 781 434 m 174 87 l 260 87 l 260 0 l 174 0 l 174 87 m 87 0 l 174 0 l 174 -87 l 87 -87 l 87 0 m 781 0 l 868 0 l 868 -87 l 781 -87 l 781 0 m 1128 87 l 1215 87 l 1215 -87 l 1128 -87 l 1128 87 m 0 -87 l 87 -87 l 87 -174 l 0 -174 l 0 -87 m 868 -87 l 1128 -87 l 1128 -174 l 868 -174 l 868 -87 z "},"⅗":{"ha":1389,"x_min":0,"x_max":1302,"o":"m 434 1128 l 434 1042 l 174 1042 l 174 1128 l 434 1128 m 1215 1128 l 1302 1128 l 1302 1042 l 1215 1042 l 1215 1128 m 87 1042 l 174 1042 l 174 955 l 87 955 l 87 1042 m 1128 1042 l 1215 1042 l 1215 955 l 1128 955 l 1128 1042 m 434 1042 l 521 1042 l 521 868 l 434 868 l 434 1042 m 1042 955 l 1128 955 l 1128 868 l 1042 868 l 1042 955 m 434 781 l 260 781 l 260 868 l 434 868 l 434 781 m 955 868 l 1042 868 l 1042 781 l 955 781 l 955 868 m 868 781 l 955 781 l 955 694 l 868 694 l 868 781 m 87 694 l 174 694 l 174 608 l 87 608 l 87 694 m 434 781 l 521 781 l 521 608 l 434 608 l 434 781 m 781 694 l 868 694 l 868 608 l 781 608 l 781 694 m 434 608 l 434 521 l 174 521 l 174 608 l 434 608 m 694 608 l 781 608 l 781 521 l 694 521 l 694 608 m 608 521 l 694 521 l 694 434 l 608 434 l 608 521 m 521 434 l 608 434 l 608 347 l 521 347 l 521 434 m 434 347 l 521 347 l 521 260 l 434 260 l 434 347 m 347 260 l 434 260 l 434 174 l 347 174 l 347 260 m 260 174 l 347 174 l 347 87 l 260 87 l 260 174 m 781 434 l 1215 434 l 1215 347 l 868 347 l 868 174 l 1128 174 l 1128 87 l 781 87 l 781 434 m 174 87 l 260 87 l 260 0 l 174 0 l 174 87 m 87 0 l 174 0 l 174 -87 l 87 -87 l 87 0 m 781 0 l 868 0 l 868 -87 l 781 -87 l 781 0 m 1128 87 l 1215 87 l 1215 -87 l 1128 -87 l 1128 87 m 0 -87 l 87 -87 l 87 -174 l 0 -174 l 0 -87 m 868 -87 l 1128 -87 l 1128 -174 l 868 -174 l 868 -87 z "},"⅘":{"ha":1389,"x_min":0,"x_max":1302,"o":"m 1215 1128 l 1302 1128 l 1302 1042 l 1215 1042 l 1215 1128 m 1128 1042 l 1215 1042 l 1215 955 l 1128 955 l 1128 1042 m 174 1042 l 260 1042 l 260 868 l 174 868 l 174 1042 m 1042 955 l 1128 955 l 1128 868 l 1042 868 l 1042 955 m 955 868 l 1042 868 l 1042 781 l 955 781 l 955 868 m 868 781 l 955 781 l 955 694 l 868 694 l 868 781 m 781 694 l 868 694 l 868 608 l 781 608 l 781 694 m 347 1042 l 260 1042 l 260 1128 l 434 1128 l 434 694 l 521 694 l 521 608 l 434 608 l 434 521 l 347 521 l 347 608 l 87 608 l 87 868 l 174 868 l 174 694 l 347 694 l 347 1042 m 694 608 l 781 608 l 781 521 l 694 521 l 694 608 m 608 521 l 694 521 l 694 434 l 608 434 l 608 521 m 521 434 l 608 434 l 608 347 l 521 347 l 521 434 m 434 347 l 521 347 l 521 260 l 434 260 l 434 347 m 347 260 l 434 260 l 434 174 l 347 174 l 347 260 m 260 174 l 347 174 l 347 87 l 260 87 l 260 174 m 781 434 l 1215 434 l 1215 347 l 868 347 l 868 174 l 1128 174 l 1128 87 l 781 87 l 781 434 m 174 87 l 260 87 l 260 0 l 174 0 l 174 87 m 87 0 l 174 0 l 174 -87 l 87 -87 l 87 0 m 781 0 l 868 0 l 868 -87 l 781 -87 l 781 0 m 1128 87 l 1215 87 l 1215 -87 l 1128 -87 l 1128 87 m 0 -87 l 87 -87 l 87 -174 l 0 -174 l 0 -87 m 868 -87 l 1128 -87 l 1128 -174 l 868 -174 l 868 -87 z "},"⅙":{"ha":1389,"x_min":0,"x_max":1302,"o":"m 1215 1128 l 1302 1128 l 1302 1042 l 1215 1042 l 1215 1128 m 1128 1042 l 1215 1042 l 1215 955 l 1128 955 l 1128 1042 m 1042 955 l 1128 955 l 1128 868 l 1042 868 l 1042 955 m 955 868 l 1042 868 l 1042 781 l 955 781 l 955 868 m 868 781 l 955 781 l 955 694 l 868 694 l 868 781 m 781 694 l 868 694 l 868 608 l 781 608 l 781 694 m 260 955 l 174 955 l 174 1042 l 260 1042 l 260 1128 l 347 1128 l 347 521 l 260 521 l 260 955 m 694 608 l 781 608 l 781 521 l 694 521 l 694 608 m 608 521 l 694 521 l 694 434 l 608 434 l 608 521 m 521 434 l 608 434 l 608 347 l 521 347 l 521 434 m 868 434 l 1128 434 l 1128 347 l 868 347 l 868 434 m 434 347 l 521 347 l 521 260 l 434 260 l 434 347 m 1128 347 l 1215 347 l 1215 260 l 1128 260 l 1128 347 m 347 260 l 434 260 l 434 174 l 347 174 l 347 260 m 260 174 l 347 174 l 347 87 l 260 87 l 260 174 m 174 87 l 260 87 l 260 0 l 174 0 l 174 87 m 87 0 l 174 0 l 174 -87 l 87 -87 l 87 0 m 781 347 l 868 347 l 868 174 l 1128 174 l 1128 87 l 868 87 l 868 -87 l 781 -87 l 781 347 m 1128 87 l 1215 87 l 1215 -87 l 1128 -87 l 1128 87 m 0 -87 l 87 -87 l 87 -174 l 0 -174 l 0 -87 m 868 -87 l 1128 -87 l 1128 -174 l 868 -174 l 868 -87 z "},"⅚":{"ha":1389,"x_min":0,"x_max":1302,"o":"m 1215 1128 l 1302 1128 l 1302 1042 l 1215 1042 l 1215 1128 m 1128 1042 l 1215 1042 l 1215 955 l 1128 955 l 1128 1042 m 1042 955 l 1128 955 l 1128 868 l 1042 868 l 1042 955 m 434 781 l 87 781 l 87 1128 l 521 1128 l 521 1042 l 174 1042 l 174 868 l 434 868 l 434 781 m 955 868 l 1042 868 l 1042 781 l 955 781 l 955 868 m 868 781 l 955 781 l 955 694 l 868 694 l 868 781 m 87 694 l 174 694 l 174 608 l 87 608 l 87 694 m 434 781 l 521 781 l 521 608 l 434 608 l 434 781 m 781 694 l 868 694 l 868 608 l 781 608 l 781 694 m 434 608 l 434 521 l 174 521 l 174 608 l 434 608 m 694 608 l 781 608 l 781 521 l 694 521 l 694 608 m 608 521 l 694 521 l 694 434 l 608 434 l 608 521 m 521 434 l 608 434 l 608 347 l 521 347 l 521 434 m 868 434 l 1128 434 l 1128 347 l 868 347 l 868 434 m 434 347 l 521 347 l 521 260 l 434 260 l 434 347 m 1128 347 l 1215 347 l 1215 260 l 1128 260 l 1128 347 m 347 260 l 434 260 l 434 174 l 347 174 l 347 260 m 260 174 l 347 174 l 347 87 l 260 87 l 260 174 m 174 87 l 260 87 l 260 0 l 174 0 l 174 87 m 87 0 l 174 0 l 174 -87 l 87 -87 l 87 0 m 781 347 l 868 347 l 868 174 l 1128 174 l 1128 87 l 868 87 l 868 -87 l 781 -87 l 781 347 m 1128 87 l 1215 87 l 1215 -87 l 1128 -87 l 1128 87 m 0 -87 l 87 -87 l 87 -174 l 0 -174 l 0 -87 m 868 -87 l 1128 -87 l 1128 -174 l 868 -174 l 868 -87 z "},"⅛":{"ha":1389,"x_min":0,"x_max":1302,"o":"m 1215 1128 l 1302 1128 l 1302 1042 l 1215 1042 l 1215 1128 m 1128 1042 l 1215 1042 l 1215 955 l 1128 955 l 1128 1042 m 1042 955 l 1128 955 l 1128 868 l 1042 868 l 1042 955 m 955 868 l 1042 868 l 1042 781 l 955 781 l 955 868 m 868 781 l 955 781 l 955 694 l 868 694 l 868 781 m 781 694 l 868 694 l 868 608 l 781 608 l 781 694 m 260 955 l 174 955 l 174 1042 l 260 1042 l 260 1128 l 347 1128 l 347 521 l 260 521 l 260 955 m 694 608 l 781 608 l 781 521 l 694 521 l 694 608 m 608 521 l 694 521 l 694 434 l 608 434 l 608 521 m 521 434 l 608 434 l 608 347 l 521 347 l 521 434 m 868 434 l 1128 434 l 1128 347 l 868 347 l 868 434 m 434 347 l 521 347 l 521 260 l 434 260 l 434 347 m 347 260 l 434 260 l 434 174 l 347 174 l 347 260 m 781 347 l 868 347 l 868 174 l 781 174 l 781 347 m 1128 347 l 1215 347 l 1215 174 l 1128 174 l 1128 347 m 260 174 l 347 174 l 347 87 l 260 87 l 260 174 m 1128 174 l 1128 87 l 868 87 l 868 174 l 1128 174 m 174 87 l 260 87 l 260 0 l 174 0 l 174 87 m 87 0 l 174 0 l 174 -87 l 87 -87 l 87 0 m 781 87 l 868 87 l 868 -87 l 781 -87 l 781 87 m 1128 87 l 1215 87 l 1215 -87 l 1128 -87 l 1128 87 m 0 -87 l 87 -87 l 87 -174 l 0 -174 l 0 -87 m 868 -87 l 1128 -87 l 1128 -174 l 868 -174 l 868 -87 z "},"⅜":{"ha":1389,"x_min":0,"x_max":1302,"o":"m 434 1128 l 434 1042 l 174 1042 l 174 1128 l 434 1128 m 1215 1128 l 1302 1128 l 1302 1042 l 1215 1042 l 1215 1128 m 87 1042 l 174 1042 l 174 955 l 87 955 l 87 1042 m 1128 1042 l 1215 1042 l 1215 955 l 1128 955 l 1128 1042 m 434 1042 l 521 1042 l 521 868 l 434 868 l 434 1042 m 1042 955 l 1128 955 l 1128 868 l 1042 868 l 1042 955 m 434 781 l 260 781 l 260 868 l 434 868 l 434 781 m 955 868 l 1042 868 l 1042 781 l 955 781 l 955 868 m 868 781 l 955 781 l 955 694 l 868 694 l 868 781 m 87 694 l 174 694 l 174 608 l 87 608 l 87 694 m 434 781 l 521 781 l 521 608 l 434 608 l 434 781 m 781 694 l 868 694 l 868 608 l 781 608 l 781 694 m 434 608 l 434 521 l 174 521 l 174 608 l 434 608 m 694 608 l 781 608 l 781 521 l 694 521 l 694 608 m 608 521 l 694 521 l 694 434 l 608 434 l 608 521 m 521 434 l 608 434 l 608 347 l 521 347 l 521 434 m 868 434 l 1128 434 l 1128 347 l 868 347 l 868 434 m 434 347 l 521 347 l 521 260 l 434 260 l 434 347 m 347 260 l 434 260 l 434 174 l 347 174 l 347 260 m 781 347 l 868 347 l 868 174 l 781 174 l 781 347 m 1128 347 l 1215 347 l 1215 174 l 1128 174 l 1128 347 m 260 174 l 347 174 l 347 87 l 260 87 l 260 174 m 1128 174 l 1128 87 l 868 87 l 868 174 l 1128 174 m 174 87 l 260 87 l 260 0 l 174 0 l 174 87 m 87 0 l 174 0 l 174 -87 l 87 -87 l 87 0 m 781 87 l 868 87 l 868 -87 l 781 -87 l 781 87 m 1128 87 l 1215 87 l 1215 -87 l 1128 -87 l 1128 87 m 0 -87 l 87 -87 l 87 -174 l 0 -174 l 0 -87 m 868 -87 l 1128 -87 l 1128 -174 l 868 -174 l 868 -87 z "},"⅝":{"ha":1389,"x_min":0,"x_max":1302,"o":"m 1215 1128 l 1302 1128 l 1302 1042 l 1215 1042 l 1215 1128 m 1128 1042 l 1215 1042 l 1215 955 l 1128 955 l 1128 1042 m 1042 955 l 1128 955 l 1128 868 l 1042 868 l 1042 955 m 434 781 l 87 781 l 87 1128 l 521 1128 l 521 1042 l 174 1042 l 174 868 l 434 868 l 434 781 m 955 868 l 1042 868 l 1042 781 l 955 781 l 955 868 m 868 781 l 955 781 l 955 694 l 868 694 l 868 781 m 87 694 l 174 694 l 174 608 l 87 608 l 87 694 m 434 781 l 521 781 l 521 608 l 434 608 l 434 781 m 781 694 l 868 694 l 868 608 l 781 608 l 781 694 m 434 608 l 434 521 l 174 521 l 174 608 l 434 608 m 694 608 l 781 608 l 781 521 l 694 521 l 694 608 m 608 521 l 694 521 l 694 434 l 608 434 l 608 521 m 521 434 l 608 434 l 608 347 l 521 347 l 521 434 m 868 434 l 1128 434 l 1128 347 l 868 347 l 868 434 m 434 347 l 521 347 l 521 260 l 434 260 l 434 347 m 347 260 l 434 260 l 434 174 l 347 174 l 347 260 m 781 347 l 868 347 l 868 174 l 781 174 l 781 347 m 1128 347 l 1215 347 l 1215 174 l 1128 174 l 1128 347 m 260 174 l 347 174 l 347 87 l 260 87 l 260 174 m 1128 174 l 1128 87 l 868 87 l 868 174 l 1128 174 m 174 87 l 260 87 l 260 0 l 174 0 l 174 87 m 87 0 l 174 0 l 174 -87 l 87 -87 l 87 0 m 781 87 l 868 87 l 868 -87 l 781 -87 l 781 87 m 1128 87 l 1215 87 l 1215 -87 l 1128 -87 l 1128 87 m 0 -87 l 87 -87 l 87 -174 l 0 -174 l 0 -87 m 868 -87 l 1128 -87 l 1128 -174 l 868 -174 l 868 -87 z "},"⅞":{"ha":1389,"x_min":0,"x_max":1302,"o":"m 1215 1128 l 1302 1128 l 1302 1042 l 1215 1042 l 1215 1128 m 521 1128 l 521 955 l 434 955 l 434 1042 l 87 1042 l 87 1128 l 521 1128 m 1128 1042 l 1215 1042 l 1215 955 l 1128 955 l 1128 1042 m 1042 955 l 1128 955 l 1128 868 l 1042 868 l 1042 955 m 347 955 l 434 955 l 434 781 l 347 781 l 347 955 m 955 868 l 1042 868 l 1042 781 l 955 781 l 955 868 m 868 781 l 955 781 l 955 694 l 868 694 l 868 781 m 781 694 l 868 694 l 868 608 l 781 608 l 781 694 m 260 781 l 347 781 l 347 521 l 260 521 l 260 781 m 694 608 l 781 608 l 781 521 l 694 521 l 694 608 m 608 521 l 694 521 l 694 434 l 608 434 l 608 521 m 521 434 l 608 434 l 608 347 l 521 347 l 521 434 m 868 434 l 1128 434 l 1128 347 l 868 347 l 868 434 m 434 347 l 521 347 l 521 260 l 434 260 l 434 347 m 347 260 l 434 260 l 434 174 l 347 174 l 347 260 m 781 347 l 868 347 l 868 174 l 781 174 l 781 347 m 1128 347 l 1215 347 l 1215 174 l 1128 174 l 1128 347 m 260 174 l 347 174 l 347 87 l 260 87 l 260 174 m 1128 174 l 1128 87 l 868 87 l 868 174 l 1128 174 m 174 87 l 260 87 l 260 0 l 174 0 l 174 87 m 87 0 l 174 0 l 174 -87 l 87 -87 l 87 0 m 781 87 l 868 87 l 868 -87 l 781 -87 l 781 87 m 1128 87 l 1215 87 l 1215 -87 l 1128 -87 l 1128 87 m 0 -87 l 87 -87 l 87 -174 l 0 -174 l 0 -87 m 868 -87 l 1128 -87 l 1128 -174 l 868 -174 l 868 -87 z "},"⅟":{"ha":1389,"x_min":0,"x_max":1302,"o":"m 1215 1128 l 1302 1128 l 1302 1042 l 1215 1042 l 1215 1128 m 1128 1042 l 1215 1042 l 1215 955 l 1128 955 l 1128 1042 m 1042 955 l 1128 955 l 1128 868 l 1042 868 l 1042 955 m 955 868 l 1042 868 l 1042 781 l 955 781 l 955 868 m 868 781 l 955 781 l 955 694 l 868 694 l 868 781 m 781 694 l 868 694 l 868 608 l 781 608 l 781 694 m 260 955 l 174 955 l 174 1042 l 260 1042 l 260 1128 l 347 1128 l 347 521 l 260 521 l 260 955 m 694 608 l 781 608 l 781 521 l 694 521 l 694 608 m 608 521 l 694 521 l 694 434 l 608 434 l 608 521 m 521 434 l 608 434 l 608 347 l 521 347 l 521 434 m 434 347 l 521 347 l 521 260 l 434 260 l 434 347 m 347 260 l 434 260 l 434 174 l 347 174 l 347 260 m 260 174 l 347 174 l 347 87 l 260 87 l 260 174 m 174 87 l 260 87 l 260 0 l 174 0 l 174 87 m 87 0 l 174 0 l 174 -87 l 87 -87 l 87 0 m 0 -87 l 87 -87 l 87 -174 l 0 -174 l 0 -87 z "},"Ⅰ":{"ha":1389,"x_min":608,"x_max":694,"o":"m 608 955 l 694 955 l 694 0 l 608 0 l 608 955 z "},"Ⅱ":{"ha":1389,"x_min":434,"x_max":868,"o":"m 434 955 l 521 955 l 521 0 l 434 0 l 434 955 m 781 955 l 868 955 l 868 0 l 781 0 l 781 955 z "},"Ⅲ":{"ha":1389,"x_min":260,"x_max":1042,"o":"m 260 955 l 347 955 l 347 0 l 260 0 l 260 955 m 608 955 l 694 955 l 694 0 l 608 0 l 608 955 m 955 955 l 1042 955 l 1042 0 l 955 0 l 955 955 z "},"Ⅳ":{"ha":1389,"x_min":260,"x_max":1042,"o":"m 434 955 l 521 955 l 521 694 l 434 694 l 434 955 m 955 955 l 1042 955 l 1042 694 l 955 694 l 955 955 m 521 694 l 608 694 l 608 434 l 521 434 l 521 694 m 868 694 l 955 694 l 955 434 l 868 434 l 868 694 m 608 434 l 694 434 l 694 174 l 608 174 l 608 434 m 781 434 l 868 434 l 868 174 l 781 174 l 781 434 m 260 955 l 347 955 l 347 0 l 260 0 l 260 955 m 694 174 l 781 174 l 781 0 l 694 0 l 694 174 z "},"Ⅴ":{"ha":1389,"x_min":347,"x_max":955,"o":"m 347 955 l 434 955 l 434 694 l 347 694 l 347 955 m 868 955 l 955 955 l 955 694 l 868 694 l 868 955 m 434 694 l 521 694 l 521 434 l 434 434 l 434 694 m 781 694 l 868 694 l 868 434 l 781 434 l 781 694 m 521 434 l 608 434 l 608 174 l 521 174 l 521 434 m 694 434 l 781 434 l 781 174 l 694 174 l 694 434 m 608 174 l 694 174 l 694 0 l 608 0 l 608 174 z "},"Ⅵ":{"ha":1389,"x_min":260,"x_max":1042,"o":"m 260 955 l 347 955 l 347 694 l 260 694 l 260 955 m 781 955 l 868 955 l 868 694 l 781 694 l 781 955 m 347 694 l 434 694 l 434 434 l 347 434 l 347 694 m 694 694 l 781 694 l 781 434 l 694 434 l 694 694 m 434 434 l 521 434 l 521 174 l 434 174 l 434 434 m 608 434 l 694 434 l 694 174 l 608 174 l 608 434 m 521 174 l 608 174 l 608 0 l 521 0 l 521 174 m 955 955 l 1042 955 l 1042 0 l 955 0 l 955 955 z "},"Ⅶ":{"ha":1389,"x_min":174,"x_max":1128,"o":"m 174 955 l 260 955 l 260 694 l 174 694 l 174 955 m 694 955 l 781 955 l 781 694 l 694 694 l 694 955 m 260 694 l 347 694 l 347 434 l 260 434 l 260 694 m 608 694 l 694 694 l 694 434 l 608 434 l 608 694 m 347 434 l 434 434 l 434 174 l 347 174 l 347 434 m 521 434 l 608 434 l 608 174 l 521 174 l 521 434 m 434 174 l 521 174 l 521 0 l 434 0 l 434 174 m 868 955 l 955 955 l 955 0 l 868 0 l 868 955 m 1042 955 l 1128 955 l 1128 0 l 1042 0 l 1042 955 z "},"Ⅷ":{"ha":1389,"x_min":87,"x_max":1215,"o":"m 87 955 l 174 955 l 174 694 l 87 694 l 87 955 m 608 955 l 694 955 l 694 694 l 608 694 l 608 955 m 174 694 l 260 694 l 260 434 l 174 434 l 174 694 m 521 694 l 608 694 l 608 434 l 521 434 l 521 694 m 260 434 l 347 434 l 347 174 l 260 174 l 260 434 m 434 434 l 521 434 l 521 174 l 434 174 l 434 434 m 347 174 l 434 174 l 434 0 l 347 0 l 347 174 m 781 955 l 868 955 l 868 0 l 781 0 l 781 955 m 955 955 l 1042 955 l 1042 0 l 955 0 l 955 955 m 1128 955 l 1215 955 l 1215 0 l 1128 0 l 1128 955 z "},"Ⅸ":{"ha":1389,"x_min":260,"x_max":1042,"o":"m 434 955 l 521 955 l 521 781 l 434 781 l 434 955 m 955 955 l 1042 955 l 1042 781 l 955 781 l 955 955 m 521 781 l 608 781 l 608 608 l 521 608 l 521 781 m 868 781 l 955 781 l 955 608 l 868 608 l 868 781 m 608 608 l 694 608 l 694 521 l 608 521 l 608 608 m 781 608 l 868 608 l 868 521 l 781 521 l 781 608 m 694 521 l 781 521 l 781 434 l 694 434 l 694 521 m 608 434 l 694 434 l 694 347 l 608 347 l 608 434 m 781 434 l 868 434 l 868 347 l 781 347 l 781 434 m 521 347 l 608 347 l 608 174 l 521 174 l 521 347 m 868 347 l 955 347 l 955 174 l 868 174 l 868 347 m 260 955 l 347 955 l 347 0 l 260 0 l 260 955 m 434 174 l 521 174 l 521 0 l 434 0 l 434 174 m 955 174 l 1042 174 l 1042 0 l 955 0 l 955 174 z "},"Ⅹ":{"ha":1389,"x_min":347,"x_max":955,"o":"m 347 955 l 434 955 l 434 781 l 347 781 l 347 955 m 868 955 l 955 955 l 955 781 l 868 781 l 868 955 m 434 781 l 521 781 l 521 608 l 434 608 l 434 781 m 781 781 l 868 781 l 868 608 l 781 608 l 781 781 m 521 608 l 608 608 l 608 521 l 521 521 l 521 608 m 694 608 l 781 608 l 781 521 l 694 521 l 694 608 m 608 521 l 694 521 l 694 434 l 608 434 l 608 521 m 521 434 l 608 434 l 608 347 l 521 347 l 521 434 m 694 434 l 781 434 l 781 347 l 694 347 l 694 434 m 434 347 l 521 347 l 521 174 l 434 174 l 434 347 m 781 347 l 868 347 l 868 174 l 781 174 l 781 347 m 347 174 l 434 174 l 434 0 l 347 0 l 347 174 m 868 174 l 955 174 l 955 0 l 868 0 l 868 174 z "},"Ⅺ":{"ha":1389,"x_min":260,"x_max":1042,"o":"m 260 955 l 347 955 l 347 781 l 260 781 l 260 955 m 781 955 l 868 955 l 868 781 l 781 781 l 781 955 m 347 781 l 434 781 l 434 608 l 347 608 l 347 781 m 694 781 l 781 781 l 781 608 l 694 608 l 694 781 m 434 608 l 521 608 l 521 521 l 434 521 l 434 608 m 608 608 l 694 608 l 694 521 l 608 521 l 608 608 m 521 521 l 608 521 l 608 434 l 521 434 l 521 521 m 434 434 l 521 434 l 521 347 l 434 347 l 434 434 m 608 434 l 694 434 l 694 347 l 608 347 l 608 434 m 347 347 l 434 347 l 434 174 l 347 174 l 347 347 m 694 347 l 781 347 l 781 174 l 694 174 l 694 347 m 260 174 l 347 174 l 347 0 l 260 0 l 260 174 m 781 174 l 868 174 l 868 0 l 781 0 l 781 174 m 955 955 l 1042 955 l 1042 0 l 955 0 l 955 955 z "},"Ⅻ":{"ha":1389,"x_min":174,"x_max":1128,"o":"m 174 955 l 260 955 l 260 781 l 174 781 l 174 955 m 694 955 l 781 955 l 781 781 l 694 781 l 694 955 m 260 781 l 347 781 l 347 608 l 260 608 l 260 781 m 608 781 l 694 781 l 694 608 l 608 608 l 608 781 m 347 608 l 434 608 l 434 521 l 347 521 l 347 608 m 521 608 l 608 608 l 608 521 l 521 521 l 521 608 m 434 521 l 521 521 l 521 434 l 434 434 l 434 521 m 347 434 l 434 434 l 434 347 l 347 347 l 347 434 m 521 434 l 608 434 l 608 347 l 521 347 l 521 434 m 260 347 l 347 347 l 347 174 l 260 174 l 260 347 m 608 347 l 694 347 l 694 174 l 608 174 l 608 347 m 174 174 l 260 174 l 260 0 l 174 0 l 174 174 m 694 174 l 781 174 l 781 0 l 694 0 l 694 174 m 868 955 l 955 955 l 955 0 l 868 0 l 868 955 m 1042 955 l 1128 955 l 1128 0 l 1042 0 l 1042 955 z "},"Ⅼ":{"ha":1389,"x_min":434,"x_max":955,"o":"m 955 87 l 955 0 l 434 0 l 434 955 l 521 955 l 521 87 l 955 87 z "}}}
